<svg width="36" height="35" viewBox="0 0 36 35" fill="none" xmlns="http://www.w3.org/2000/svg">
<path d="M20.4896 1.59879L24.4742 9.67204L33.3824 10.962C33.9119 11.0389 34.4094 11.2625 34.8185 11.6075C35.2276 11.9525 35.5319 12.4051 35.6971 12.914C35.8623 13.423 35.8817 13.9681 35.7532 14.4875C35.6246 15.007 35.3533 15.4801 34.9698 15.8533L28.5234 22.1385L30.0463 31.0108C30.1361 31.5375 30.0769 32.0789 29.8753 32.5738C29.6738 33.0686 29.3379 33.4973 28.9057 33.8114C28.4734 34.1256 27.962 34.3126 27.429 34.3515C26.8961 34.3904 26.3629 34.2796 25.8896 34.0315L17.9167 29.8426L9.94739 34.0315C9.47411 34.2796 8.94092 34.3904 8.408 34.3515C7.87507 34.3126 7.36362 34.1256 6.93137 33.8114C6.49911 33.4973 6.16326 33.0686 5.96171 32.5738C5.76016 32.0789 5.70093 31.5375 5.79072 31.0108L7.31005 22.1385L0.863635 15.8533C0.481139 15.4797 0.210747 15.0066 0.0830106 14.4874C-0.0447256 13.9682 -0.0247154 13.4236 0.140781 12.9152C0.306277 12.4068 0.610662 11.9548 1.01955 11.6103C1.42843 11.2658 1.92551 11.0425 2.45463 10.9656L11.3628 9.67204L15.3439 1.59879C15.5805 1.11891 15.9468 0.714837 16.4011 0.432291C16.8555 0.149744 17.3799 0 17.9149 0C18.45 0 18.9744 0.149744 19.4287 0.432291C19.8831 0.714837 20.2493 1.11891 20.486 1.59879H20.4896ZM21.5001 27.6747L26.2695 30.183L24.9293 22.3714C24.8508 21.9134 24.8847 21.4431 25.0283 21.0012C25.1719 20.5592 25.4208 20.1588 25.7535 19.8344L31.4295 14.3017L23.5856 13.1622C23.1514 13.0988 22.7376 12.9366 22.3761 12.6881C22.0145 12.4396 21.7148 12.1114 21.5001 11.7289V27.6747V27.6747Z" fill="#FF2E00"/>
</svg>
