<svg width="34" height="37" viewBox="0 0 34 37" fill="none" xmlns="http://www.w3.org/2000/svg">
<path d="M0.700195 0V36.4H33.6002V0H0.700195ZM18.6048 28.3881C18.6048 31.9306 16.7248 33.5478 13.9859 33.5478C11.5114 33.5478 10.079 32.1347 9.34467 30.42L11.8639 28.7378C12.3491 29.6881 12.7898 30.4928 13.8543 30.4928C14.8672 30.4928 15.5134 30.0534 15.5134 28.34V16.7128H18.6048V28.3881ZM25.918 33.5478C23.0463 33.5478 21.1887 32.0372 20.2851 30.0534L22.8043 28.4453C23.4658 29.64 24.3318 30.5253 25.8522 30.5253C27.1295 30.5253 27.9531 29.8181 27.9531 28.8353C27.9531 27.6653 27.1154 27.2506 25.6983 26.5603L24.9275 26.195C22.695 25.1472 21.2192 23.8225 21.2192 21.0353C21.2192 18.4678 22.9888 16.5178 25.743 16.5178C27.7111 16.5178 29.1211 17.2731 30.1351 19.2556L27.7264 20.9625C27.1976 19.9147 26.6242 19.5 25.7359 19.5C24.8335 19.5 24.2601 20.1344 24.2601 20.9625C24.2601 21.9869 24.8335 22.4003 26.1624 23.0425L26.9332 23.4078C29.5629 24.6506 31.0387 25.9272 31.0387 28.7859C31.0387 31.8578 28.8497 33.5465 25.9192 33.5465L25.918 33.5478Z" fill="black"/>
</svg>
