<svg width="28" height="30" viewBox="0 0 28 30" fill="none" xmlns="http://www.w3.org/2000/svg">
<path d="M22.0063 14.3493C22.0063 12.7593 21.475 11.6587 21.0204 10.8018L20.881 10.5581C20.3288 9.60185 19.8463 8.76185 19.8463 7.7831C19.8463 6.60185 20.679 5.49935 21.853 5.49935C21.8878 5.49935 21.9209 5.5031 21.954 5.50497L22.008 5.5106C19.8066 3.33398 16.9253 2.12793 13.9361 2.13185C11.955 2.13075 10.0047 2.66026 8.26111 3.67266C6.51749 4.68507 5.03528 6.14855 3.94806 7.93122C4.22676 7.9406 4.49327 7.94809 4.71797 7.94809C5.96691 7.94809 7.90216 7.78497 7.90216 7.78497C8.54666 7.74372 8.6233 8.76185 7.9788 8.84435C7.9788 8.84435 7.33256 8.92685 6.61141 8.96622L10.9662 22.905L13.579 14.4562L11.7152 8.96435C11.0724 8.9231 10.4627 8.84247 10.4627 8.84247C9.81824 8.80122 9.89489 7.73997 10.5376 7.78122C10.5376 7.78122 12.513 7.94434 13.687 7.94434C14.9377 7.94434 16.8747 7.78122 16.8747 7.78122C17.5192 7.73997 17.5941 8.75997 16.9496 8.84247C16.9496 8.84247 16.3016 8.9231 15.5822 8.96435L19.9021 22.7962L21.0935 18.5081L21.1876 18.1837C21.6579 16.5712 22.0045 15.3806 22.0045 14.3475L22.0063 14.3493ZM1.98146 15C1.98134 17.4164 2.6132 19.784 3.80475 21.8319C4.99629 23.8798 6.69938 25.5253 8.71911 26.58L3.0144 9.76122C2.33128 11.4097 1.97929 13.1949 1.98146 15Z" fill="black"/>
<path d="M10.5576 27.3432L14.1459 16.1251L17.8196 26.9626C17.844 27.0244 17.8718 27.0826 17.9049 27.1388C15.5367 28.0369 12.9658 28.1084 10.5576 27.3432ZM24.4231 8.82568C24.4754 9.23631 24.505 9.67506 24.505 10.1494C24.505 11.4544 24.2785 12.9226 23.5957 14.7582L19.9447 26.1207C22.6389 24.4357 24.6151 21.6846 25.452 18.4538C26.2889 15.223 25.9204 11.7682 24.4249 8.82568H24.4231Z" fill="black"/>
<path fill-rule="evenodd" clip-rule="evenodd" d="M0 15C0 6.72938 6.25166 0 13.9352 0C21.6169 0 27.8703 6.72938 27.8703 15C27.8703 23.2706 21.6169 30 13.9352 30C6.25166 30 0 23.2706 0 15ZM0.639276 15C0.639276 22.8919 6.60353 29.3119 13.9352 29.3119C21.2651 29.3119 27.2293 22.8919 27.2293 15C27.2293 7.10625 21.2651 0.688125 13.9352 0.688125C6.60179 0.688125 0.639276 7.10625 0.639276 15Z" fill="black"/>
</svg>
