<svg width="38" height="37" viewBox="0 0 38 37" fill="none" xmlns="http://www.w3.org/2000/svg">
<path d="M37.8113 18.2179C37.8113 15.5455 34.7024 13.0125 29.9352 11.4427C31.0361 6.21372 30.5473 2.05208 28.3925 0.719213C27.8704 0.404435 27.2794 0.24599 26.6811 0.260357V2.09242C27.0325 2.09242 27.3151 2.16806 27.5524 2.30756C28.5908 2.94962 29.0421 5.39013 28.6908 8.53153C28.6064 9.3047 28.469 10.1182 28.3004 10.9485C26.704 10.5344 25.0838 10.2351 23.4504 10.0526C22.4774 8.60765 21.4159 7.2342 20.2728 5.94143C22.7634 3.4505 25.1009 2.0857 26.6905 2.0857V0.251953C24.5888 0.251953 21.839 1.86383 19.058 4.65899C16.2786 1.88232 13.5273 0.285569 11.4271 0.285569V2.11763C13.0089 2.11763 15.3542 3.47571 17.8448 5.94984C16.7751 7.16001 15.7055 8.53153 14.689 10.0526C13.0523 10.2331 11.4292 10.5353 9.83126 10.9569C9.66239 10.17 9.5295 9.37454 9.43309 8.57355C9.07395 5.43047 9.51741 2.98996 10.5495 2.34118C10.7775 2.19327 11.0758 2.12604 11.4271 2.12604V0.293973C10.7869 0.293973 10.2045 0.441883 9.70166 0.752829C7.55463 2.0857 7.0737 6.23725 8.18079 11.4511C3.42922 13.031 0.335938 15.5539 0.335938 18.2179C0.335938 20.8904 3.44483 23.4233 8.21201 24.9915C7.11118 30.2221 7.59992 34.3838 9.75475 35.715C10.2513 36.0276 10.8322 36.1755 11.4724 36.1755C13.5741 36.1755 16.3239 34.5636 19.1049 31.7685C21.8843 34.5468 24.634 36.1419 26.7358 36.1419C27.3387 36.1556 27.9341 35.9967 28.4612 35.6814C30.6082 34.3502 31.0892 30.1986 29.9821 24.9848C34.718 23.4149 37.8113 20.882 37.8113 18.2179ZM27.8647 12.7335C27.568 13.8325 27.2241 14.9161 26.8342 15.9808C26.1958 14.6442 25.4948 13.3432 24.734 12.083C25.8192 12.2562 26.8654 12.4696 27.8663 12.7335H27.8647ZM24.367 21.4904C23.7951 22.5652 23.1809 23.6133 22.5261 24.6318C20.2342 24.8493 17.9291 24.8521 15.6368 24.6402C14.322 22.6186 13.1721 20.4782 12.2 18.2431C13.1706 16.0028 14.3156 13.855 15.6228 11.8225C17.9141 11.6046 20.2186 11.6013 22.5104 11.8124C23.1444 12.7907 23.7643 13.8361 24.3592 14.9387C24.9401 16.0144 25.4679 17.1069 25.9488 18.2095C25.4625 19.3255 24.9349 20.42 24.367 21.4904ZM26.8342 20.4215C27.2464 21.5224 27.5993 22.625 27.8882 23.694C26.8888 23.9578 25.8333 24.1797 24.7418 24.3511C25.4995 23.0795 26.1978 21.768 26.8342 20.4215ZM19.0892 29.1952C18.3788 28.4052 17.6683 27.5262 16.9656 26.5631C17.6527 26.5967 18.3554 26.6219 19.0658 26.6219C19.7841 26.6219 20.4946 26.6051 21.1894 26.5631C20.5024 27.5262 19.7919 28.4052 19.0892 29.1952ZM13.4055 24.3511C12.3526 24.1869 11.3074 23.9704 10.2732 23.7024C10.5558 22.6418 10.9071 21.5476 11.3037 20.4551C11.6176 21.1106 11.9471 21.7694 12.3062 22.4283C12.6653 23.0855 13.0307 23.7276 13.4055 24.3511ZM19.0502 7.24068C19.7607 8.03066 20.4712 8.90971 21.1738 9.8728C20.4868 9.83919 19.7841 9.81398 19.0736 9.81398C18.3554 9.81398 17.6449 9.83078 16.95 9.8728C17.6371 8.90971 18.3475 8.03066 19.0502 7.24068ZM13.3977 12.0847C12.6402 13.3536 11.9418 14.6623 11.3053 16.006C10.9043 14.9344 10.5526 13.8423 10.2513 12.7335C11.2506 12.478 12.3062 12.2562 13.3977 12.0847ZM6.48502 22.3779C3.78055 21.1375 2.0317 19.5088 2.0317 18.2179C2.0317 16.9271 3.78055 15.29 6.48502 14.058C7.14084 13.7538 7.85912 13.4815 8.60082 13.2277C9.03647 14.8379 9.60953 16.5153 10.3184 18.2347C9.64914 19.852 9.0831 21.5165 8.62424 23.2166C7.89886 22.9748 7.18493 22.6949 6.48502 22.3779ZM10.5948 34.1266C9.55644 33.4879 9.10518 31.0441 9.45651 27.9043C9.54083 27.1312 9.67824 26.316 9.84688 25.4857C11.3428 25.8807 12.9776 26.1849 14.6968 26.3832C15.6699 27.8282 16.7315 29.2016 17.8744 30.4944C15.3839 32.9854 13.0463 34.3502 11.4568 34.3502C11.1569 34.3537 10.8608 34.2775 10.5948 34.1283V34.1266ZM28.7142 27.8623C29.0733 31.0037 28.6299 33.4459 27.5977 34.0947C27.3697 34.2426 27.0715 34.3082 26.7202 34.3082C25.1384 34.3082 22.7931 32.9518 20.3025 30.4759C21.4407 29.1886 22.4951 27.8183 23.4583 26.3748C25.0949 26.1943 26.7181 25.8922 28.316 25.4706C28.4924 26.3009 28.6283 27.0976 28.7142 27.8623ZM31.6544 22.3779C30.9986 22.6821 30.2803 22.9544 29.5386 23.2082C29.0717 21.4994 28.4979 19.8265 27.821 18.2011C28.5237 16.4918 29.0874 14.8227 29.5152 13.2193C30.2429 13.4618 30.9594 13.7417 31.6622 14.058C34.3667 15.2984 36.1156 16.9271 36.1156 18.2179C36.1078 19.5088 34.3589 21.1459 31.6544 22.3779Z" fill="black"/>
<path d="M19.0657 21.9762C19.9917 21.9762 20.8797 21.5803 21.5345 20.8755C22.1893 20.1706 22.5571 19.2147 22.5571 18.218C22.5571 17.2212 22.1893 16.2653 21.5345 15.5605C20.8797 14.8557 19.9917 14.4597 19.0657 14.4597C18.1397 14.4597 17.2516 14.8557 16.5968 15.5605C15.9421 16.2653 15.5742 17.2212 15.5742 18.218C15.5742 19.2147 15.9421 20.1706 16.5968 20.8755C17.2516 21.5803 18.1397 21.9762 19.0657 21.9762Z" fill="black"/>
</svg>
