<svg width="39" height="38" viewBox="0 0 39 38" fill="none" xmlns="http://www.w3.org/2000/svg">
<path d="M0.799805 0.700195V37.1002H38.5998V0.700195H0.799805ZM2.37441 2.25546H37.024V35.5438H2.37441V2.25546ZM13.9105 21.313L12.6619 25.9741C12.6371 26.1083 12.5875 26.1317 12.4339 26.1317H10.121C9.96158 26.1317 9.93677 26.0827 9.96158 25.9065L14.4338 10.4355C14.5141 10.1555 14.5625 9.90695 14.5874 9.13457C14.5874 9.03073 14.6429 8.98289 14.7232 8.98289H18.0212C18.1264 8.98289 18.1807 9.00739 18.2055 9.13457L23.2199 25.931C23.2506 26.0582 23.2199 26.1317 23.0912 26.1317H20.4948C20.3589 26.1317 20.2857 26.1013 20.2609 25.9975L18.9568 21.3119H13.9058L13.9105 21.313ZM18.3036 18.7847C17.8606 17.0649 16.8211 13.2975 16.4336 11.4739H16.4029C16.071 13.2905 15.2335 16.3719 14.5885 18.7847H18.3036ZM25.3911 10.138C25.3911 9.13574 26.0927 8.54536 27.0035 8.54536C27.9638 8.54536 28.6159 9.18941 28.6159 10.138C28.6159 11.1647 27.939 11.7306 26.9728 11.7306C26.0313 11.7306 25.3852 11.1659 25.3852 10.138H25.3911ZM25.5694 13.6744C25.5694 13.553 25.619 13.504 25.7478 13.504H28.2213C28.3631 13.504 28.4115 13.553 28.4115 13.686V25.9671C28.4115 26.0943 28.3867 26.1433 28.2272 26.1433H25.7903C25.6309 26.1433 25.5812 26.0698 25.5812 25.9426V13.6732L25.5694 13.6744Z" fill="black"/>
</svg>
