<svg width="24" height="38" viewBox="0 0 24 38" fill="none" xmlns="http://www.w3.org/2000/svg">
<path fill-rule="evenodd" clip-rule="evenodd" d="M6.56735 0.700195C2.92747 0.700195 9.44626e-05 3.81391 9.44626e-05 7.62833C9.44626e-05 9.94731 1.08299 12.0069 2.74748 13.2643C1.88962 13.9196 1.19426 14.7707 0.717159 15.7495C0.240054 16.7282 -0.00552963 17.8073 9.44626e-05 18.9002C9.44626e-05 21.2207 1.08299 23.2788 2.74748 24.5361C1.88962 25.1915 1.19426 26.0426 0.717159 27.0213C0.240054 28 -0.00552963 29.0791 9.44626e-05 30.1721C9.44626e-05 33.9865 2.92747 37.1002 6.56735 37.1002C10.2057 37.1002 13.1346 33.9865 13.1346 30.1721V24.3147C14.2849 25.2926 15.7349 25.8287 17.2326 25.8298C20.8725 25.8283 23.7999 22.7146 23.7999 18.9002C23.8059 17.8072 23.5604 16.728 23.0833 15.7492C22.6062 14.7704 21.9106 13.9193 21.0525 13.2643C21.9104 12.6089 22.6057 11.7578 23.0828 10.7791C23.5599 9.80035 23.8055 8.72127 23.7999 7.62833C23.7999 3.81391 20.8725 0.700195 17.2326 0.700195H6.56735ZM2.46784 7.62833C2.46784 5.21531 4.31529 3.28308 6.56735 3.28308H10.6654V11.9736H6.56735C4.31529 11.9736 2.46784 10.0398 2.46784 7.62833ZM17.2326 11.9721H13.1346V3.28156H17.2326C19.4862 3.28156 21.3321 5.21531 21.3321 7.62833C21.3321 10.0398 19.4862 11.9721 17.2326 11.9721ZM2.46932 18.9002C2.46932 16.4887 4.31678 14.5549 6.56884 14.5549H10.6669V23.2454H6.56735C4.31381 23.2454 2.46784 21.3117 2.46784 18.9002H2.46932ZM13.1346 18.9002C13.1346 16.4887 14.9821 14.5549 17.2341 14.5549C19.4877 14.5549 21.3336 16.4872 21.3336 18.9002C21.3336 21.3117 19.4877 23.2454 17.2341 23.2454C14.9821 23.2454 13.1361 21.3132 13.1361 18.9002H13.1346ZM2.46932 30.1721C2.46932 27.7606 4.31678 25.8283 6.56884 25.8283H10.6669V30.1721C10.6669 32.5851 8.82238 34.5173 6.56884 34.5173C4.31678 34.5173 2.46932 32.5851 2.46932 30.1721Z" fill="black"/>
</svg>
