<svg width="35" height="34" viewBox="0 0 35 34" fill="none" xmlns="http://www.w3.org/2000/svg">
<path d="M18 23C21.3137 23 24 20.3137 24 17C24 13.6863 21.3137 11 18 11C14.6863 11 12 13.6863 12 17C12 20.3137 14.6863 23 18 23Z" fill="black"/>
<path d="M33.8905 10.0353C33.8715 8.60767 33.6038 7.19428 33.0994 5.8583C32.662 4.73141 31.994 3.70799 31.138 2.85343C30.2821 1.99888 29.2569 1.33197 28.1282 0.895332C26.8072 0.400274 25.4116 0.132587 24.0009 0.10367C22.1846 0.022619 21.6087 0 16.9981 0C12.3875 0 11.7965 1.26393e-07 9.99345 0.10367C8.58337 0.1328 7.18846 0.400483 5.86806 0.895332C4.73911 1.33167 3.71383 1.99847 2.85781 2.85306C2.00179 3.70766 1.33389 4.73123 0.896823 5.8583C0.399947 7.1761 0.132396 8.56901 0.105731 9.97683C0.0245446 11.792 0 12.3669 0 16.9698C0 21.5728 -1.40671e-08 22.1609 0.105731 23.9629C0.134052 25.3728 0.400266 26.7638 0.896823 28.0852C1.33462 29.2119 2.00302 30.235 2.85933 31.0893C3.71564 31.9435 4.74101 32.61 5.86995 33.0462C7.18674 33.5612 8.58189 33.848 9.99534 33.8944C11.8135 33.9755 12.3894 34 17 34C21.6106 34 22.2016 34 24.0047 33.8944C25.4153 33.8667 26.811 33.5997 28.1319 33.1047C29.2604 32.6675 30.2853 32.0004 31.1412 31.146C31.9971 30.2915 32.6653 29.2683 33.1032 28.1417C33.5997 26.8223 33.8659 25.4312 33.8943 24.0194C33.9755 22.2061 34 21.6312 34 17.0264C33.9962 12.4234 33.9962 11.8391 33.8905 10.0353V10.0353ZM16.9868 25.6744C12.1647 25.6744 8.25833 21.7745 8.25833 16.9604C8.25833 12.1464 12.1647 8.24648 16.9868 8.24648C19.3017 8.24648 21.5218 9.16455 23.1587 10.7987C24.7956 12.4329 25.7152 14.6493 25.7152 16.9604C25.7152 19.2715 24.7956 21.4879 23.1587 23.1221C21.5218 24.7563 19.3017 25.6744 16.9868 25.6744V25.6744ZM26.0626 9.95609C25.7953 9.95634 25.5305 9.90395 25.2835 9.80193C25.0364 9.6999 24.8119 9.55024 24.6229 9.36151C24.4339 9.17278 24.2839 8.94868 24.1817 8.70204C24.0795 8.4554 24.0271 8.19107 24.0273 7.92416C24.0273 7.65745 24.0799 7.39335 24.1822 7.14694C24.2844 6.90052 24.4343 6.67663 24.6232 6.48803C24.8121 6.29944 25.0364 6.14984 25.2832 6.04777C25.53 5.9457 25.7945 5.89317 26.0617 5.89317C26.3289 5.89317 26.5934 5.9457 26.8402 6.04777C27.087 6.14984 27.3113 6.29944 27.5002 6.48803C27.6891 6.67663 27.839 6.90052 27.9412 7.14694C28.0435 7.39335 28.0961 7.65745 28.0961 7.92416C28.0961 9.04757 27.186 9.95609 26.0626 9.95609Z" fill="#FF5B00"/>
<path d="M34.8905 10.0353C34.8715 8.60767 34.6038 7.19428 34.0994 5.8583C33.662 4.73141 32.994 3.70799 32.138 2.85343C31.2821 1.99888 30.2569 1.33197 29.1282 0.895332C27.8072 0.400274 26.4116 0.132587 25.0009 0.10367C23.1846 0.022619 22.6087 0 17.9981 0C13.3875 0 12.7965 1.26393e-07 10.9934 0.10367C9.58337 0.1328 8.18846 0.400483 6.86806 0.895332C5.73911 1.33167 4.71383 1.99847 3.85781 2.85306C3.00179 3.70766 2.33389 4.73123 1.89682 5.8583C1.39995 7.1761 1.1324 8.56901 1.10573 9.97683C1.02454 11.792 1 12.3669 1 16.9698C1 21.5728 1 22.1609 1.10573 23.9629C1.13405 25.3728 1.40027 26.7638 1.89682 28.0852C2.33462 29.2119 3.00302 30.235 3.85933 31.0893C4.71564 31.9435 5.74101 32.61 6.86995 33.0462C8.18674 33.5612 9.58189 33.848 10.9953 33.8944C12.8135 33.9755 13.3894 34 18 34C22.6106 34 23.2016 34 25.0047 33.8944C26.4153 33.8667 27.811 33.5997 29.1319 33.1047C30.2604 32.6675 31.2853 32.0004 32.1412 31.146C32.9971 30.2915 33.6653 29.2683 34.1032 28.1417C34.5997 26.8223 34.8659 25.4312 34.8943 24.0194C34.9755 22.2061 35 21.6312 35 17.0264C34.9962 12.4234 34.9962 11.8391 34.8905 10.0353V10.0353ZM17.9868 25.6744C13.1647 25.6744 9.25833 21.7745 9.25833 16.9604C9.25833 12.1464 13.1647 8.24648 17.9868 8.24648C20.3017 8.24648 22.5218 9.16455 24.1587 10.7987C25.7956 12.4329 26.7152 14.6493 26.7152 16.9604C26.7152 19.2715 25.7956 21.4879 24.1587 23.1221C22.5218 24.7563 20.3017 25.6744 17.9868 25.6744V25.6744ZM27.0626 9.95609C26.7953 9.95634 26.5305 9.90395 26.2835 9.80193C26.0364 9.6999 25.8119 9.55024 25.6229 9.36151C25.4339 9.17278 25.2839 8.94868 25.1817 8.70204C25.0795 8.4554 25.0271 8.19107 25.0273 7.92416C25.0273 7.65745 25.0799 7.39335 25.1822 7.14694C25.2844 6.90052 25.4343 6.67663 25.6232 6.48803C25.8121 6.29944 26.0364 6.14984 26.2832 6.04777C26.53 5.9457 26.7945 5.89317 27.0617 5.89317C27.3289 5.89317 27.5934 5.9457 27.8402 6.04777C28.087 6.14984 28.3113 6.29944 28.5002 6.48803C28.6891 6.67663 28.839 6.90052 28.9412 7.14694C29.0435 7.39335 29.0961 7.65745 29.0961 7.92416C29.0961 9.04757 28.186 9.95609 27.0626 9.95609Z" fill="black"/>
</svg>
