<svg width="34" height="33" viewBox="0 0 34 33" fill="none" xmlns="http://www.w3.org/2000/svg">
<path fill-rule="evenodd" clip-rule="evenodd" d="M4.08089e-07 2.757C4.08089e-07 2.0258 0.290469 1.32455 0.807507 0.80751C1.32454 0.290472 2.0258 3.67547e-06 2.757 3.67547e-06H30.24C30.6024 -0.000588152 30.9613 0.070298 31.2962 0.208604C31.6311 0.346909 31.9355 0.549918 32.1919 0.806008C32.4482 1.0621 32.6516 1.36624 32.7903 1.70102C32.9289 2.0358 33.0002 2.39464 33 2.757V30.24C33.0004 30.6024 32.9293 30.9614 32.7909 31.2963C32.6524 31.6313 32.4492 31.9356 32.193 32.192C31.9368 32.4483 31.6326 32.6516 31.2977 32.7903C30.9628 32.9289 30.6039 33.0002 30.2415 33H2.757C2.39482 33 2.03619 32.9286 1.7016 32.79C1.367 32.6513 1.06301 32.4481 0.806976 32.192C0.550946 31.9358 0.347898 31.6317 0.209434 31.297C0.0709699 30.9624 -0.000196643 30.6037 4.08089e-07 30.2415V2.757ZM13.062 12.582H17.5305V14.826C18.1755 13.536 19.8255 12.375 22.305 12.375C27.0585 12.375 28.185 14.9445 28.185 19.659V28.392H23.3745V20.733C23.3745 18.048 22.7295 16.533 21.0915 16.533C18.819 16.533 17.874 18.1665 17.874 20.733V28.392H13.062V12.582ZM4.812 28.1865H9.624V12.375H4.812V28.185V28.1865ZM10.3125 7.218C10.3216 7.63001 10.2483 8.03968 10.0969 8.42297C9.94546 8.80627 9.71903 9.15546 9.43085 9.45005C9.14267 9.74465 8.79855 9.97871 8.41868 10.1385C8.03882 10.2983 7.63086 10.3806 7.21875 10.3806C6.80664 10.3806 6.39868 10.2983 6.01882 10.1385C5.63895 9.97871 5.29483 9.74465 5.00665 9.45005C4.71847 9.15546 4.49204 8.80627 4.34064 8.42297C4.18924 8.03968 4.11593 7.63001 4.125 7.218C4.14281 6.40928 4.47658 5.63969 5.05483 5.07403C5.63308 4.50837 6.40984 4.19163 7.21875 4.19163C8.02766 4.19163 8.80442 4.50837 9.38267 5.07403C9.96092 5.63969 10.2947 6.40928 10.3125 7.218V7.218Z" fill="#FF5B00"/>
<path fill-rule="evenodd" clip-rule="evenodd" d="M1 2.757C1 2.0258 1.29047 1.32455 1.80751 0.80751C2.32454 0.290472 3.0258 3.67547e-06 3.757 3.67547e-06H31.24C31.6024 -0.000588152 31.9613 0.070298 32.2962 0.208604C32.6311 0.346909 32.9355 0.549918 33.1919 0.806008C33.4482 1.0621 33.6516 1.36624 33.7903 1.70102C33.9289 2.0358 34.0002 2.39464 34 2.757V30.24C34.0004 30.6024 33.9293 30.9614 33.7909 31.2963C33.6524 31.6313 33.4492 31.9356 33.193 32.192C32.9368 32.4483 32.6326 32.6516 32.2977 32.7903C31.9628 32.9289 31.6039 33.0002 31.2415 33H3.757C3.39482 33 3.03619 32.9286 2.7016 32.79C2.367 32.6513 2.06301 32.4481 1.80698 32.192C1.55095 31.9358 1.3479 31.6317 1.20943 31.297C1.07097 30.9624 0.999803 30.6037 1 30.2415V2.757ZM14.062 12.582H18.5305V14.826C19.1755 13.536 20.8255 12.375 23.305 12.375C28.0585 12.375 29.185 14.9445 29.185 19.659V28.392H24.3745V20.733C24.3745 18.048 23.7295 16.533 22.0915 16.533C19.819 16.533 18.874 18.1665 18.874 20.733V28.392H14.062V12.582ZM5.812 28.1865H10.624V12.375H5.812V28.185V28.1865ZM11.3125 7.218C11.3216 7.63001 11.2483 8.03968 11.0969 8.42297C10.9455 8.80627 10.719 9.15546 10.4308 9.45005C10.1427 9.74465 9.79855 9.97871 9.41868 10.1385C9.03882 10.2983 8.63086 10.3806 8.21875 10.3806C7.80664 10.3806 7.39868 10.2983 7.01882 10.1385C6.63895 9.97871 6.29483 9.74465 6.00665 9.45005C5.71847 9.15546 5.49204 8.80627 5.34064 8.42297C5.18924 8.03968 5.11593 7.63001 5.125 7.218C5.14281 6.40928 5.47658 5.63969 6.05483 5.07403C6.63308 4.50837 7.40984 4.19163 8.21875 4.19163C9.02766 4.19163 9.80442 4.50837 10.3827 5.07403C10.9609 5.63969 11.2947 6.40928 11.3125 7.218V7.218Z" fill="black"/>
</svg>
