<svg width="30" height="34" viewBox="0 0 30 34" fill="none" xmlns="http://www.w3.org/2000/svg">
<path d="M25.3895 7.27078C25.1636 7.15209 24.9437 7.02198 24.7307 6.88095C24.1116 6.46502 23.5439 5.97497 23.0399 5.42136C21.7774 3.95421 21.306 2.4659 21.1335 1.42484H21.1395C20.9952 0.559059 21.0547 0 21.0651 0H15.3177V22.5784C15.3177 22.8806 15.3177 23.1813 15.3058 23.4774C15.3058 23.5137 15.3013 23.5469 15.2999 23.5877C15.2999 23.6029 15.2999 23.621 15.2954 23.6376V23.6512C15.235 24.4611 14.9797 25.2435 14.5518 25.9296C14.124 26.6157 13.5367 27.1844 12.8418 27.5858C12.1167 28.0049 11.2967 28.2247 10.4625 28.2234C7.78581 28.2234 5.61472 26.0053 5.61472 23.2659C5.61472 20.525 7.78581 18.3069 10.4625 18.3069C10.9696 18.3069 11.4737 18.3885 11.9555 18.5487L11.9629 12.6015C10.4997 12.4097 9.01321 12.5282 7.59731 12.9495C6.18141 13.3708 4.86685 14.0857 3.73659 15.0493C2.746 15.9234 1.91315 16.9665 1.27553 18.1316C1.03314 18.5562 0.117119 20.2651 0.00707735 23.0362C-0.0628138 24.6076 0.402631 26.2395 0.624201 26.9119V26.927C0.762496 27.3229 1.30378 28.6767 2.18411 29.8175C2.89402 30.7331 3.73279 31.5375 4.67343 32.2048V32.1897L4.68681 32.2048C7.46758 34.1237 10.5532 33.9983 10.5532 33.9983C11.0871 33.9757 12.876 33.9983 14.9073 33.0207C17.1601 31.9358 18.442 30.3206 18.442 30.3206C19.2615 29.3553 19.9132 28.2552 20.3692 27.0675C20.8897 25.6774 21.0622 24.0123 21.0622 23.3475V11.367C21.132 11.4093 22.0614 12.0334 22.0614 12.0334C22.0614 12.0334 23.3998 12.9052 25.4861 13.4718C26.9821 13.8752 29 13.9614 29 13.9614V8.16377C28.2937 8.24234 26.8587 8.01569 25.388 7.2723L25.3895 7.27078Z" fill="#FF5B00"/>
<path d="M26.3895 7.27078C26.1636 7.15209 25.9437 7.02198 25.7307 6.88095C25.1116 6.46502 24.5439 5.97497 24.0399 5.42136C22.7774 3.95421 22.306 2.4659 22.1335 1.42484H22.1395C21.9952 0.559059 22.0547 0 22.0651 0H16.3177V22.5784C16.3177 22.8806 16.3177 23.1813 16.3058 23.4774C16.3058 23.5137 16.3013 23.5469 16.2999 23.5877C16.2999 23.6029 16.2999 23.621 16.2954 23.6376V23.6512C16.235 24.4611 15.9797 25.2435 15.5518 25.9296C15.124 26.6157 14.5367 27.1844 13.8418 27.5858C13.1167 28.0049 12.2967 28.2247 11.4625 28.2234C8.78581 28.2234 6.61472 26.0053 6.61472 23.2659C6.61472 20.525 8.78581 18.3069 11.4625 18.3069C11.9696 18.3069 12.4737 18.3885 12.9555 18.5487L12.9629 12.6015C11.4997 12.4097 10.0132 12.5282 8.59731 12.9495C7.18141 13.3708 5.86685 14.0857 4.73659 15.0493C3.746 15.9234 2.91315 16.9665 2.27553 18.1316C2.03314 18.5562 1.11712 20.2651 1.00708 23.0362C0.937186 24.6076 1.40263 26.2395 1.6242 26.9119V26.927C1.7625 27.3229 2.30378 28.6767 3.18411 29.8175C3.89402 30.7331 4.73279 31.5375 5.67343 32.2048V32.1897L5.68681 32.2048C8.46758 34.1237 11.5532 33.9983 11.5532 33.9983C12.0871 33.9757 13.876 33.9983 15.9073 33.0207C18.1601 31.9358 19.442 30.3206 19.442 30.3206C20.2615 29.3553 20.9132 28.2552 21.3692 27.0675C21.8897 25.6774 22.0622 24.0123 22.0622 23.3475V11.367C22.132 11.4093 23.0614 12.0334 23.0614 12.0334C23.0614 12.0334 24.3998 12.9052 26.4861 13.4718C27.9821 13.8752 30 13.9614 30 13.9614V8.16377C29.2937 8.24234 27.8587 8.01569 26.388 7.2723L26.3895 7.27078Z" fill="black"/>
</svg>
