<svg width="37" height="25" viewBox="0 0 37 25" fill="none" xmlns="http://www.w3.org/2000/svg">
<path d="M35.3939 3.75567C35.1892 3.03088 34.7905 2.3747 34.2402 1.85687C33.6744 1.32312 32.9808 0.941317 32.2251 0.747497C29.3967 0.00741395 18.0649 0.00741412 18.0649 0.00741412C13.3408 -0.0459426 8.61788 0.188734 3.92277 0.710118C3.167 0.918258 2.47477 1.30859 1.90763 1.84641C1.35038 2.37867 0.94675 3.03502 0.735898 3.75418C0.229392 6.46294 -0.0167037 9.21336 0.00092953 11.9683C-0.0171435 14.7209 0.228348 17.4704 0.735898 20.1825C0.942232 20.8987 1.34436 21.552 1.90311 22.0798C2.46187 22.6076 3.15768 22.9888 3.92277 23.1907C6.78885 23.9293 18.0649 23.9293 18.0649 23.9293C22.795 23.9827 27.5239 23.748 32.2251 23.2266C32.9808 23.0328 33.6744 22.6509 34.2402 22.1172C34.7904 21.5995 35.1886 20.9432 35.3924 20.2184C35.9121 17.5107 36.1648 14.7591 36.1469 12.0027C36.186 9.23468 35.9336 6.47015 35.3939 3.75418V3.75567ZM14.4623 17.0876V6.85056L23.8904 11.9698L14.4623 17.0876Z" fill="#FF5B00"/>
<path d="M35.3939 3.75567C35.1892 3.03088 34.7905 2.3747 34.2402 1.85687C33.6744 1.32312 32.9808 0.941317 32.2251 0.747497C29.3967 0.00741395 18.0649 0.00741412 18.0649 0.00741412C13.3408 -0.0459426 8.61788 0.188734 3.92277 0.710118C3.167 0.918258 2.47477 1.30859 1.90763 1.84641C1.35038 2.37867 0.94675 3.03502 0.735898 3.75418C0.229392 6.46294 -0.0167037 9.21336 0.00092953 11.9683C-0.0171435 14.7209 0.228348 17.4704 0.735898 20.1825C0.942232 20.8987 1.34436 21.552 1.90311 22.0798C2.46187 22.6076 3.15768 22.9888 3.92277 23.1907C6.78885 23.9293 18.0649 23.9293 18.0649 23.9293C22.795 23.9827 27.5239 23.748 32.2251 23.2266C32.9808 23.0328 33.6744 22.6509 34.2402 22.1172C34.7904 21.5995 35.1886 20.9432 35.3924 20.2184C35.9121 17.5107 36.1648 14.7591 36.1469 12.0027C36.186 9.23468 35.9336 6.47015 35.3939 3.75418V3.75567ZM14.4623 17.0876V6.85056L23.8904 11.9698L14.4623 17.0876Z" stroke="#FF5B00"/>
<path d="M36.1736 3.78482C35.9688 3.05441 35.57 2.39313 35.0194 1.87129C34.4533 1.33339 33.7595 0.948624 33.0034 0.753299C30.1738 0.0074715 18.8372 0.00747167 18.8372 0.00747167C14.1111 -0.0462993 9.38618 0.190199 4.68908 0.715631C3.933 0.925387 3.24047 1.31875 2.67309 1.86074C2.1156 2.39713 1.7118 3.05858 1.50086 3.78332C0.994138 6.51311 0.747938 9.28488 0.765578 12.0613C0.747498 14.8351 0.993093 17.606 1.50086 20.3392C1.70728 21.0609 2.10957 21.7193 2.66857 22.2512C3.22756 22.7831 3.92367 23.1673 4.68908 23.3707C7.55638 24.115 18.8372 24.115 18.8372 24.115C23.5693 24.1689 28.3003 23.9324 33.0034 23.4069C33.7595 23.2115 34.4533 22.8268 35.0194 22.2889C35.5698 21.7671 35.9681 21.1058 36.172 20.3753C36.692 17.6466 36.9448 14.8737 36.9269 12.0959C36.966 9.30637 36.7135 6.52038 36.1736 3.78332V3.78482ZM15.2331 17.2203V6.90374L24.6652 12.0628L15.2331 17.2203Z" fill="black"/>
</svg>
