<svg width="31" height="26" viewBox="0 0 31 26" fill="none" xmlns="http://www.w3.org/2000/svg">
<path d="M27.825 1H3.175C1.97378 1 1 1.97378 1 3.175V22.025C1 23.2262 1.97378 24.2 3.175 24.2H27.825C29.0262 24.2 30 23.2262 30 22.025V3.175C30 1.97378 29.0262 1 27.825 1Z" stroke="black" stroke-width="2" stroke-linejoin="round"/>
<path d="M1 3.175C1 2.59815 1.22915 2.04493 1.63704 1.63704C2.04493 1.22915 2.59815 1 3.175 1H27.825C28.4018 1 28.9551 1.22915 29.363 1.63704C29.7708 2.04493 30 2.59815 30 3.175V9.7H1V3.175Z" stroke="black" stroke-width="2"/>
<rect x="2" y="11" width="27" height="12" fill="black" stroke="black" stroke-width="2"/>
<path d="M3.8998 5.35005C3.8998 4.54924 4.54899 3.90005 5.3498 3.90005C6.15062 3.90005 6.7998 4.54924 6.7998 5.35005C6.7998 6.15086 6.15062 6.80005 5.3498 6.80005C4.54899 6.80005 3.8998 6.15086 3.8998 5.35005Z" fill="black"/>
<path d="M8.25039 5.35005C8.25039 4.54924 8.89958 3.90005 9.70039 3.90005C10.5012 3.90005 11.1504 4.54924 11.1504 5.35005C11.1504 6.15086 10.5012 6.80005 9.70039 6.80005C8.89958 6.80005 8.25039 6.15086 8.25039 5.35005Z" fill="black"/>
</svg>
