<svg width="25" height="24" viewBox="0 0 25 24" fill="none" xmlns="http://www.w3.org/2000/svg">
<path fill-rule="evenodd" clip-rule="evenodd" d="M1.66699 2.4C1.66699 1.76348 1.93038 1.15303 2.39923 0.702944C2.86807 0.252856 3.50395 0 4.16699 0L17.8453 0L23.3337 5.2688V21.6C23.3337 22.2365 23.0703 22.847 22.6014 23.2971C22.1326 23.7471 21.4967 24 20.8337 24H4.16699C3.50395 24 2.86807 23.7471 2.39923 23.2971C1.93038 22.847 1.66699 22.2365 1.66699 21.6V2.4ZM6.66699 6.4H11.667V8H6.66699V6.4ZM18.3337 11.2H6.66699V12.8H18.3337V11.2ZM18.3337 16H13.3337V17.6H18.3337V16Z" fill="#FF7A01"/>
</svg>
