<svg width="28" height="34" viewBox="0 0 28 34" fill="none" xmlns="http://www.w3.org/2000/svg">
<path fill-rule="evenodd" clip-rule="evenodd" d="M27.3 9.44528V29.3853C27.3 30.4987 26.8891 31.5664 26.1577 32.3537C25.4263 33.1409 24.4343 33.5832 23.4 33.5832H21.45V31.4843H23.4C23.9172 31.4843 24.4132 31.2631 24.7789 30.8695C25.1446 30.4759 25.35 29.942 25.35 29.3853V9.44528H21.45C20.6742 9.44528 19.9303 9.11357 19.3817 8.52313C18.8332 7.93268 18.525 7.13187 18.525 6.29685V2.09895H7.8C7.28283 2.09895 6.78684 2.32009 6.42114 2.71372C6.05545 3.10735 5.85 3.64122 5.85 4.1979V23.0885H3.9V4.1979C3.9 3.08455 4.31089 2.0168 5.04228 1.22954C5.77367 0.442278 6.76566 0 7.8 0L18.525 0L27.3 9.44528ZM6.62415 31.1505C6.63531 31.4812 6.71065 31.8058 6.84532 32.1033C6.97999 32.4008 7.17101 32.6647 7.4061 32.878C7.6596 33.1046 7.96965 33.281 8.3382 33.4069C8.7087 33.5349 9.13965 33.5979 9.63495 33.5979C10.294 33.5979 10.8518 33.4867 11.31 33.2663C11.7702 33.0459 12.1212 32.7373 12.361 32.3427C12.6048 31.946 12.7257 31.4864 12.7257 30.9658C12.7257 30.4957 12.6379 30.1052 12.4644 29.7904C12.2859 29.4759 12.0337 29.2175 11.7331 29.0411C11.3878 28.8357 11.0157 28.6871 10.6294 28.6003L9.4185 28.2981C9.13305 28.2416 8.86349 28.1152 8.6307 27.9286C8.54173 27.8548 8.47001 27.7596 8.42126 27.6506C8.37251 27.5417 8.34808 27.422 8.3499 27.3011C8.3499 26.9736 8.4708 26.7049 8.71065 26.4951C8.9544 26.2831 9.28785 26.176 9.70905 26.176C9.9879 26.176 10.2277 26.2243 10.4305 26.3187C10.6172 26.4007 10.7821 26.5312 10.9102 26.6987C11.0303 26.8545 11.1109 27.041 11.1442 27.2402H12.6067C12.5824 26.8127 12.4473 26.4012 12.2167 26.0522C11.9703 25.6754 11.6333 25.3779 11.2417 25.1916C10.7629 24.9655 10.2434 24.8565 9.72075 24.8726C9.1494 24.8726 8.6463 24.9775 8.20755 25.1874C7.7688 25.3952 7.42755 25.6912 7.1799 26.0711C6.93225 26.4531 6.8094 26.9002 6.8094 27.4123C6.8094 27.8342 6.8874 28.2015 7.0473 28.5121C7.2072 28.8249 7.4373 29.0789 7.7337 29.2825C8.0301 29.4819 8.3811 29.633 8.78475 29.7295L9.98985 30.0318C10.3935 30.1346 10.6938 30.269 10.8927 30.4369C10.9899 30.5166 11.0676 30.6205 11.1192 30.7397C11.1709 30.8589 11.1948 30.9898 11.1891 31.1211C11.1929 31.3375 11.135 31.5499 11.0233 31.7298C10.8978 31.9141 10.725 32.0549 10.5261 32.1349C10.3096 32.2336 10.0406 32.2819 9.72075 32.2819C9.4926 32.2819 9.2859 32.2546 9.09675 32.1979C8.92436 32.1465 8.76099 32.0649 8.61315 31.9565C8.48333 31.8661 8.37219 31.7478 8.28665 31.6092C8.2011 31.4705 8.14298 31.3144 8.1159 31.1505H6.62415ZM1.5717 28.7409C1.5717 28.2204 1.638 27.7754 1.7706 27.4123C1.88626 27.077 2.09108 26.7857 2.3595 26.5748C2.63309 26.3779 2.95677 26.2774 3.28575 26.2873C3.57825 26.2873 3.8376 26.3544 4.06185 26.4909C4.28161 26.6172 4.46504 26.806 4.59225 27.0366C4.72816 27.2794 4.80837 27.5535 4.82625 27.8363H6.318V27.6852C6.30506 27.2985 6.2176 26.919 6.06117 26.5707C5.90474 26.2224 5.68276 25.9128 5.4093 25.6618C5.12916 25.4062 4.8052 25.2123 4.45575 25.0909C4.07523 24.9522 3.67577 24.8834 3.27405 24.8873C2.57985 24.8873 1.98705 25.0426 1.4976 25.3553C1.0101 25.666 0.6396 26.1088 0.3822 26.6819C0.1287 27.257 0 27.9412 0 28.7367V29.782C0 30.5775 0.1248 31.2597 0.37635 31.8306C0.6318 32.3994 1.00425 32.8381 1.49175 33.1445C1.97925 33.4489 2.57205 33.6 3.27405 33.6C3.8454 33.6 4.35435 33.4846 4.8048 33.2558C5.2533 33.0249 5.6121 32.71 5.8773 32.3029C6.14632 31.8861 6.29921 31.3953 6.318 30.8882V30.7286H4.8282C4.80981 30.9989 4.73086 31.2603 4.5981 31.4906C4.46814 31.7134 4.28496 31.8947 4.0677 32.0153C3.82421 32.1421 3.55617 32.2047 3.28575 32.1979C2.9563 32.208 2.63162 32.1115 2.35365 31.9208C2.08662 31.7162 1.88337 31.4294 1.7706 31.0981C1.62802 30.6767 1.56054 30.2302 1.5717 29.782V28.743V28.7409ZM13.221 32.093C13.0916 31.7973 13.018 31.477 13.0045 31.1505H14.4943C14.5214 31.3144 14.5796 31.4705 14.6651 31.6092C14.7506 31.7478 14.8618 31.8661 14.9916 31.9565C15.1281 32.0594 15.2919 32.1391 15.4791 32.1958C15.6643 32.2546 15.871 32.2819 16.1011 32.2819C16.4209 32.2819 16.6881 32.2336 16.9065 32.1349C17.1054 32.0549 17.2782 31.9141 17.4037 31.7298C17.5152 31.5498 17.573 31.3375 17.5695 31.1211C17.575 30.9896 17.5507 30.8586 17.4988 30.7394C17.4468 30.6202 17.3687 30.5164 17.2712 30.4369C17.0742 30.269 16.7719 30.1346 16.3683 30.0318L15.1632 29.7316C14.7918 29.647 14.4364 29.4951 14.1121 29.2825C13.8262 29.0934 13.5905 28.828 13.4277 28.5121C13.2618 28.1736 13.1793 27.7949 13.1878 27.4123C13.1878 26.9002 13.3107 26.4531 13.5583 26.0711C13.806 25.6912 14.1492 25.3952 14.586 25.1853C15.0247 24.9754 15.5298 24.8726 16.1011 24.8726C16.6939 24.8726 17.201 24.9775 17.6202 25.1916C18.0434 25.4057 18.369 25.6933 18.5952 26.0522C18.8292 26.409 18.9599 26.8057 18.9852 27.2402H17.5227C17.4893 27.041 17.4087 26.8545 17.2887 26.6987C17.1605 26.5312 16.9957 26.4007 16.809 26.3187C16.5802 26.2184 16.3346 26.1698 16.0875 26.176C15.6663 26.176 15.3328 26.281 15.0891 26.4951C14.9748 26.5897 14.8828 26.712 14.8205 26.852C14.7581 26.992 14.7273 27.1458 14.7303 27.3011C14.7303 27.555 14.8219 27.7628 15.0091 27.9307C15.2421 28.1166 15.5117 28.2422 15.7969 28.2981L17.0079 28.5982C17.431 28.7031 17.7996 28.8501 18.1116 29.0411C18.4236 29.23 18.6673 29.4819 18.8428 29.7925C19.0183 30.1032 19.1061 30.4957 19.1061 30.9679C19.1061 31.4864 18.9832 31.946 18.7395 32.3448C18.4799 32.7555 18.1146 33.0758 17.6884 33.2663C17.2321 33.4867 16.6744 33.5979 16.0154 33.5979C15.5201 33.5979 15.0871 33.5349 14.7186 33.409C14.379 33.2993 14.0625 33.1197 13.7865 32.8801C13.5484 32.6637 13.3557 32.3954 13.221 32.093Z" fill="black"/>
</svg>
