<svg width="37" height="38" viewBox="0 0 37 38" fill="none" xmlns="http://www.w3.org/2000/svg">
<g clip-path="url(#clip0_1025_188)">
<path d="M30.5536 1.15625H7.04485C6.19803 1.15521 5.35932 1.32123 4.57675 1.64481C3.79419 1.96839 3.08315 2.44318 2.48435 3.04197C1.88556 3.64076 1.41077 4.35181 1.08719 5.13437C0.763611 5.91693 0.59759 6.75564 0.598638 7.60247V30.1978C0.59759 31.0446 0.763611 31.8833 1.08719 32.6659C1.41077 33.4484 1.88556 34.1595 2.48435 34.7583C3.08315 35.3571 3.79419 35.8318 4.57675 36.1554C5.35932 36.479 6.19803 36.645 7.04485 36.644H30.5536C31.4004 36.645 32.2391 36.479 33.0217 36.1554C33.8042 35.8318 34.5153 35.3571 35.1141 34.7583C35.7129 34.1595 36.1876 33.4484 36.5112 32.6659C36.8348 31.8833 37.0008 31.0446 36.9998 30.1978V7.60247C37.0008 6.75564 36.8348 5.91693 36.5112 5.13437C36.1876 4.35181 35.7129 3.64076 35.1141 3.04197C34.5153 2.44318 33.8042 1.96839 33.0217 1.64481C32.2391 1.32123 31.4004 1.15521 30.5536 1.15625ZM35.4653 29.6063C35.4695 30.3295 35.3307 31.0464 35.0569 31.7159C34.7831 32.3853 34.3797 32.994 33.8699 33.507C33.36 34.02 32.7539 34.4272 32.0861 34.7051C31.4184 34.983 30.7024 35.1263 29.9791 35.1266H7.62043C6.16122 35.1245 4.76239 34.5438 3.73058 33.512C2.69877 32.4802 2.11817 31.0814 2.11606 29.6222V8.17691C2.11817 6.7177 2.69877 5.31887 3.73058 4.28706C4.76239 3.25525 6.16122 2.67465 7.62043 2.67254H29.9609C31.4207 2.67284 32.8206 3.25286 33.8528 4.28507C34.885 5.31727 35.465 6.71715 35.4653 8.17691V29.6063ZM14.9903 17.7626L19.2389 25.9208C19.3162 26.0448 19.2696 26.1631 19.149 26.1631H16.5066C16.3416 26.1631 16.2643 26.1221 16.1926 25.9674C15.2223 23.9654 14.2316 21.9634 13.2181 19.8124H13.1896C12.257 21.8837 11.2949 23.9417 10.3038 25.9856C10.2344 26.1039 10.1571 26.1505 10.0319 26.1505H7.53056C7.377 26.1505 7.36563 26.0266 7.44298 25.9378L11.596 18.022L7.57948 10.0128C7.48393 9.88884 7.57948 9.79898 7.66706 9.79898H10.2742C10.4278 9.79898 10.4881 9.82969 10.5472 9.96392C11.5152 11.9818 12.4612 14.0101 13.3853 16.0484H13.4137C14.2964 14.0464 15.269 11.9671 16.204 9.98212C16.2814 9.85813 16.328 9.78078 16.477 9.78078H18.9169C19.0409 9.78078 19.0887 9.87633 19.0125 9.99463L14.9903 17.7626ZM19.9839 20.2333C19.9839 16.7025 22.3306 13.9406 26.0627 13.9406C26.3824 13.9406 26.5484 13.9406 26.851 13.9713V9.95482C26.851 9.85927 26.9272 9.80012 27.0046 9.80012H29.3979C29.5219 9.80012 29.5526 9.84676 29.5526 9.91842V23.8471C29.5526 24.2555 29.5526 24.7708 29.6299 25.327C29.6299 25.4225 29.5992 25.451 29.5059 25.4999C28.2932 26.0761 26.9675 26.3757 25.6248 26.3769C22.3306 26.394 19.9839 24.3624 19.9839 20.2333ZM26.8521 16.3521C26.572 16.245 26.2738 16.1929 25.974 16.1986C24.0619 16.1986 22.7287 17.6728 22.7287 20.115C22.7287 22.9053 24.0903 24.0246 25.8091 24.0246C26.1696 24.0246 26.5678 23.9836 26.8521 23.8596V16.3521Z" fill="black"/>
</g>
<defs>
<clipPath id="clip0_1025_188">
<rect width="36.4" height="36.4" fill="white" transform="translate(0.599609 0.700195)"/>
</clipPath>
</defs>
</svg>
