<svg width="35" height="37" viewBox="0 0 35 37" fill="none" xmlns="http://www.w3.org/2000/svg">
<path d="M34.9825 8.87672C34.9936 8.92357 35.0002 8.97601 35.0002 9.02175V16.6862C35.0005 16.784 34.9751 16.8802 34.9266 16.9648C34.8781 17.0495 34.8083 17.1197 34.7243 17.1682L28.3613 20.8755V28.2142C28.3616 28.312 28.3362 28.4081 28.2877 28.4928C28.2393 28.5775 28.1695 28.6476 28.0855 28.6961L14.8033 36.4242C14.7723 36.4416 14.7394 36.4551 14.7051 36.4644L14.6709 36.4822C14.5785 36.5057 14.4819 36.5057 14.3895 36.4822C14.3756 36.478 14.3622 36.472 14.3498 36.4644C14.3179 36.4544 14.2872 36.4409 14.2582 36.4242L0.981596 28.6961C0.897003 28.6478 0.826471 28.5778 0.777078 28.4933C0.727686 28.4087 0.701172 28.3124 0.700195 28.2142V5.22186C0.700195 5.17501 0.711231 5.12257 0.723369 5.07683C0.728887 5.05898 0.734405 5.04782 0.741026 5.02997L0.775236 4.94295C0.780753 4.9251 0.79841 4.91395 0.809445 4.8961L0.861311 4.82581C0.879888 4.81421 0.897264 4.80076 0.913177 4.78565C0.936351 4.7678 0.952904 4.75106 0.976078 4.73879L7.61493 0.874195C7.69888 0.825454 7.794 0.799805 7.89081 0.799805C7.98762 0.799805 8.08274 0.825454 8.1667 0.874195L14.8111 4.73879C14.8342 4.74995 14.8508 4.7678 14.8684 4.78565L14.9258 4.82581C14.9428 4.84818 14.9583 4.87166 14.9722 4.8961C14.9832 4.90725 15.0009 4.9251 15.0119 4.94295L15.0461 5.02997C15.0516 5.04782 15.0638 5.05898 15.0638 5.07683C15.0805 5.12326 15.0883 5.17247 15.0869 5.22186V19.5802L20.6156 16.3616V9.02287C20.6177 8.95694 20.6316 8.89193 20.6565 8.83097L20.6907 8.74395C20.7017 8.72053 20.7194 8.70937 20.7304 8.69152C20.7481 8.66809 20.7591 8.64466 20.7768 8.62793C20.7944 8.61119 20.8165 8.59892 20.8341 8.58776C20.8507 8.56919 20.8701 8.55338 20.8915 8.54091L27.5359 4.67631C27.6189 4.62482 27.7144 4.59756 27.8118 4.59756C27.9092 4.59756 28.0047 4.62482 28.0877 4.67631L34.7265 8.54091C34.7497 8.55206 34.7662 8.56991 34.7894 8.58776C34.8071 8.59892 34.8236 8.61119 34.8413 8.62793C34.8589 8.64466 34.8755 8.66809 34.8932 8.69152C34.9042 8.70937 34.9218 8.72053 34.9274 8.74395C34.945 8.77296 34.9505 8.80197 34.9616 8.83097C34.9726 8.84213 34.9792 8.85998 34.9847 8.87783L34.9825 8.87672ZM33.89 16.3605V9.99236L31.5682 11.3401L28.3613 13.211V19.5791L33.89 16.3605ZM27.2578 27.8884V21.5136L24.0962 23.3321L15.0836 28.5388V34.9716L27.2578 27.8884ZM1.80152 6.19136V27.8884L13.9746 34.9716V28.5388L7.61162 24.8951C7.58845 24.884 7.57189 24.8661 7.55424 24.8483C7.53658 24.8371 7.51451 24.8249 7.50237 24.8081H7.49685C7.4792 24.7903 7.46816 24.768 7.4505 24.7501C7.43947 24.7323 7.42181 24.7155 7.41078 24.6921C7.39793 24.6702 7.38826 24.6465 7.38208 24.6218C7.37105 24.5984 7.35891 24.5816 7.35339 24.5582C7.34788 24.5348 7.34236 24.5058 7.34236 24.4768C7.33684 24.4534 7.33132 24.4366 7.33132 24.4132V9.41L4.12446 7.53906L1.80152 6.19136ZM7.88861 2.00211L2.35991 5.22075L7.88861 8.43938L13.4173 5.22075L7.88861 2.00211ZM10.7677 22.096L13.9746 20.2251V6.19247L11.6528 7.54017L8.44037 9.41111V23.4437L10.7677 22.096ZM27.8096 5.802L22.2743 9.02063L27.8096 12.2393L33.3383 9.02063L27.8096 5.802ZM27.2578 13.211L21.7225 9.99236V16.3605L24.9294 18.2314L27.2567 19.5791L27.2578 13.211ZM14.5275 27.5693L26.695 20.5497L21.1718 17.3311L9.0098 24.4087L14.5275 27.5693Z" fill="black"/>
</svg>
