<svg width="39" height="39" viewBox="0 0 39 39" fill="none" xmlns="http://www.w3.org/2000/svg">
<g clip-path="url(#clip0_1025_186)">
<path d="M0.400391 0.482422V38.0175H38.9004V0.482422H0.400391ZM2.00416 2.08619H37.2954V36.4125H2.00416V2.08619ZM9.70536 9.27366C9.70536 9.16658 9.93155 9.08597 10.0627 9.08597C11.4407 9.02768 12.8198 9.0004 14.199 9.00416C18.6482 9.00416 20.3771 11.4417 20.3771 14.5626C20.3771 18.6424 17.4198 20.3905 13.7972 20.3905C13.1836 20.3905 12.9767 20.3593 12.5507 20.3593V26.5253C12.5507 26.6564 12.5002 26.713 12.3691 26.713H9.88703C9.75589 26.713 9.70536 26.6624 9.70536 26.5313V9.27366ZM12.5507 17.7966C12.9201 17.8219 13.2149 17.8219 13.8537 17.8219C15.727 17.8219 17.4944 17.1577 17.4944 14.6203C17.4944 12.5835 16.2287 11.55 14.0859 11.55C13.4531 11.55 12.8455 11.5752 12.5507 11.6005V17.7966ZM26.3614 15.8848C25.0897 15.8848 24.6638 16.5237 24.6638 17.0507C24.6638 17.633 24.9526 18.0288 26.6502 18.9059C29.1635 20.1283 29.9588 21.2869 29.9588 23.0097C29.9588 25.5724 27.9977 26.9512 25.3532 26.9512C23.9492 26.9512 22.7533 26.6564 22.0639 26.2618C21.964 26.2113 21.9387 26.1306 21.9387 25.9983V23.6426C21.9387 23.4862 22.0145 23.4296 22.1204 23.5114C23.0806 24.1358 24.2019 24.4669 25.3472 24.4643C26.6189 24.4643 27.1459 23.9373 27.1459 23.2179C27.1459 22.6356 26.7765 22.1339 25.1655 21.2881C22.8844 20.198 21.9315 19.0888 21.9315 17.2335C21.9315 15.1654 23.5485 13.4485 26.3494 13.4485C27.7282 13.4485 28.6991 13.6615 29.2321 13.8937C29.3632 13.9755 29.3885 14.1066 29.3885 14.2137V16.413C29.3885 16.5441 29.3067 16.626 29.1503 16.5694C28.4356 16.1495 27.3829 15.88 26.3554 15.88L26.3614 15.8848Z" fill="black"/>
</g>
<defs>
<clipPath id="clip0_1025_186">
<rect width="38.5" height="38.5" fill="white" transform="translate(0.400391)"/>
</clipPath>
</defs>
</svg>
