<svg width="38" height="37" viewBox="0 0 38 37" fill="none" xmlns="http://www.w3.org/2000/svg">
<path d="M14.7133 16.778C15.0725 16.5179 15.246 16.0884 15.246 15.4979C15.2584 15.2171 15.2006 14.9404 15.0767 14.6885C14.9652 14.4862 14.8 14.3169 14.5977 14.1971C14.3879 14.0699 14.1548 13.9856 13.9122 13.9493C13.6479 13.8998 13.3795 13.875 13.1152 13.8791H10.2122V17.1703H13.3547C13.8956 17.1744 14.354 17.0423 14.7133 16.778ZM15.2006 19.7512C14.7959 19.4415 14.2549 19.2887 13.5818 19.2887H10.2039V23.1704H13.5157C13.8254 23.1704 14.1104 23.1415 14.3871 23.0837C14.6488 23.0325 14.8984 22.9316 15.1221 22.7864C15.3327 22.6501 15.502 22.4643 15.63 22.2248C15.7539 21.9853 15.8158 21.6797 15.8158 21.3122C15.8158 20.5812 15.6094 20.0651 15.2006 19.7512ZM18.5 0C8.28371 0 0 8.28371 0 18.5C0 28.7163 8.28371 37 18.5 37C28.7163 37 37 28.7163 37 18.5C37 8.28371 28.7163 0 18.5 0ZM22.072 11.8474H27.7872V13.2391H22.072V11.8474ZM18.5 23.3232C18.2327 23.8306 17.851 24.2689 17.385 24.6033C16.8978 24.942 16.3568 25.1897 15.7828 25.3343C15.1823 25.4952 14.5628 25.5744 13.9411 25.5696H7.10268V11.484H13.7511C14.4242 11.484 15.0354 11.546 15.5929 11.6616C16.1462 11.7772 16.617 11.9754 17.0134 12.2439C17.4057 12.5123 17.7154 12.8715 17.9343 13.3175C18.149 13.7594 18.2605 14.3127 18.2605 14.9693C18.2605 15.6796 18.0994 16.266 17.7773 16.7408C17.4511 17.2157 16.9804 17.5998 16.3403 17.9012C17.2116 18.149 17.8517 18.5908 18.2729 19.2103C18.7023 19.8379 18.9129 20.5895 18.9129 21.4732C18.9129 22.1917 18.7767 22.807 18.5 23.3232ZM30.0129 21.1429H22.646C22.646 21.944 22.9227 22.7121 23.3397 23.125C23.7609 23.5338 24.3638 23.7403 25.1526 23.7403C25.7224 23.7403 26.2056 23.5958 26.6185 23.3108C27.0273 23.0259 27.2751 22.7244 27.366 22.4106H29.8354C29.4389 23.6371 28.836 24.5125 28.0184 25.0411C27.209 25.5696 26.218 25.8339 25.0658 25.8339C24.2606 25.8339 23.5379 25.7018 22.8896 25.4499C22.2661 25.2062 21.7045 24.8346 21.242 24.3556C20.7859 23.8637 20.4335 23.2851 20.2055 22.6542C19.9536 21.9564 19.8297 21.2213 19.8379 20.4821C19.8379 19.7182 19.966 19.0079 20.2137 18.3472C20.6886 17.0629 21.6756 16.0347 22.935 15.502C23.6081 15.2212 24.3308 15.0808 25.0617 15.0891C25.9289 15.0891 26.6805 15.2542 27.3329 15.5929C27.961 15.9162 28.5064 16.3796 28.9269 16.9473C29.344 17.5131 29.6372 18.1573 29.823 18.884C30.0006 19.5984 30.0625 20.35 30.0129 21.1429ZM24.975 17.1951C24.529 17.1951 24.1532 17.2735 23.8642 17.4263C23.5751 17.5791 23.3356 17.7691 23.1539 17.9879C22.9809 18.1993 22.853 18.4438 22.7781 18.7065C22.7121 18.9253 22.6666 19.1483 22.6501 19.3754H27.2132C27.1471 18.661 26.8993 18.1325 26.569 17.7608C26.2221 17.3933 25.6646 17.1951 24.975 17.1951Z" fill="#FF5B00"/>
<path d="M15.7133 16.778C16.0725 16.5179 16.246 16.0884 16.246 15.4979C16.2584 15.2171 16.2006 14.9404 16.0767 14.6885C15.9652 14.4862 15.8 14.3169 15.5977 14.1971C15.3879 14.0699 15.1548 13.9856 14.9122 13.9493C14.6479 13.8998 14.3795 13.875 14.1152 13.8791H11.2122V17.1703H14.3547C14.8956 17.1744 15.354 17.0423 15.7133 16.778ZM16.2006 19.7512C15.7959 19.4415 15.2549 19.2887 14.5818 19.2887H11.2039V23.1704H14.5157C14.8254 23.1704 15.1104 23.1415 15.3871 23.0837C15.6488 23.0325 15.8984 22.9316 16.1221 22.7864C16.3327 22.6501 16.502 22.4643 16.63 22.2248C16.7539 21.9853 16.8158 21.6797 16.8158 21.3122C16.8158 20.5812 16.6094 20.0651 16.2006 19.7512ZM19.5 0C9.28371 0 1 8.28371 1 18.5C1 28.7163 9.28371 37 19.5 37C29.7163 37 38 28.7163 38 18.5C38 8.28371 29.7163 0 19.5 0ZM23.072 11.8474H28.7872V13.2391H23.072V11.8474ZM19.5 23.3232C19.2327 23.8306 18.851 24.2689 18.385 24.6033C17.8978 24.942 17.3568 25.1897 16.7828 25.3343C16.1823 25.4952 15.5628 25.5744 14.9411 25.5696H8.10268V11.484H14.7511C15.4242 11.484 16.0354 11.546 16.5929 11.6616C17.1462 11.7772 17.617 11.9754 18.0134 12.2439C18.4057 12.5123 18.7154 12.8715 18.9343 13.3175C19.149 13.7594 19.2605 14.3127 19.2605 14.9693C19.2605 15.6796 19.0994 16.266 18.7773 16.7408C18.4511 17.2157 17.9804 17.5998 17.3403 17.9012C18.2116 18.149 18.8517 18.5908 19.2729 19.2103C19.7023 19.8379 19.9129 20.5895 19.9129 21.4732C19.9129 22.1917 19.7767 22.807 19.5 23.3232ZM31.0129 21.1429H23.646C23.646 21.944 23.9227 22.7121 24.3397 23.125C24.7609 23.5338 25.3638 23.7403 26.1526 23.7403C26.7224 23.7403 27.2056 23.5958 27.6185 23.3108C28.0273 23.0259 28.2751 22.7244 28.366 22.4106H30.8354C30.4389 23.6371 29.836 24.5125 29.0184 25.0411C28.209 25.5696 27.218 25.8339 26.0658 25.8339C25.2606 25.8339 24.5379 25.7018 23.8896 25.4499C23.2661 25.2062 22.7045 24.8346 22.242 24.3556C21.7859 23.8637 21.4335 23.2851 21.2055 22.6542C20.9536 21.9564 20.8297 21.2213 20.8379 20.4821C20.8379 19.7182 20.966 19.0079 21.2137 18.3472C21.6886 17.0629 22.6756 16.0347 23.935 15.502C24.6081 15.2212 25.3308 15.0808 26.0617 15.0891C26.9289 15.0891 27.6805 15.2542 28.3329 15.5929C28.961 15.9162 29.5064 16.3796 29.9269 16.9473C30.344 17.5131 30.6372 18.1573 30.823 18.884C31.0006 19.5984 31.0625 20.35 31.0129 21.1429ZM25.975 17.1951C25.529 17.1951 25.1532 17.2735 24.8642 17.4263C24.5751 17.5791 24.3356 17.7691 24.1539 17.9879C23.9809 18.1993 23.853 18.4438 23.7781 18.7065C23.7121 18.9253 23.6666 19.1483 23.6501 19.3754H28.2132C28.1471 18.661 27.8993 18.1325 27.569 17.7608C27.2221 17.3933 26.6646 17.1951 25.975 17.1951Z" fill="black"/>
</svg>
