<svg width="40" height="53" viewBox="0 0 40 53" fill="none" xmlns="http://www.w3.org/2000/svg">
<path d="M22.8619 8.92208C22.2129 8.32841 21.3713 8 20.4988 8C19.6264 8 18.7848 8.32841 18.1358 8.92208L5.1715 20.7851C4.8026 21.1229 4.50765 21.5359 4.30581 21.9974C4.10398 22.4588 3.99978 22.9583 4 23.4635V40.4001C4 41.3548 4.37251 42.2705 5.03559 42.9456C5.69866 43.6207 6.59799 44 7.53571 44H33.4643C34.402 44 35.3013 43.6207 35.9644 42.9456C36.6275 42.2705 37 41.3548 37 40.4001V23.4635C37.0002 22.9583 36.896 22.4588 36.6942 21.9974C36.4924 21.5359 36.1974 21.1229 35.8285 20.7851L22.8642 8.92208H22.8619ZM13.4286 29.6002C12.8034 29.6002 12.2039 29.3473 11.7618 28.8973C11.3198 28.4472 11.0714 27.8367 11.0714 27.2002C11.0714 26.5637 11.3198 25.9533 11.7618 25.5032C12.2039 25.0531 12.8034 24.8003 13.4286 24.8003C14.0537 24.8003 14.6533 25.0531 15.0953 25.5032C15.5374 25.9533 15.7857 26.5637 15.7857 27.2002C15.7857 27.8367 15.5374 28.4472 15.0953 28.8973C14.6533 29.3473 14.0537 29.6002 13.4286 29.6002ZM22.8571 27.2002C22.8571 27.8367 22.6088 28.4472 22.1668 28.8973C21.7247 29.3473 21.1252 29.6002 20.5 29.6002C19.8748 29.6002 19.2753 29.3473 18.8332 28.8973C18.3912 28.4472 18.1429 27.8367 18.1429 27.2002C18.1429 26.5637 18.3912 25.9533 18.8332 25.5032C19.2753 25.0531 19.8748 24.8003 20.5 24.8003C21.1252 24.8003 21.7247 25.0531 22.1668 25.5032C22.6088 25.9533 22.8571 26.5637 22.8571 27.2002ZM27.5714 29.6002C26.9463 29.6002 26.3467 29.3473 25.9047 28.8973C25.4626 28.4472 25.2143 27.8367 25.2143 27.2002C25.2143 26.5637 25.4626 25.9533 25.9047 25.5032C26.3467 25.0531 26.9463 24.8003 27.5714 24.8003C28.1966 24.8003 28.7961 25.0531 29.2382 25.5032C29.6802 25.9533 29.9286 26.5637 29.9286 27.2002C29.9286 27.8367 29.6802 28.4472 29.2382 28.8973C28.7961 29.3473 28.1966 29.6002 27.5714 29.6002ZM15.7857 34.4001C15.7857 35.0366 15.5374 35.6471 15.0953 36.0972C14.6533 36.5472 14.0537 36.8001 13.4286 36.8001C12.8034 36.8001 12.2039 36.5472 11.7618 36.0972C11.3198 35.6471 11.0714 35.0366 11.0714 34.4001C11.0714 33.7636 11.3198 33.1532 11.7618 32.7031C12.2039 32.253 12.8034 32.0002 13.4286 32.0002C14.0537 32.0002 14.6533 32.253 15.0953 32.7031C15.5374 33.1532 15.7857 33.7636 15.7857 34.4001ZM20.5 36.8001C19.8748 36.8001 19.2753 36.5472 18.8332 36.0972C18.3912 35.6471 18.1429 35.0366 18.1429 34.4001C18.1429 33.7636 18.3912 33.1532 18.8332 32.7031C19.2753 32.253 19.8748 32.0002 20.5 32.0002C21.1252 32.0002 21.7247 32.253 22.1668 32.7031C22.6088 33.1532 22.8571 33.7636 22.8571 34.4001C22.8571 35.0366 22.6088 35.6471 22.1668 36.0972C21.7247 36.5472 21.1252 36.8001 20.5 36.8001ZM29.9286 34.4001C29.9286 35.0366 29.6802 35.6471 29.2382 36.0972C28.7961 36.5472 28.1966 36.8001 27.5714 36.8001C26.9463 36.8001 26.3467 36.5472 25.9047 36.0972C25.4626 35.6471 25.2143 35.0366 25.2143 34.4001C25.2143 33.7636 25.4626 33.1532 25.9047 32.7031C26.3467 32.253 26.9463 32.0002 27.5714 32.0002C28.1966 32.0002 28.7961 32.253 29.2382 32.7031C29.6802 33.1532 29.9286 33.7636 29.9286 34.4001Z" fill="black"/>
</svg>
