<svg width="16" height="16" viewBox="0 0 16 16" fill="none" xmlns="http://www.w3.org/2000/svg">
<rect x="15.2168" y="15.2166" width="15.2165" height="15.2165" rx="7.60826" transform="rotate(180 15.2168 15.2166)" fill="black"/>
<path d="M4.71889 7.40401C4.52363 7.59928 4.52363 7.91586 4.71889 8.11112L7.90087 11.2931C8.09613 11.4884 8.41272 11.4884 8.60798 11.2931C8.80324 11.0978 8.80324 10.7813 8.60798 10.586L5.77955 7.75757L8.60798 4.92914C8.80324 4.73388 8.80324 4.4173 8.60798 4.22203C8.41272 4.02677 8.09613 4.02677 7.90087 4.22203L4.71889 7.40401ZM15.2168 7.25757L5.07244 7.25757L5.07244 8.25757L15.2168 8.25757L15.2168 7.25757Z" fill="white"/>
</svg>
