<svg width="40" height="53" viewBox="0 0 40 53" fill="none" xmlns="http://www.w3.org/2000/svg">
<path d="M19.5 10C10.4019 10 3 17.4019 3 26.5C3 35.5981 10.4019 43 19.5 43C28.5981 43 36 35.5981 36 26.5C36 17.4019 28.5981 10 19.5 10ZM13.725 26.5C13.3999 26.4999 13.0779 26.4357 12.7776 26.3112C12.4773 26.1867 12.2044 26.0042 11.9746 25.7743C11.7447 25.5443 11.5625 25.2713 11.4381 24.9709C11.3138 24.6704 11.2499 24.3485 11.25 24.0233C11.2501 23.6982 11.3143 23.3763 11.4388 23.076C11.5633 22.7756 11.7458 22.5027 11.9757 22.2729C12.2057 22.0431 12.4787 21.8608 12.7791 21.7365C13.0796 21.6122 13.4015 21.5482 13.7267 21.5483C14.3833 21.5486 15.0129 21.8096 15.4771 22.2741C15.9412 22.7385 16.2019 23.3684 16.2017 24.025C16.2014 24.6816 15.9404 25.3113 15.4759 25.7754C15.0115 26.2396 14.3816 26.5002 13.725 26.5ZM25.2635 26.4769C24.9345 26.4853 24.6071 26.4277 24.3008 26.3076C23.9944 26.1875 23.7151 26.0073 23.4795 25.7775C23.2439 25.5478 23.0567 25.2732 22.9289 24.9699C22.8011 24.6666 22.7353 24.3409 22.7354 24.0118C22.7355 23.6827 22.8015 23.357 22.9295 23.0538C23.0575 22.7506 23.2449 22.4761 23.4807 22.2465C23.7165 22.0169 23.9958 21.8369 24.3023 21.717C24.6088 21.5971 24.9361 21.5397 25.2651 21.5483C25.9076 21.5652 26.5182 21.8323 26.9666 22.2928C27.415 22.7533 27.6658 23.3707 27.6656 24.0134C27.6654 24.6562 27.4141 25.2734 26.9654 25.7336C26.5167 26.1938 25.906 26.4605 25.2635 26.4769Z" fill="black"/>
</svg>
