<svg width="131" height="131" viewBox="0 0 131 131" fill="none" xmlns="http://www.w3.org/2000/svg">
<g filter="url(#filter0_d_810_146)">
<rect x="86" y="35" width="51" height="51" rx="25.5" transform="rotate(90 86 35)" fill="#FF2E00"/>
</g>
<path d="M59.9393 70.0607C60.5251 70.6464 61.4749 70.6464 62.0607 70.0607L71.6066 60.5147C72.1924 59.9289 72.1924 58.9792 71.6066 58.3934C71.0208 57.8076 70.0711 57.8076 69.4853 58.3934L61 66.8787L52.5147 58.3934C51.9289 57.8076 50.9792 57.8076 50.3934 58.3934C49.8076 58.9792 49.8076 59.9289 50.3934 60.5147L59.9393 70.0607ZM59.5 35L59.5 69L62.5 69L62.5 35L59.5 35Z" fill="white"/>
<defs>
<filter id="filter0_d_810_146" x="0" y="0" width="131" height="131" filterUnits="userSpaceOnUse" color-interpolation-filters="sRGB">
<feFlood flood-opacity="0" result="BackgroundImageFix"/>
<feColorMatrix in="SourceAlpha" type="matrix" values="0 0 0 0 0 0 0 0 0 0 0 0 0 0 0 0 0 0 127 0" result="hardAlpha"/>
<feOffset dx="5" dy="5"/>
<feGaussianBlur stdDeviation="20"/>
<feComposite in2="hardAlpha" operator="out"/>
<feColorMatrix type="matrix" values="0 0 0 0 0.862745 0 0 0 0 1 0 0 0 0 0.976471 0 0 0 1 0"/>
<feBlend mode="normal" in2="BackgroundImageFix" result="effect1_dropShadow_810_146"/>
<feBlend mode="normal" in="SourceGraphic" in2="effect1_dropShadow_810_146" result="shape"/>
</filter>
</defs>
</svg>
