<svg width="267" height="55" viewBox="0 0 267 55" fill="none" xmlns="http://www.w3.org/2000/svg">
<path fill-rule="evenodd" clip-rule="evenodd" d="M9.38193 1C4.1821 1 0.000134947 5.44817 0.000134947 10.8973C0.000134947 14.2102 1.54712 17.1525 3.92498 18.9487C2.69946 19.8849 1.70609 21.1008 1.02451 22.4989C0.342934 23.8971 -0.00789947 25.4387 0.000134947 27C0.000134947 30.315 1.54712 33.2552 3.92498 35.0513C2.69946 35.9875 1.70609 37.2034 1.02451 38.6016C0.342934 39.9998 -0.00789947 41.5413 0.000134947 43.1027C0.000134947 48.5518 4.1821 53 9.38193 53C14.5796 53 18.7637 48.5518 18.7637 43.1027V34.735C20.407 36.132 22.4785 36.8979 24.6181 36.8995C29.8179 36.8973 33.9998 32.4492 33.9998 27C34.0084 25.4386 33.6578 23.8969 32.9762 22.4986C32.2945 21.1003 31.3009 19.8845 30.075 18.9487C31.3005 18.0125 32.2939 16.7966 32.9755 15.3984C33.6571 14.0002 34.0079 12.4587 33.9998 10.8973C33.9998 5.44817 29.8179 1 24.6181 1H9.38193V1ZM3.52548 10.8973C3.52548 7.45017 6.16471 4.68983 9.38193 4.68983H15.2363V17.1048H9.38193C6.16471 17.1048 3.52548 14.3423 3.52548 10.8973V10.8973ZM24.6181 17.1027H18.7637V4.68767H24.6181C27.8374 4.68767 30.4745 7.45017 30.4745 10.8973C30.4745 14.3423 27.8374 17.1027 24.6181 17.1027ZM3.52761 27C3.52761 23.555 6.16683 20.7925 9.38406 20.7925H15.2384V33.2075H9.38193C6.16258 33.2075 3.52548 30.445 3.52548 27H3.52761ZM18.7637 27C18.7637 23.555 21.403 20.7925 24.6202 20.7925C27.8395 20.7925 30.4766 23.5528 30.4766 27C30.4766 30.445 27.8395 33.2075 24.6202 33.2075C21.403 33.2075 18.7659 30.4472 18.7659 27H18.7637ZM3.52761 43.1027C3.52761 39.6577 6.16683 36.8973 9.38406 36.8973H15.2384V43.1027C15.2384 46.5498 12.6034 49.3102 9.38406 49.3102C6.16683 49.3102 3.52761 46.5498 3.52761 43.1027Z" fill="black"/>
<path d="M134 1V53H188V1H134ZM136.249 3.22181H185.749V50.7765H136.249V3.22181ZM152.73 30.4469L150.946 37.1056C150.91 37.2973 150.84 37.3307 150.62 37.3307H147.316C147.088 37.3307 147.053 37.2607 147.088 37.009L153.477 14.9076C153.592 14.5075 153.661 14.1525 153.696 13.0491C153.696 12.9008 153.776 12.8324 153.891 12.8324H158.602C158.752 12.8324 158.83 12.8674 158.865 13.0491L166.029 37.044C166.073 37.2257 166.029 37.3307 165.845 37.3307H162.136C161.942 37.3307 161.837 37.2873 161.802 37.139L159.939 30.4452H152.723L152.73 30.4469ZM159.005 26.835C158.373 24.3782 156.888 18.9962 156.334 16.391H156.29C155.816 18.9862 154.62 23.3881 153.698 26.835H159.005ZM169.13 14.4825C169.13 13.0508 170.133 12.2074 171.434 12.2074C172.806 12.2074 173.737 13.1274 173.737 14.4825C173.737 15.9493 172.77 16.7577 171.39 16.7577C170.045 16.7577 169.122 15.951 169.122 14.4825H169.13ZM169.385 19.5345C169.385 19.3612 169.456 19.2912 169.64 19.2912H173.174C173.376 19.2912 173.445 19.3612 173.445 19.5512V37.0956C173.445 37.2773 173.41 37.3473 173.182 37.3473H169.701C169.473 37.3473 169.402 37.2423 169.402 37.0606V19.5329L169.385 19.5345Z" fill="black"/>
<g clip-path="url(#clip0_1031_200)">
<path d="M212 0.689209V54.3108H267V0.689209H212ZM214.291 2.9803H264.707V52.018H214.291V2.9803ZM225.293 13.2481C225.293 13.0951 225.616 12.98 225.803 12.98C227.772 12.8967 229.742 12.8577 231.712 12.8631C238.068 12.8631 240.538 16.3453 240.538 20.8037C240.538 26.632 236.313 29.1294 231.138 29.1294C230.262 29.1294 229.966 29.0847 229.358 29.0847V37.8933C229.358 38.0806 229.285 38.1614 229.098 38.1614H225.552C225.365 38.1614 225.293 38.0892 225.293 37.9019V13.2481ZM229.358 25.4237C229.885 25.4598 230.306 25.4598 231.219 25.4598C233.895 25.4598 236.42 24.5111 236.42 20.8862C236.42 17.9764 234.612 16.5 231.551 16.5C230.647 16.5 229.779 16.5361 229.358 16.5722V25.4237ZM249.087 22.6926C247.27 22.6926 246.662 23.6053 246.662 24.3581C246.662 25.19 247.075 25.7555 249.5 27.0084C253.09 28.7547 254.226 30.4098 254.226 32.8711C254.226 36.532 251.425 38.5017 247.647 38.5017C245.641 38.5017 243.933 38.0806 242.948 37.5169C242.805 37.4447 242.769 37.3295 242.769 37.1405V33.7751C242.769 33.5517 242.877 33.4709 243.029 33.5878C244.4 34.4797 246.002 34.9527 247.638 34.9491C249.455 34.9491 250.208 34.1962 250.208 33.1684C250.208 32.3366 249.68 31.6198 247.379 30.4116C244.12 28.8544 242.759 27.2697 242.759 24.6194C242.759 21.6648 245.069 19.2122 249.07 19.2122C251.04 19.2122 252.427 19.5164 253.188 19.8481C253.375 19.965 253.412 20.1523 253.412 20.3053V23.4472C253.412 23.6345 253.295 23.7514 253.071 23.6706C252.05 23.0708 250.546 22.6858 249.079 22.6858L249.087 22.6926Z" fill="black"/>
</g>
<g clip-path="url(#clip1_1031_200)">
<path d="M100.791 1.65162H67.2069C65.9972 1.65012 64.799 1.88729 63.6811 2.34955C62.5631 2.81181 61.5474 3.49008 60.6919 4.3455C59.8365 5.20092 59.1582 6.21669 58.696 7.33464C58.2337 8.45259 57.9966 9.65075 57.9981 10.8605V43.1395C57.9966 44.3492 58.2337 45.5474 58.696 46.6653C59.1582 47.7833 59.8365 48.7991 60.6919 49.6545C61.5474 50.5099 62.5631 51.1882 63.6811 51.6504C64.799 52.1127 65.9972 52.3499 67.2069 52.3484H100.791C102.001 52.3499 103.199 52.1127 104.317 51.6504C105.435 51.1882 106.45 50.5099 107.306 49.6545C108.161 48.7991 108.839 47.7833 109.302 46.6653C109.764 45.5474 110.001 44.3492 110 43.1395V10.8605C110.001 9.65075 109.764 8.45259 109.302 7.33464C108.839 6.21669 108.161 5.20092 107.306 4.3455C106.45 3.49008 105.435 2.81181 104.317 2.34955C103.199 1.88729 102.001 1.65012 100.791 1.65162V1.65162ZM107.808 42.2945C107.814 43.3277 107.615 44.3519 107.224 45.3082C106.833 46.2645 106.257 47.1341 105.528 47.8669C104.8 48.5998 103.934 49.1815 102.98 49.5785C102.026 49.9756 101.003 50.1802 99.9702 50.1806H68.0292C65.9446 50.1776 63.9463 49.3482 62.4723 47.8742C60.9982 46.4001 60.1688 44.4018 60.1658 42.3172V11.6811C60.1688 9.59655 60.9982 7.59821 62.4723 6.1242C63.9463 4.65018 65.9446 3.82075 68.0292 3.81774H99.9442C102.03 3.81817 104.029 4.64677 105.504 6.12135C106.979 7.59592 107.807 9.59575 107.808 11.6811V42.2945ZM78.5576 25.375L84.6269 37.0295C84.7374 37.2066 84.6708 37.3756 84.4986 37.3756H80.7237C80.4881 37.3756 80.3776 37.3171 80.2752 37.0961C78.8891 34.2361 77.4737 31.3761 76.0258 28.3032H75.9852C74.6528 31.2623 73.2785 34.2022 71.8626 37.1221C71.7634 37.2911 71.6529 37.3577 71.4742 37.3577H67.9008C67.6814 37.3577 67.6652 37.1806 67.7757 37.0539L73.7086 25.7455L67.9707 14.3039C67.8342 14.1267 67.9707 13.9984 68.0958 13.9984H71.8203C72.0397 13.9984 72.1258 14.0422 72.2103 14.234C73.5931 17.1167 74.9446 20.0142 76.2647 22.9261H76.3053C77.5663 20.0661 78.9557 17.0956 80.2914 14.26C80.4019 14.0829 80.4686 13.9724 80.6814 13.9724H84.1671C84.3442 13.9724 84.4124 14.1089 84.3036 14.2779L78.5576 25.375ZM85.6913 28.9045C85.6913 23.8605 89.0437 19.915 94.3753 19.915C94.8319 19.915 95.0692 19.915 95.5014 19.9589V14.221C95.5014 14.0845 95.6103 14 95.7208 14H99.1398C99.3169 14 99.3608 14.0666 99.3608 14.169V34.0671C99.3608 34.6505 99.3608 35.3866 99.4713 36.1812C99.4713 36.3177 99.4274 36.3584 99.2942 36.4282C97.5617 37.2515 95.6678 37.6794 93.7497 37.6811C89.0437 37.7055 85.6913 34.8032 85.6913 28.9045V28.9045ZM95.5031 23.36C95.1028 23.207 94.6769 23.1325 94.2486 23.1406C91.5169 23.1406 89.6124 25.2466 89.6124 28.7355C89.6124 32.7216 91.5576 34.3206 94.0129 34.3206C94.5281 34.3206 95.0968 34.2621 95.5031 34.085V23.36Z" fill="black"/>
</g>
<defs>
<clipPath id="clip0_1031_200">
<rect width="55" height="55" fill="white" transform="translate(212)"/>
</clipPath>
<clipPath id="clip1_1031_200">
<rect width="52" height="52" fill="white" transform="translate(58 1)"/>
</clipPath>
</defs>
</svg>
