<svg xmlns="http://www.w3.org/2000/svg" xmlns:xlink="http://www.w3.org/1999/xlink" width="341.713" height="184.188" viewBox="0 0 341.713 184.188">
  <defs>
    <linearGradient id="linear-gradient" x1="4.829" y1="-0.773" x2="-0.421" y2="0.771" gradientUnits="objectBoundingBox">
      <stop offset="0.027" stop-color="#ffea00"/>
      <stop offset="0.162" stop-color="#e4c601"/>
      <stop offset="0.321" stop-color="#caa402"/>
      <stop offset="0.484" stop-color="#b58a03"/>
      <stop offset="0.649" stop-color="#a77704"/>
      <stop offset="0.819" stop-color="#9e6b04"/>
      <stop offset="1" stop-color="#9c6805"/>
    </linearGradient>
    <linearGradient id="linear-gradient-2" x1="17.484" y1="-0.232" x2="-17.759" y2="1.287" xlink:href="#linear-gradient"/>
    <linearGradient id="linear-gradient-3" x1="2.274" y1="-0.013" x2="-2.941" y2="1.482" xlink:href="#linear-gradient"/>
    <linearGradient id="linear-gradient-4" x1="28.017" y1="-10.043" x2="-3.814" y2="2.188" xlink:href="#linear-gradient"/>
    <linearGradient id="linear-gradient-5" x1="27.979" y1="-6.72" x2="-4.823" y2="1.919" xlink:href="#linear-gradient"/>
    <linearGradient id="linear-gradient-6" x1="24.442" y1="-9.343" x2="-5.258" y2="2.888" xlink:href="#linear-gradient"/>
    <linearGradient id="linear-gradient-7" x1="26.121" y1="-9.127" x2="-6.994" y2="3.328" xlink:href="#linear-gradient"/>
    <linearGradient id="linear-gradient-8" x1="25.701" y1="-8.555" x2="-8.181" y2="3.676" xlink:href="#linear-gradient"/>
    <linearGradient id="linear-gradient-9" x1="21.688" y1="-8.209" x2="-8.012" y2="4.022" xlink:href="#linear-gradient"/>
    <linearGradient id="linear-gradient-10" x1="21.396" y1="-5.209" x2="-10.048" y2="3.558" xlink:href="#linear-gradient"/>
    <linearGradient id="linear-gradient-11" x1="19.296" y1="-7.224" x2="-10.404" y2="5.007" xlink:href="#linear-gradient"/>
    <linearGradient id="linear-gradient-12" x1="17.482" y1="-6.877" x2="-11.579" y2="5.577" xlink:href="#linear-gradient"/>
    <linearGradient id="linear-gradient-13" x1="17.284" y1="-6.291" x2="-12.94" y2="5.94" xlink:href="#linear-gradient"/>
    <linearGradient id="linear-gradient-14" x1="15.73" y1="-4.406" x2="-13.255" y2="4.708" xlink:href="#linear-gradient"/>
    <linearGradient id="linear-gradient-15" x1="16.271" y1="-5.531" x2="-15.552" y2="6.7" xlink:href="#linear-gradient"/>
    <linearGradient id="linear-gradient-16" x1="15.883" y1="-3.533" x2="-16.928" y2="5.106" xlink:href="#linear-gradient"/>
    <linearGradient id="linear-gradient-17" x1="13.489" y1="-4.831" x2="-16.218" y2="7.4" xlink:href="#linear-gradient"/>
    <linearGradient id="linear-gradient-18" x1="8.902" y1="-7.33" x2="-4.101" y2="4.593" xlink:href="#linear-gradient"/>
    <linearGradient id="linear-gradient-19" x1="3.496" y1="-1.052" x2="-1.304" y2="1.487" xlink:href="#linear-gradient"/>
    <linearGradient id="linear-gradient-20" x1="3.658" y1="-0.445" x2="-1.347" y2="1.053" xlink:href="#linear-gradient"/>
  </defs>
  <g id="Groupe_180" data-name="Groupe 180" transform="translate(0 0)">
    <g id="Groupe_113" data-name="Groupe 113" transform="translate(0 0)">
      <g id="Groupe_112" data-name="Groupe 112">
        <path id="Tracé_124" data-name="Tracé 124" d="M815.044,115.113h-46.68c-2.993.205-7.906.048-11.7-3.078-4.769-3.918-5.33-10.5-5.518-14.146-1.277-24.906.235-65.592,0-88.334-.048-4.439-2.851-7.774-5.536-8.045-3.166-.323-7.389,3.485-7.033,9.168v98.8a18.206,18.206,0,0,0,18.2,18.2q29.078-.039,58.159-.07c4.681.693,8.445-2.744,8.541-6.031C823.578,118.224,819.857,114.511,815.044,115.113Z" transform="translate(-738.554 4.393)" fill="url(#linear-gradient)"/>
        <path id="Tracé_125" data-name="Tracé 125" d="M810.755,120.606v-98.8l-.04.037V9.538c-.048-4.439-2.85-7.774-5.536-8.045-3.166-.319-7.388,3.489-7.033,9.172v98.8l.04-.037v12.308c.044,4.439,2.851,7.774,5.533,8.045C806.884,130.1,811.107,126.292,810.755,120.606Z" transform="translate(-579.583 4.348)" fill="url(#linear-gradient-2)"/>
        <path id="Tracé_126" data-name="Tracé 126" d="M893.855,121.141a10.313,10.313,0,0,0,.011-1.354v-98.8l-.04.037V8.72c-.044-4.443-2.85-7.774-5.536-8.049-3.162-.319-7.385,3.489-7.033,9.172V98.9L830.021,19.491l-.011.055L822.357,7.685c-1.688-2.616-6.406-6.02-9.652-4.755-2.234.873-3.368,3.914-3.658,4.7a10.486,10.486,0,0,0-.635,4.226v98.8l.037-.037v12.308c.048,4.439,2.854,7.774,5.536,8.045,3.166.323,7.388-3.485,7.033-9.168v-93l52.909,82,.011-.055,7.477,11.589c2.047,4.311,6.313,6.031,8.852,4.9C892.971,126.028,893.825,121.56,893.855,121.141Z" transform="translate(-552.17 2.154)" fill="url(#linear-gradient-3)"/>
        <g id="Groupe_110" data-name="Groupe 110" transform="translate(58.855 156.229)">
          <path id="Tracé_127" data-name="Tracé 127" d="M764.147,58.294a3.469,3.469,0,0,1-1.7,1.313,6.447,6.447,0,0,1-2.531.51,5.731,5.731,0,0,1-3.9-1.24,4.422,4.422,0,0,1-1.42-3.522,4.935,4.935,0,0,1,2-4.171,9.323,9.323,0,0,1,5.686-1.5,6.114,6.114,0,0,1,1.489.216q0-2.713-3.427-2.711a7.613,7.613,0,0,0-3.383.671l-.774-2.781a10.1,10.1,0,0,1,4.4-.888q3.511,0,5.147,1.6t1.633,6.057v3.283q0,3.065,1.233,3.856a1.924,1.924,0,0,1-.991.954,3.934,3.934,0,0,1-1.247.18,2,2,0,0,1-1.39-.572A2.932,2.932,0,0,1,764.147,58.294ZM763.8,52.6a7.61,7.61,0,0,0-1.376-.187q-4.249,0-4.245,2.781,0,2.069,2.4,2.065,3.225,0,3.225-3.225Z" transform="translate(-754.597 -37.893)" fill="url(#linear-gradient-4)"/>
          <path id="Tracé_128" data-name="Tracé 128" d="M758.875,64.421l2.264-2.8a6.047,6.047,0,0,0,4.186,1.721,6.128,6.128,0,0,0,2.553-.459,1.41,1.41,0,0,0,1-1.262q0-1.359-2.22-1.361a16.367,16.367,0,0,0-1.794.143,16.4,16.4,0,0,1-1.791.143q-3.7,0-3.7-2.652a2.3,2.3,0,0,1,.616-1.489,3.776,3.776,0,0,1,1.435-1.075A5.437,5.437,0,0,1,758.8,50.5a5.236,5.236,0,0,1,1.8-4.08,6.44,6.44,0,0,1,4.446-1.614,7.019,7.019,0,0,1,3.456.774l1.405-1.633,2.48,2.249-1.706,1.247a5.665,5.665,0,0,1,.888,3.184,5.6,5.6,0,0,1-1.6,4.193,5.524,5.524,0,0,1-4.035,1.57,8.993,8.993,0,0,1-1.031-.073l-.587-.084a3.815,3.815,0,0,0-.766.308c-.448.205-.668.418-.668.638,0,.382.33.572.987.572a8.539,8.539,0,0,0,1.493-.213,8.873,8.873,0,0,1,1.79-.216q5.233,0,5.235,4.2a4.115,4.115,0,0,1-2.095,3.65,9.262,9.262,0,0,1-5.045,1.324A10.587,10.587,0,0,1,758.875,64.421Zm3.584-13.908a3.117,3.117,0,0,0,.752,2.187,2.616,2.616,0,0,0,2.029.822,2.45,2.45,0,0,0,1.963-.8,3.289,3.289,0,0,0,.69-2.209,2.791,2.791,0,0,0-.741-1.966,2.477,2.477,0,0,0-1.911-.8,2.653,2.653,0,0,0-2.781,2.77Z" transform="translate(-743.375 -38.538)" fill="url(#linear-gradient-5)"/>
          <path id="Tracé_129" data-name="Tracé 129" d="M777.589,53.25H766.62a3.9,3.9,0,0,0,1.262,2.854,4.572,4.572,0,0,0,3.125,1.016,5.052,5.052,0,0,0,3.727-1.277l1.391,2.74a8.848,8.848,0,0,1-5.65,1.533,7.473,7.473,0,0,1-5.554-2.058,7.794,7.794,0,0,1-2.043-5.741,7.958,7.958,0,0,1,2.245-5.877,7.868,7.868,0,0,1,10.746-.26,6.833,6.833,0,0,1,2.021,5.077A10.192,10.192,0,0,1,777.589,53.25Zm-10.841-2.7h7.543a3.369,3.369,0,0,0-3.727-3.368Q767.493,47.185,766.748,50.553Z" transform="translate(-732.498 -37.893)" fill="url(#linear-gradient-6)"/>
          <path id="Tracé_130" data-name="Tracé 130" d="M777.631,59.831V50.957a4.447,4.447,0,0,0-.752-2.869,3.032,3.032,0,0,0-2.458-.9,3.8,3.8,0,0,0-1.687.444,3.935,3.935,0,0,0-1.4,1.1v11.1h-3.585V44.474h2.583l.66,1.434a5.335,5.335,0,0,1,4.314-1.721,5.715,5.715,0,0,1,4.322,1.644,6.317,6.317,0,0,1,1.585,4.578v9.421Z" transform="translate(-719.494 -37.893)" fill="url(#linear-gradient-7)"/>
          <path id="Tracé_131" data-name="Tracé 131" d="M785.249,45.692l-1.533,2.682a4.74,4.74,0,0,0-3.383-1.189,4.06,4.06,0,0,0-3.221,1.354,5.51,5.51,0,0,0-1.181,3.749q0,4.832,4.6,4.832a5.222,5.222,0,0,0,3.515-1.317l1.317,2.821a9.061,9.061,0,0,1-2.729,1.236,13.18,13.18,0,0,1-2.763.257,7.55,7.55,0,0,1-5.613-2.073,7.817,7.817,0,0,1-2.055-5.756,7.9,7.9,0,0,1,2.249-5.862,8.318,8.318,0,0,1,6.138-2.238A7.491,7.491,0,0,1,785.249,45.692Z" transform="translate(-707.613 -37.893)" fill="url(#linear-gradient-8)"/>
          <path id="Tracé_132" data-name="Tracé 132" d="M791.009,53.25H780.04A3.9,3.9,0,0,0,781.3,56.1a4.573,4.573,0,0,0,3.126,1.016,5.048,5.048,0,0,0,3.728-1.277l1.39,2.74a8.844,8.844,0,0,1-5.646,1.533,7.477,7.477,0,0,1-5.558-2.058,7.8,7.8,0,0,1-2.043-5.741,7.959,7.959,0,0,1,2.245-5.877,7.868,7.868,0,0,1,10.746-.26,6.834,6.834,0,0,1,2.021,5.077A9.906,9.906,0,0,1,791.009,53.25Zm-10.84-2.7h7.542a3.367,3.367,0,0,0-3.727-3.368Q780.913,47.185,780.169,50.553Z" transform="translate(-696.685 -37.893)" fill="url(#linear-gradient-9)"/>
          <path id="Tracé_133" data-name="Tracé 133" d="M793.982,64.41v-.932a3.613,3.613,0,0,1-1.5.851,6.637,6.637,0,0,1-2.194.367,6.467,6.467,0,0,1-5.052-2.036,8.159,8.159,0,0,1-1.845-5.679,8.4,8.4,0,0,1,2.117-5.929,7.321,7.321,0,0,1,8.478-1.567V43.334l3.584-.862V64.41Zm0-11.685a3.782,3.782,0,0,0-2.392-.921,4.2,4.2,0,0,0-3.313,1.313,5.5,5.5,0,0,0-1.159,3.764q0,4.788,4.615,4.788A3.485,3.485,0,0,0,793,61.362a2.258,2.258,0,0,0,.98-.624Z" transform="translate(-677.767 -42.472)" fill="url(#linear-gradient-10)"/>
          <path id="Tracé_134" data-name="Tracé 134" d="M802.667,53.25H791.7A3.9,3.9,0,0,0,792.96,56.1a4.572,4.572,0,0,0,3.126,1.016,5.051,5.051,0,0,0,3.727-1.277l1.391,2.74a8.848,8.848,0,0,1-5.65,1.533A7.474,7.474,0,0,1,790,58.059a7.8,7.8,0,0,1-2.043-5.741,7.96,7.96,0,0,1,2.245-5.877,7.868,7.868,0,0,1,10.746-.26,6.834,6.834,0,0,1,2.021,5.077A10.176,10.176,0,0,1,802.667,53.25Zm-10.841-2.7h7.543a3.369,3.369,0,0,0-3.727-3.368Q792.571,47.185,791.827,50.553Z" transform="translate(-665.574 -37.893)" fill="url(#linear-gradient-11)"/>
          <path id="Tracé_135" data-name="Tracé 135" d="M802.964,59.909h-1.291l-6.941-15.643h3.929l3.673,9.377,3.94-9.377h3.8Z" transform="translate(-647.491 -37.684)" fill="url(#linear-gradient-12)"/>
          <path id="Tracé_136" data-name="Tracé 136" d="M799.188,52.116a8.114,8.114,0,0,1,2.029-5.719A7.8,7.8,0,0,1,812,46.308a8.3,8.3,0,0,1,1.937,5.807,8.347,8.347,0,0,1-1.97,5.837,7.841,7.841,0,0,1-10.841-.022A8.432,8.432,0,0,1,799.188,52.116Zm3.727,0q0,5.079,3.654,5.077a3.139,3.139,0,0,0,2.66-1.321,6.19,6.19,0,0,0,.983-3.757q0-5-3.643-5a3.16,3.16,0,0,0-2.667,1.321A6.046,6.046,0,0,0,802.915,52.116Z" transform="translate(-635.6 -37.893)" fill="url(#linear-gradient-13)"/>
          <path id="Tracé_137" data-name="Tracé 137" d="M812.141,62.088a4.934,4.934,0,0,1-2.458,2.546,9.2,9.2,0,0,1-4.4,1.009V62.477c2.763,0,4.142-.7,4.142-2.08a12.822,12.822,0,0,0-1.145-4.215l-4.8-11.916H807.2l4.186,10.61,3.771-10.61h3.713Z" transform="translate(-624.138 -37.684)" fill="url(#linear-gradient-14)"/>
          <path id="Tracé_138" data-name="Tracé 138" d="M817.538,58.294a3.451,3.451,0,0,1-1.7,1.313,6.437,6.437,0,0,1-2.532.51,5.737,5.737,0,0,1-3.9-1.24,4.422,4.422,0,0,1-1.42-3.522,4.929,4.929,0,0,1,2-4.171,9.312,9.312,0,0,1,5.682-1.5,6.139,6.139,0,0,1,1.493.216q0-2.713-3.426-2.711a7.629,7.629,0,0,0-3.386.671l-.774-2.781a10.1,10.1,0,0,1,4.4-.888q3.511,0,5.147,1.6t1.636,6.057v3.283q0,3.065,1.232,3.856a1.923,1.923,0,0,1-.991.954,3.935,3.935,0,0,1-1.247.18,1.989,1.989,0,0,1-1.39-.572A2.944,2.944,0,0,1,817.538,58.294Zm-.345-5.69a7.53,7.53,0,0,0-1.376-.187q-4.243,0-4.241,2.781,0,2.069,2.392,2.065,3.224,0,3.225-3.225Z" transform="translate(-612.116 -37.893)" fill="url(#linear-gradient-15)"/>
          <path id="Tracé_139" data-name="Tracé 139" d="M812.264,64.421l2.264-2.8a6.376,6.376,0,0,0,6.739,1.262q1.007-.457,1.005-1.262,0-1.359-2.223-1.361a16.4,16.4,0,0,0-1.791.143,16.434,16.434,0,0,1-1.794.143q-3.7,0-3.7-2.652a2.3,2.3,0,0,1,.617-1.489,3.75,3.75,0,0,1,1.434-1.075,5.438,5.438,0,0,1-2.623-4.832,5.235,5.235,0,0,1,1.8-4.08,6.431,6.431,0,0,1,4.443-1.614,7,7,0,0,1,3.456.774l1.405-1.633,2.48,2.249-1.706,1.247a6.242,6.242,0,0,1-.708,7.378,5.53,5.53,0,0,1-4.035,1.57,9.055,9.055,0,0,1-1.035-.073l-.587-.084a3.906,3.906,0,0,0-.767.308c-.444.205-.668.418-.668.638q0,.572.991.572a8.507,8.507,0,0,0,1.49-.213,8.9,8.9,0,0,1,1.794-.216q5.233,0,5.232,4.2a4.118,4.118,0,0,1-2.091,3.65,9.275,9.275,0,0,1-5.048,1.324A10.594,10.594,0,0,1,812.264,64.421Zm3.584-13.908A3.117,3.117,0,0,0,816.6,52.7a2.621,2.621,0,0,0,2.029.822,2.458,2.458,0,0,0,1.966-.8,3.288,3.288,0,0,0,.686-2.209,2.8,2.8,0,0,0-.738-1.966,2.479,2.479,0,0,0-1.915-.8,2.653,2.653,0,0,0-2.781,2.77Z" transform="translate(-600.891 -38.538)" fill="url(#linear-gradient-16)"/>
          <path id="Tracé_140" data-name="Tracé 140" d="M830.978,53.25H820.012a3.886,3.886,0,0,0,1.262,2.854A4.562,4.562,0,0,0,824.4,57.12a5.056,5.056,0,0,0,3.731-1.277l1.39,2.74a8.849,8.849,0,0,1-5.65,1.533,7.472,7.472,0,0,1-5.554-2.058,7.779,7.779,0,0,1-2.043-5.741,7.957,7.957,0,0,1,2.241-5.877,7.868,7.868,0,0,1,10.746-.26,6.82,6.82,0,0,1,2.021,5.077A9.9,9.9,0,0,1,830.978,53.25Zm-10.837-2.7h7.539a3.365,3.365,0,0,0-3.727-3.368Q820.887,47.185,820.14,50.553Z" transform="translate(-590.014 -37.893)" fill="url(#linear-gradient-17)"/>
        </g>
        <g id="Groupe_111" data-name="Groupe 111" transform="translate(99.045)">
          <path id="Tracé_141" data-name="Tracé 141" d="M786.234,28.677l17.287-8.137q-10.252-3.439-20.482-6.97-1.646-.572-3.295-1.141l-.191-.022a12.218,12.218,0,0,0-2.616,0q-1.739.947-3.632,1.889c-1.034.514-2.054.994-3.048,1.453a1.735,1.735,0,0,0-1.02,1.743Z" transform="translate(-755.734 33.335)" fill="url(#linear-gradient-18)"/>
          <path id="Tracé_142" data-name="Tracé 142" d="M860.586,15.472a4.844,4.844,0,0,0-1.163-1.743,5.379,5.379,0,0,0-2.032-1.163,24.061,24.061,0,0,0-4.359-1.163,20.443,20.443,0,0,0-8.717.293,17.691,17.691,0,0,0-2.469.869q-32.325,15.4-64.646,30.8l-9.19-3.085V55.207l1.926,1.959a4.7,4.7,0,0,0,.869.433,4.9,4.9,0,0,0,1.89.293,67.38,67.38,0,0,0,8.137-.583c.5-.081,1-.161,1.589-.268,0,0,.436-.081.88-.169.914-.18,11.479-4.021,25.857-9.586q-2.031,19.827-4.068,39.658l.436.873c3.016-1.3,5.408-2.359,6.974-3.052a7.189,7.189,0,0,0,1.89-1.163,7.07,7.07,0,0,0,1.453-1.743l16.27-45.469Q843.736,30.8,855.354,25.2a11.792,11.792,0,0,0,1.889-1.306c.7-.591,3.375-2.858,3.632-6.1A5.4,5.4,0,0,0,860.586,15.472Z" transform="translate(-758.99 29.95)" fill="url(#linear-gradient-19)"/>
          <path id="Tracé_143" data-name="Tracé 143" d="M849.857,66.231V92.025a32.821,32.821,0,0,1-32.819,32.82H802.657a32.821,32.821,0,0,1-32.82-32.82V38.305a32.819,32.819,0,0,1,32.82-32.82h14.381A32.809,32.809,0,0,1,849.82,37.153l.169-.048a17.71,17.71,0,0,1,4.63-.627v-.437A36.153,36.153,0,0,0,818.465-.113H801.706a36.153,36.153,0,0,0-36.154,36.154V93.867a36.153,36.153,0,0,0,36.154,36.154h16.758a36.153,36.153,0,0,0,36.155-36.154V63.934Z" transform="translate(-765.552 0.113)" fill="url(#linear-gradient-20)"/>
        </g>
      </g>
    </g>
  </g>
</svg>
