<svg width="20" height="20" viewBox="0 0 20 20" fill="none" xmlns="http://www.w3.org/2000/svg">
<path d="M10.2795 19.9999H10.1793C8.8052 19.9894 7.44701 19.7048 6.18426 19.1628C4.9215 18.6207 3.77956 17.8321 2.82531 16.8431C1.05579 14.9503 0.0499144 12.469 0.0018085 9.87797C-0.0462974 7.28699 0.866776 4.77001 2.56481 2.81279C3.65878 1.58648 5.03404 0.644185 6.57243 0.0668567C6.75194 -0.00223418 6.94753 -0.018184 7.13585 0.0209117C7.32417 0.0600074 7.49726 0.152496 7.63445 0.287333C7.76151 0.416935 7.85099 0.578622 7.89334 0.755128C7.93569 0.931634 7.92932 1.11633 7.87491 1.2895C7.32582 2.79368 7.21703 4.42332 7.56131 5.98717C7.90559 7.55102 8.68865 8.98422 9.81861 10.1186C10.9591 11.2453 12.3953 12.026 13.961 12.37C15.5267 12.7141 17.1578 12.6076 18.6654 12.0628C18.8449 11.9996 19.0386 11.9888 19.2239 12.0317C19.4093 12.0746 19.5786 12.1694 19.7121 12.305C19.8455 12.4406 19.9376 12.6114 19.9776 12.7975C20.0176 12.9835 20.0038 13.1771 19.9378 13.3556C19.426 14.7222 18.6265 15.9629 17.5934 16.9934C16.6324 17.9518 15.4915 18.7108 14.2364 19.2267C12.9812 19.7427 11.6365 20.0054 10.2795 19.9999V19.9999Z" fill="#FF7A01"/>
</svg>
