<svg width="18" height="16" viewBox="0 0 18 16" fill="none" xmlns="http://www.w3.org/2000/svg">
<path d="M0.879038 16H17.121C17.7959 16 18.2166 15.2623 17.8835 14.6668L9.75819 0.446387C9.68186 0.310794 9.57152 0.198084 9.43837 0.119688C9.30521 0.0412923 9.15398 0 9 0C8.84603 0 8.69479 0.0412923 8.56164 0.119688C8.42848 0.198084 8.31814 0.310794 8.24181 0.446387L0.116465 14.6668C-0.216613 15.2623 0.204117 16 0.879038 16V16ZM9.8809 13.3337H8.12786V11.5561H9.8809V13.3337ZM9.00438 9.77855C8.5223 9.77855 8.12786 9.3786 8.12786 8.88978V7.11222C8.12786 6.62339 8.5223 6.22344 9.00438 6.22344C9.48647 6.22344 9.8809 6.62339 9.8809 7.11222V8.88978C9.8809 9.3786 9.48647 9.77855 9.00438 9.77855Z" fill="black"/>
</svg>
