<svg width="40" height="53" viewBox="0 0 40 53" fill="none" xmlns="http://www.w3.org/2000/svg">
<path d="M34.8939 13.6901C34.4926 12.3293 33.6596 11.1359 32.5207 10.2899C31.3818 9.4439 29.9986 8.99122 28.5799 9.00013C26.9356 9.0016 25.3514 9.61806 24.1386 10.7283C22.9258 11.8386 22.1722 13.3624 22.0259 15.0001H17.9759C17.8276 13.3607 17.0715 11.836 15.8561 10.7257C14.6408 9.61545 13.0541 8.99993 11.408 9.00013C9.99112 8.99317 8.61039 9.44681 7.47375 10.2927C6.33712 11.1386 5.50613 12.3309 5.10598 13.6901L0.0839998 30.426C0.0289857 30.6124 0.000703675 30.8057 0 31V33C0.0031767 35.6516 1.05804 38.1936 2.93314 40.0683C4.80824 41.943 7.35044 42.9974 10.002 43C11.9453 42.9967 13.8456 42.4275 15.4709 41.362C17.0961 40.2965 18.3759 38.7808 19.1539 37H20.8459C21.624 38.7808 22.9037 40.2965 24.529 41.362C26.1542 42.4275 28.0545 42.9967 29.9979 43C32.6498 42.9974 35.1923 41.9427 37.0674 40.0676C38.9426 38.1924 39.9972 35.6499 39.9998 32.998V31C39.9998 30.804 39.9698 30.612 39.9158 30.426L34.8939 13.6901ZM10.002 39C8.41113 38.9979 6.88604 38.3651 5.76097 37.2404C4.63589 36.1157 4.00263 34.5909 3.99998 33C3.99998 32.848 4.03398 32.706 4.04398 32.556C4.15341 31.0496 4.82787 29.6402 5.9323 28.6099C7.03674 27.5797 8.4896 27.0047 9.99996 27.0001C11.5913 27.0001 13.1174 27.6322 14.2426 28.7574C15.3678 29.8826 15.9999 31.4087 15.9999 33V33.018C15.9931 34.6052 15.3584 36.1252 14.2346 37.246C13.1108 38.3668 11.5891 38.9974 10.002 39ZM29.9979 39C28.4107 38.9974 26.889 38.3668 25.7652 37.246C24.6414 36.1252 24.0068 34.6052 23.9999 33.018V33C23.9998 32.2121 24.1548 31.4319 24.4562 30.7039C24.7577 29.9759 25.1995 29.3144 25.7566 28.7571C26.8816 27.6317 28.4076 26.9993 29.9989 26.9991C31.5902 26.9988 33.1164 27.6307 34.2418 28.7557C35.3672 29.8807 35.9996 31.4067 35.9999 32.998C35.9977 34.5892 35.3647 36.1146 34.2396 37.2397C33.1145 38.3649 31.5891 38.9979 29.9979 39Z" fill="#FF2E00"/>
</svg>
