<svg width="1324" height="1108" viewBox="0 0 1324 1108" fill="none" xmlns="http://www.w3.org/2000/svg">
<path d="M1095.8 389H1053.2C1049.43 389 1045.82 387.483 1043.16 384.782C1040.5 382.082 1039 378.419 1039 374.6V331.4C1039 327.581 1040.5 323.918 1043.16 321.218C1045.82 318.517 1049.43 317 1053.2 317H1095.8C1099.57 317 1103.18 318.517 1105.84 321.218C1108.5 323.918 1110 327.581 1110 331.4V374.6C1110 378.419 1108.5 382.082 1105.84 384.782C1103.18 387.483 1099.57 389 1095.8 389ZM1053.2 324.2C1051.32 324.2 1049.51 324.959 1048.18 326.309C1046.85 327.659 1046.1 329.49 1046.1 331.4V374.6C1046.1 376.51 1046.85 378.341 1048.18 379.691C1049.51 381.041 1051.32 381.8 1053.2 381.8H1095.8C1097.68 381.8 1099.49 381.041 1100.82 379.691C1102.15 378.341 1102.9 376.51 1102.9 374.6V331.4C1102.9 329.49 1102.15 327.659 1100.82 326.309C1099.49 324.959 1097.68 324.2 1095.8 324.2H1053.2ZM1087.86 370.194C1086.32 370.256 1084.79 370.001 1083.35 369.444C1081.92 368.887 1080.61 368.04 1079.51 366.954C1077.2 364.288 1076.02 360.811 1076.21 357.27C1076.14 353.828 1077.35 350.486 1079.6 347.91C1080.78 346.648 1082.21 345.653 1083.79 344.99C1085.37 344.326 1087.08 344.01 1088.79 344.061H1089.62V336.861C1089.62 336.3 1090.07 335.842 1090.62 335.839H1095.3C1095.56 335.829 1095.81 335.919 1096.01 336.091C1096.1 336.183 1096.18 336.295 1096.23 336.419C1096.28 336.543 1096.3 336.677 1096.3 336.811V364.455C1096.28 365.409 1096.33 366.363 1096.44 367.31V367.4C1096.44 367.629 1096.37 367.853 1096.24 368.037C1096.12 368.182 1095.98 368.297 1095.81 368.376C1093.35 369.568 1090.65 370.19 1087.92 370.197L1087.86 370.194ZM1084.6 351.776L1084.59 351.798C1083.46 353.298 1082.9 355.153 1082.99 357.036C1082.84 358.997 1083.4 360.946 1084.56 362.522C1085.51 363.58 1086.88 364.156 1088.28 364.084C1088.73 364.091 1089.18 364.045 1089.62 363.948V350.091C1089.28 350.019 1088.95 349.984 1088.61 349.987C1087.85 349.966 1087.1 350.117 1086.41 350.428C1085.71 350.74 1085.1 351.204 1084.6 351.787V351.776ZM1075.3 369.776H1070.15C1069.88 369.794 1069.62 369.727 1069.39 369.585C1069.17 369.443 1068.99 369.233 1068.89 368.984L1068.15 367.4L1068.13 367.36L1067.4 365.888L1067.17 365.409C1066.04 363.04 1064.87 360.6 1063.7 358.087C1062.07 361.747 1060.4 365.384 1058.67 368.998V369.034L1058.65 369.067C1058.53 369.269 1058.37 369.438 1058.17 369.56C1057.97 369.682 1057.74 369.744 1057.5 369.74H1052.64C1052.43 369.75 1052.23 369.693 1052.06 369.576C1051.89 369.46 1051.77 369.291 1051.7 369.096C1051.66 368.947 1051.65 368.79 1051.68 368.637C1051.7 368.484 1051.76 368.339 1051.85 368.214L1059.77 352.874L1052.11 337.344C1052.01 337.193 1051.95 337.015 1051.94 336.831C1051.94 336.648 1051.98 336.466 1052.07 336.307C1052.16 336.162 1052.28 336.043 1052.43 335.96C1052.57 335.878 1052.74 335.835 1052.9 335.835H1057.99C1058.24 335.822 1058.49 335.879 1058.7 336.001C1058.92 336.137 1059.09 336.343 1059.19 336.588C1061.09 340.638 1062.69 344.148 1064.09 347.262C1065.84 343.302 1067.69 339.277 1068.93 336.609L1068.95 336.57L1068.97 336.534V336.494C1069.06 336.34 1069.17 336.2 1069.3 336.08C1069.52 335.894 1069.8 335.796 1070.09 335.803H1074.85C1075.04 335.798 1075.22 335.847 1075.37 335.943C1075.53 336.04 1075.65 336.18 1075.73 336.346C1075.79 336.499 1075.82 336.665 1075.81 336.83C1075.79 336.995 1075.74 337.154 1075.65 337.293L1067.99 352.366L1076.09 368.206C1076.18 368.344 1076.23 368.499 1076.25 368.661C1076.27 368.822 1076.25 368.986 1076.2 369.139C1076.13 369.325 1076.01 369.486 1075.85 369.599C1075.69 369.712 1075.49 369.771 1075.3 369.769V369.776Z" fill="black"/>
</svg>
