<svg width="21" height="20" viewBox="0 0 21 20" fill="none" xmlns="http://www.w3.org/2000/svg">
<path d="M21 18.5714V1.42857C21 0.642857 20.37 0 19.6 0H1.4C0.63 0 0 0.642857 0 1.42857V18.5714C0 19.3571 0.63 20 1.4 20H19.6C20.37 20 21 19.3571 21 18.5714ZM7 11.4286H8.4C9.17 11.4286 9.8 12.0714 9.8 12.8571C9.8 13.6429 9.17 14.2857 8.4 14.2857H7V16.4286C7 16.8286 6.692 17.1429 6.3 17.1429C5.908 17.1429 5.6 16.8286 5.6 16.4286V14.2857H4.2C3.43 14.2857 2.8 13.6429 2.8 12.8571C2.8 12.0714 3.43 11.4286 4.2 11.4286H5.6V3.57143C5.6 3.17143 5.908 2.85714 6.3 2.85714C6.692 2.85714 7 3.17143 7 3.57143V11.4286ZM14 8.57143H12.6C11.83 8.57143 11.2 7.92857 11.2 7.14286C11.2 6.35714 11.83 5.71429 12.6 5.71429H14V3.57143C14 3.17143 14.308 2.85714 14.7 2.85714C15.092 2.85714 15.4 3.17143 15.4 3.57143V5.71429H16.8C17.57 5.71429 18.2 6.35714 18.2 7.14286C18.2 7.92857 17.57 8.57143 16.8 8.57143H15.4V16.4286C15.4 16.8286 15.092 17.1429 14.7 17.1429C14.308 17.1429 14 16.8286 14 16.4286V8.57143Z" fill="#FF7A01"/>
</svg>
