<svg  viewBox="0 0 33 36" fill="none" xmlns="http://www.w3.org/2000/svg">
<path d="M18.8619 0.918565C18.2129 0.327161 17.3713 0 16.4988 0C15.6264 0 14.7848 0.327161 14.1358 0.918565L1.1715 12.7363C0.802601 13.0728 0.507647 13.4843 0.305813 13.9439C0.103979 14.4036 -0.000216774 14.9013 3.38601e-07 15.4045V32.2764C3.38601e-07 33.2275 0.372512 34.1397 1.03559 34.8122C1.69866 35.4848 2.59799 35.8626 3.53571 35.8626H29.4643C30.402 35.8626 31.3013 35.4848 31.9644 34.8122C32.6275 34.1397 33 33.2275 33 32.2764V15.4045C33.0002 14.9013 32.896 14.4036 32.6942 13.9439C32.4924 13.4843 32.1974 13.0728 31.8285 12.7363L18.8642 0.918565H18.8619ZM9.42857 21.5178C8.80342 21.5178 8.20387 21.2659 7.76182 20.8175C7.31977 20.3691 7.07143 19.761 7.07143 19.127C7.07143 18.4929 7.31977 17.8848 7.76182 17.4364C8.20387 16.988 8.80342 16.7361 9.42857 16.7361C10.0537 16.7361 10.6533 16.988 11.0953 17.4364C11.5374 17.8848 11.7857 18.4929 11.7857 19.127C11.7857 19.761 11.5374 20.3691 11.0953 20.8175C10.6533 21.2659 10.0537 21.5178 9.42857 21.5178ZM18.8571 19.127C18.8571 19.761 18.6088 20.3691 18.1668 20.8175C17.7247 21.2659 17.1252 21.5178 16.5 21.5178C15.8748 21.5178 15.2753 21.2659 14.8332 20.8175C14.3912 20.3691 14.1429 19.761 14.1429 19.127C14.1429 18.4929 14.3912 17.8848 14.8332 17.4364C15.2753 16.988 15.8748 16.7361 16.5 16.7361C17.1252 16.7361 17.7247 16.988 18.1668 17.4364C18.6088 17.8848 18.8571 18.4929 18.8571 19.127ZM23.5714 21.5178C22.9463 21.5178 22.3467 21.2659 21.9047 20.8175C21.4626 20.3691 21.2143 19.761 21.2143 19.127C21.2143 18.4929 21.4626 17.8848 21.9047 17.4364C22.3467 16.988 22.9463 16.7361 23.5714 16.7361C24.1966 16.7361 24.7961 16.988 25.2382 17.4364C25.6802 17.8848 25.9286 18.4929 25.9286 19.127C25.9286 19.761 25.6802 20.3691 25.2382 20.8175C24.7961 21.2659 24.1966 21.5178 23.5714 21.5178ZM11.7857 26.2994C11.7857 26.9335 11.5374 27.5416 11.0953 27.9899C10.6533 28.4383 10.0537 28.6902 9.42857 28.6902C8.80342 28.6902 8.20387 28.4383 7.76182 27.9899C7.31977 27.5416 7.07143 26.9335 7.07143 26.2994C7.07143 25.6653 7.31977 25.0572 7.76182 24.6088C8.20387 24.1605 8.80342 23.9086 9.42857 23.9086C10.0537 23.9086 10.6533 24.1605 11.0953 24.6088C11.5374 25.0572 11.7857 25.6653 11.7857 26.2994ZM16.5 28.6902C15.8748 28.6902 15.2753 28.4383 14.8332 27.9899C14.3912 27.5416 14.1429 26.9335 14.1429 26.2994C14.1429 25.6653 14.3912 25.0572 14.8332 24.6088C15.2753 24.1605 15.8748 23.9086 16.5 23.9086C17.1252 23.9086 17.7247 24.1605 18.1668 24.6088C18.6088 25.0572 18.8571 25.6653 18.8571 26.2994C18.8571 26.9335 18.6088 27.5416 18.1668 27.9899C17.7247 28.4383 17.1252 28.6902 16.5 28.6902ZM25.9286 26.2994C25.9286 26.9335 25.6802 27.5416 25.2382 27.9899C24.7961 28.4383 24.1966 28.6902 23.5714 28.6902C22.9463 28.6902 22.3467 28.4383 21.9047 27.9899C21.4626 27.5416 21.2143 26.9335 21.2143 26.2994C21.2143 25.6653 21.4626 25.0572 21.9047 24.6088C22.3467 24.1605 22.9463 23.9086 23.5714 23.9086C24.1966 23.9086 24.7961 24.1605 25.2382 24.6088C25.6802 25.0572 25.9286 25.6653 25.9286 26.2994Z" fill="#03016F"/>
</svg>
