<svg width="16" height="22" viewBox="0 0 16 22" fill="none" xmlns="http://www.w3.org/2000/svg">
<path d="M8 15C11.866 15 15 11.866 15 8C15 4.13401 11.866 1 8 1C4.13401 1 1 4.13401 1 8C1 11.866 4.13401 15 8 15Z" stroke="#FF2E00" stroke-width="2" stroke-linecap="round" stroke-linejoin="round"/>
<path d="M3 19.234V13C3.667 13.667 5.6 15 8 15C10.4 15 12.333 13.667 13 13V19.234C12.9999 19.4108 12.9528 19.5845 12.8637 19.7372C12.7746 19.89 12.6465 20.0163 12.4926 20.1035C12.3387 20.1906 12.1645 20.2353 11.9876 20.2331C11.8108 20.2309 11.6377 20.1819 11.486 20.091L8.514 18.309C8.3587 18.2159 8.18105 18.1668 8 18.1668C7.81895 18.1668 7.6413 18.2159 7.486 18.309L4.514 20.09C4.36238 20.1809 4.18938 20.2299 4.01263 20.2321C3.83588 20.2344 3.6617 20.1897 3.50783 20.1027C3.35396 20.0157 3.22589 19.8895 3.13669 19.7369C3.04748 19.5843 3.00032 19.4108 3 19.234Z" fill="#FF2E00" stroke="#FF2E00" stroke-width="2" stroke-linecap="round" stroke-linejoin="round"/>
</svg>
