<svg width="51" height="51" viewBox="0 0 51 51" fill="none" xmlns="http://www.w3.org/2000/svg">
<rect x="51" y="51" width="51" height="51" rx="25.5" transform="rotate(-180 51 51)" fill="black"/>
<path d="M15.9393 24.9393C15.3536 25.5251 15.3536 26.4749 15.9393 27.0607L25.4853 36.6066C26.0711 37.1924 27.0208 37.1924 27.6066 36.6066C28.1924 36.0208 28.1924 35.0711 27.6066 34.4853L19.1213 26L27.6066 17.5147C28.1924 16.9289 28.1924 15.9792 27.6066 15.3934C27.0208 14.8076 26.0711 14.8076 25.4853 15.3934L15.9393 24.9393ZM51 24.5L17 24.5L17 27.5L51 27.5L51 24.5Z" fill="white"/>
</svg>
