<svg viewBox="0 0 3681 775" fill="none" xmlns="http://www.w3.org/2000/svg">
<path d="M47.7373 11.3501C146.745 41.5341 348.336 118.771 362.643 186.247C380.527 270.592 295.782 296.624 271.551 363.186C247.319 429.748 361.895 537.946 415.948 623.651C470.002 709.357 463.844 732.004 442.798 767.708" stroke="white"/>
<path d="M1654.5 6.06445C1753.29 36.234 1954.43 113.442 1968.69 180.915C1986.52 265.256 1901.96 291.3 1877.77 357.865C1853.58 424.43 1967.89 532.611 2021.82 618.308C2075.74 704.004 2069.59 726.652 2048.59 762.359" stroke="white"/>
<path d="M844.501 10.2793C943.288 40.4489 1144.43 117.656 1158.69 185.13C1176.53 269.471 1091.96 295.515 1067.78 362.08C1043.59 428.645 1157.9 536.826 1211.82 622.522C1265.74 708.219 1259.6 730.867 1238.59 766.574" stroke="white"/>
<path d="M2450.26 4.92871C2549.27 35.1127 2750.86 112.35 2765.17 179.826C2783.05 264.171 2698.31 290.202 2674.08 356.765C2649.85 423.327 2764.42 531.525 2818.48 617.23C2872.53 702.935 2866.37 725.582 2845.33 761.286" stroke="white"/>
<path d="M457.432 14.0591C556.66 44.2575 758.703 121.524 773.05 189.003C790.985 273.351 706.059 299.371 681.784 365.93C657.509 432.49 772.35 540.705 826.534 626.419C880.718 712.133 874.55 734.779 853.463 770.48" stroke="white"/>
<path d="M2064.19 8.77344C2162.98 38.943 2364.12 116.151 2378.39 183.624C2396.22 267.965 2311.66 294.009 2287.47 360.574C2263.28 427.139 2377.59 535.32 2431.51 621.017C2485.44 706.713 2479.29 729.361 2458.28 765.068" stroke="white"/>
<path d="M1255.19 13.0532C1353.98 43.2228 1555.12 120.43 1569.39 187.904C1587.22 272.245 1502.66 298.289 1478.47 364.854C1454.28 431.419 1568.59 539.599 1622.51 625.296C1676.44 710.993 1670.29 733.641 1649.28 769.347" stroke="white"/>
<path d="M2859.96 7.6377C2959.19 37.8361 3161.23 115.103 3175.58 182.581C3193.51 266.929 3108.59 292.949 3084.31 359.509C3060.04 426.068 3174.88 534.283 3229.06 619.997C3283.25 705.711 3277.08 728.357 3255.99 764.059" stroke="white"/>
<path d="M243.365 8.09375C342.152 38.2633 543.293 115.471 557.559 182.944C575.391 267.286 490.828 293.329 466.64 359.894C442.452 426.459 556.761 534.64 610.685 620.337C664.608 706.034 658.461 728.681 637.455 764.388" stroke="white"/>
<path d="M1850.13 2.80859C1948.91 32.9782 2150.05 110.186 2164.32 177.659C2182.15 262.001 2097.59 288.044 2073.4 354.609C2049.21 421.174 2163.52 529.355 2217.45 615.052C2271.37 700.749 2265.22 723.396 2244.22 759.103" stroke="white"/>
<path d="M1039.13 6.95801C1138.14 37.142 1339.73 114.379 1354.04 181.855C1371.92 266.2 1287.18 292.232 1262.95 358.794C1238.71 425.356 1353.29 533.554 1407.34 619.259C1461.4 704.965 1455.24 727.611 1434.19 763.316" stroke="white"/>
<path d="M2645.89 1.67285C2744.9 31.8568 2946.49 109.094 2960.8 176.57C2978.68 260.915 2893.94 286.947 2869.71 353.509C2845.47 420.071 2960.05 528.269 3014.1 613.974C3068.16 699.68 3062 722.326 3040.95 758.03" stroke="white"/>
<path d="M654.058 10.8677C753.065 41.0517 954.657 118.289 968.964 185.765C986.847 270.11 902.103 296.141 877.871 362.704C853.639 429.266 968.215 537.464 1022.27 623.169C1076.32 708.874 1070.16 731.521 1049.12 767.225" stroke="white"/>
<path d="M2259.82 5.51758C2358.61 35.6872 2559.75 112.895 2574.01 180.368C2591.85 264.71 2507.28 290.753 2483.1 357.318C2458.91 423.883 2573.22 532.064 2627.14 617.761C2681.06 703.458 2674.92 726.105 2653.91 761.812" stroke="white"/>
<path d="M1450.82 9.79736C1549.61 39.9669 1750.75 117.174 1765.02 184.648C1782.85 268.989 1698.28 295.033 1674.1 361.598C1649.91 428.163 1764.22 536.344 1818.14 622.04C1872.07 707.737 1865.92 730.385 1844.91 766.092" stroke="white"/>
<path d="M3055.59 4.38184C3154.81 34.5802 3356.86 111.847 3371.21 179.325C3389.14 263.674 3304.21 289.694 3279.94 356.253C3255.66 422.812 3370.51 531.028 3424.69 616.741C3478.87 702.455 3472.71 725.101 3451.62 760.803" stroke="white"/>
<path d="M85.7217 12.8286C184.729 43.0126 386.321 120.25 400.628 187.726C418.511 272.071 333.767 298.102 309.535 364.665C285.303 431.227 399.879 539.425 453.933 625.13C507.986 710.835 501.829 733.482 480.782 769.186" stroke="white"/>
<path d="M1692.48 7.54346C1791.49 37.7274 1993.08 114.964 2007.39 182.44C2025.27 266.785 1940.53 292.817 1916.3 359.379C1892.06 425.942 2006.64 534.139 2060.69 619.845C2114.75 705.55 2108.59 728.197 2087.54 763.901" stroke="white"/>
<path d="M882.485 11.7583C981.493 41.9423 1183.08 119.179 1197.39 186.655C1215.28 271 1130.53 297.032 1106.3 363.594C1082.07 430.156 1196.64 538.354 1250.7 624.06C1304.75 709.765 1298.59 732.412 1277.55 768.116" stroke="white"/>
<path d="M2489.25 6.47314C2588.03 36.6427 2789.17 113.85 2803.44 181.324C2821.27 265.665 2736.71 291.709 2712.52 358.274C2688.33 424.839 2802.64 533.019 2856.57 618.716C2910.49 704.413 2904.34 727.061 2883.34 762.767" stroke="white"/>
<path d="M497.412 15.668C596.199 45.8376 797.34 123.045 811.606 190.518C829.438 274.86 744.875 300.904 720.687 367.469C696.498 434.034 810.808 542.214 864.732 627.911C918.655 713.608 912.507 736.255 891.502 771.962" stroke="white"/>
<path d="M2102.18 10.2524C2201.19 40.4364 2402.78 117.673 2417.08 185.149C2434.97 269.494 2350.22 295.526 2325.99 362.088C2301.76 428.65 2416.34 536.848 2470.39 622.554C2524.44 708.259 2518.28 730.906 2497.24 766.61" stroke="white"/>
<path d="M1293.18 14.5322C1392.19 44.7162 1593.78 121.953 1608.08 189.429C1625.97 273.774 1541.22 299.806 1516.99 366.368C1492.76 432.93 1607.34 541.128 1661.39 626.834C1715.44 712.539 1709.28 735.186 1688.24 770.89" stroke="white"/>
<path d="M2898.94 9.18213C2998.17 39.3805 3200.21 116.647 3214.56 184.126C3232.49 268.474 3147.57 294.494 3123.29 361.053C3099.02 427.613 3213.86 535.828 3268.04 621.542C3322.23 707.256 3316.06 729.902 3294.97 765.603" stroke="white"/>
<path d="M281.35 9.57275C380.357 39.7567 581.949 116.994 596.256 184.47C614.139 268.815 529.395 294.846 505.163 361.409C480.931 427.971 595.507 536.169 649.561 621.874C703.614 707.579 697.456 730.226 676.41 765.93" stroke="white"/>
<path d="M1888.11 4.28711C1987.12 34.4711 2188.71 111.708 2203.02 179.184C2220.9 263.529 2136.16 289.561 2111.92 356.123C2087.69 422.685 2202.27 530.883 2256.32 616.588C2310.38 702.294 2304.22 724.941 2283.17 760.645" stroke="white"/>
<path d="M1078.11 8.50195C1176.9 38.6715 1378.04 115.879 1392.31 183.352C1410.14 267.694 1325.58 293.738 1301.39 360.303C1277.2 426.868 1391.51 535.048 1445.43 620.745C1499.36 706.442 1493.21 729.089 1472.2 764.796" stroke="white"/>
<path d="M2684.88 3.2168C2783.66 33.3864 2984.8 110.594 2999.07 178.067C3016.9 262.409 2932.34 288.452 2908.15 355.017C2883.96 421.582 2998.27 529.763 3052.19 615.46C3106.12 701.157 3099.97 723.804 3078.96 759.511" stroke="white"/>
<path d="M693.04 12.4121C791.827 42.5817 992.967 119.789 1007.23 187.262C1025.07 271.604 940.503 297.648 916.314 364.213C892.126 430.778 1006.44 538.958 1060.36 624.655C1114.28 710.352 1108.14 733 1087.13 768.706" stroke="white"/>
<path d="M2297.81 6.99609C2396.81 37.1801 2598.4 114.417 2612.71 181.893C2630.6 266.238 2545.85 292.27 2521.62 358.832C2497.39 425.394 2611.96 533.592 2666.02 619.297C2720.07 705.003 2713.91 727.65 2692.87 763.354" stroke="white"/>
<path d="M1488.81 11.2764C1587.81 41.4604 1789.41 118.697 1803.71 186.173C1821.6 270.518 1736.85 296.55 1712.62 363.112C1688.39 429.674 1802.96 537.872 1857.02 623.578C1911.07 709.283 1904.91 731.93 1883.87 767.634" stroke="white"/>
<path d="M3094.57 5.92578C3193.8 36.1242 3395.84 113.391 3410.19 180.869C3428.12 265.218 3343.2 291.238 3318.92 357.797C3294.65 424.356 3409.49 532.571 3463.67 618.285C3517.86 703.999 3511.69 726.645 3490.6 762.347" stroke="white"/>
<path d="M125.832 12.4424C224.84 42.6264 426.431 119.863 440.738 187.339C458.622 271.684 373.877 297.716 349.645 364.278C325.414 430.84 439.989 539.038 494.043 624.744C548.097 710.449 541.939 733.096 520.893 768.8" stroke="white"/>
<path d="M1732.59 7.15723C1831.6 37.3412 2033.19 114.578 2047.5 182.054C2065.38 266.399 1980.64 292.431 1956.41 358.993C1932.17 425.555 2046.75 533.753 2100.8 619.459C2154.86 705.164 2148.7 727.811 2127.65 763.515" stroke="white"/>
<path d="M922.596 11.3716C1021.38 41.5412 1222.52 118.749 1236.79 186.222C1254.62 270.564 1170.06 296.607 1145.87 363.172C1121.68 429.737 1235.99 537.918 1289.92 623.615C1343.84 709.312 1337.69 731.959 1316.69 767.666" stroke="white"/>
<path d="M2529.36 6.08643C2628.14 36.256 2829.28 113.464 2843.55 180.937C2861.38 265.278 2776.82 291.322 2752.63 357.887C2728.44 424.452 2842.75 532.633 2896.68 618.33C2950.6 704.026 2944.45 726.674 2923.45 762.381" stroke="white"/>
<path d="M535.526 15.1514C634.754 45.3498 836.797 122.616 851.145 190.095C869.08 274.443 784.154 300.463 759.879 367.022C735.604 433.582 850.445 541.797 904.629 627.511C958.813 713.225 952.645 735.871 931.557 771.572" stroke="white"/>
<path d="M2142.29 9.86621C2241.3 40.0502 2442.89 117.287 2457.19 184.763C2475.08 269.108 2390.33 295.14 2366.1 361.702C2341.87 428.264 2456.45 536.462 2510.5 622.168C2564.55 707.873 2558.39 730.52 2537.35 766.224" stroke="white"/>
<path d="M1333.29 14.146C1432.3 44.33 1633.89 121.567 1648.2 189.043C1666.08 273.388 1581.33 299.42 1557.1 365.982C1532.87 432.544 1647.45 540.742 1701.5 626.447C1755.55 712.153 1749.4 734.799 1728.35 770.504" stroke="white"/>
<path d="M2939.05 8.79541C3037.84 38.965 3238.98 116.172 3253.25 183.646C3271.08 267.987 3186.51 294.031 3162.33 360.596C3138.14 427.161 3252.45 535.342 3306.37 621.039C3360.29 706.735 3354.15 729.383 3333.14 765.09" stroke="white"/>
<path d="M321.46 9.18604C420.467 39.37 622.059 116.607 636.366 184.083C654.25 268.428 569.505 294.46 545.273 361.022C521.042 427.584 635.617 535.782 689.671 621.487C743.725 707.193 737.567 729.84 716.52 765.544" stroke="white"/>
<path d="M1928.22 3.90088C2027.23 34.0849 2228.82 111.322 2243.13 178.798C2261.01 263.143 2176.27 289.175 2152.04 355.737C2127.8 422.299 2242.38 530.497 2296.43 616.202C2350.49 701.908 2344.33 724.554 2323.28 760.259" stroke="white"/>
<path d="M1118.22 8.11572C1217.01 38.2853 1418.15 115.493 1432.42 182.966C1450.25 267.308 1365.69 293.351 1341.5 359.916C1317.31 426.481 1431.62 534.662 1485.54 620.359C1539.47 706.056 1533.32 728.703 1512.31 764.41" stroke="white"/>
<path d="M2724.99 2.83008C2823.77 32.9997 3024.91 110.207 3039.18 177.68C3057.01 262.022 2972.45 288.066 2948.26 354.631C2924.07 421.196 3038.38 529.376 3092.3 615.073C3146.23 700.77 3140.08 723.417 3119.08 759.124" stroke="white"/>
<path d="M731.155 11.895C830.383 42.0934 1032.43 119.36 1046.77 186.838C1064.71 271.187 979.783 297.207 955.508 363.766C931.233 430.325 1046.07 538.541 1100.26 624.255C1154.44 709.968 1148.27 732.615 1127.19 768.316" stroke="white"/>
<path d="M2337.92 6.60986C2436.7 36.7794 2637.84 113.987 2652.11 181.46C2669.94 265.802 2585.38 291.846 2561.19 358.411C2537 424.976 2651.31 533.156 2705.24 618.853C2759.16 704.55 2753.01 727.197 2732.01 762.904" stroke="white"/>
<path d="M1528.92 10.8896C1627.92 41.0736 1829.52 118.311 1843.82 185.787C1861.71 270.132 1776.96 296.163 1752.73 362.726C1728.5 429.288 1843.07 537.486 1897.13 623.191C1951.18 708.896 1945.02 731.543 1923.98 767.247" stroke="white"/>
<path d="M3133.68 5.47412C3232.91 35.6725 3434.95 112.939 3449.3 180.418C3467.24 264.766 3382.31 290.786 3358.03 357.345C3333.76 423.905 3448.6 532.12 3502.78 617.834C3556.97 703.548 3550.8 726.194 3529.71 761.895" stroke="white"/>
<path d="M161.019 10.7319C260.247 40.9303 462.289 118.197 476.637 185.675C494.572 270.024 409.646 296.044 385.371 362.603C361.096 429.162 475.937 537.378 530.121 623.091C584.305 708.805 578.137 731.451 557.05 767.153" stroke="white"/>
<path d="M1766.78 5.38135C1865.79 35.5653 2067.38 112.802 2081.69 180.278C2099.57 264.623 2014.83 290.655 1990.59 357.217C1966.36 423.779 2080.94 531.977 2134.99 617.683C2189.05 703.388 2182.89 726.035 2161.84 761.739" stroke="white"/>
<path d="M957.782 9.66162C1056.79 39.8456 1258.38 117.083 1272.69 184.559C1290.57 268.904 1205.83 294.935 1181.6 361.498C1157.36 428.06 1271.94 536.258 1325.99 621.963C1380.05 707.668 1373.89 730.315 1352.84 766.019" stroke="white"/>
<path d="M2563.55 4.31104C2662.77 34.5094 2864.82 111.776 2879.16 179.255C2897.1 263.603 2812.17 289.623 2787.9 356.182C2763.62 422.741 2878.46 530.957 2932.65 616.671C2986.83 702.384 2980.66 725.031 2959.58 760.732" stroke="white"/>
<path d="M571.711 13.5063C670.498 43.6759 871.638 120.883 885.904 188.357C903.737 272.698 819.173 298.742 794.985 365.307C770.797 431.872 885.107 540.053 939.03 625.749C992.954 711.446 986.806 734.094 965.801 769.801" stroke="white"/>
<path d="M2178.47 8.2207C2277.26 38.3903 2478.4 115.598 2492.67 183.071C2510.5 267.413 2425.93 293.456 2401.75 360.021C2377.56 426.586 2491.87 534.767 2545.79 620.464C2599.71 706.161 2593.57 728.808 2572.56 764.515" stroke="white"/>
<path d="M1367.48 12.3706C1466.49 42.5546 1668.08 119.792 1682.38 187.268C1700.27 271.613 1615.52 297.644 1591.29 364.207C1567.06 430.769 1681.63 538.967 1735.69 624.672C1789.74 710.377 1783.58 733.024 1762.54 768.728" stroke="white"/>
<path d="M2974.24 7.08496C3073.25 37.2689 3274.84 114.506 3289.14 181.982C3307.03 266.327 3222.28 292.359 3198.05 358.921C3173.82 425.483 3288.4 533.681 3342.45 619.386C3396.5 705.092 3390.35 727.738 3369.3 763.443" stroke="white"/>
<path d="M357.645 7.54102C456.432 37.7106 657.572 114.918 671.838 182.391C689.671 266.733 605.107 292.777 580.919 359.342C556.731 425.907 671.041 534.087 724.964 619.784C778.887 705.481 772.74 728.128 751.734 763.835" stroke="white"/>
<path d="M1962.41 2.12549C2061.42 32.3095 2263.01 109.546 2277.32 177.022C2295.2 261.367 2210.46 287.399 2186.22 353.961C2161.99 420.524 2276.57 528.721 2330.62 614.427C2384.67 700.132 2378.52 722.779 2357.47 758.483" stroke="white"/>
<path d="M1153.41 6.40527C1252.42 36.5893 1454.01 113.826 1468.32 181.302C1486.2 265.647 1401.46 291.679 1377.22 358.241C1352.99 424.803 1467.57 533.001 1521.62 618.707C1575.68 704.412 1569.52 727.059 1548.47 762.763" stroke="white"/>
<path d="M2759.17 1.05469C2858.4 31.2531 3060.44 108.52 3074.79 175.998C3092.73 260.346 3007.8 286.366 2983.53 352.926C2959.25 419.485 3074.09 527.7 3128.28 613.414C3182.46 699.128 3176.29 721.774 3155.2 757.476" stroke="white"/>
<path d="M767.339 10.25C866.126 40.4196 1067.27 117.627 1081.53 185.1C1099.36 269.442 1014.8 295.486 990.613 362.051C966.425 428.616 1080.73 536.796 1134.66 622.493C1188.58 708.19 1182.43 730.837 1161.43 766.544" stroke="white"/>
<path d="M2374.1 4.96484C2472.89 35.1344 2674.03 112.342 2688.29 179.815C2706.13 264.157 2621.56 290.201 2597.37 356.766C2573.19 423.331 2687.5 531.511 2741.42 617.208C2795.34 702.905 2789.2 725.552 2768.19 761.259" stroke="white"/>
<path d="M1563.11 9.11426C1662.11 39.2982 1863.7 116.535 1878.01 184.011C1895.9 268.356 1811.15 294.388 1786.92 360.95C1762.69 427.512 1877.26 535.71 1931.32 621.416C1985.37 707.121 1979.21 729.768 1958.17 765.472" stroke="white"/>
<path d="M3169.87 3.8291C3268.87 34.0131 3470.47 111.25 3484.77 178.726C3502.66 263.071 3417.91 289.103 3393.68 355.665C3369.45 422.227 3484.02 530.425 3538.08 616.13C3592.13 701.836 3585.97 724.483 3564.93 760.187" stroke="white"/>
<path d="M191.952 12.7524C290.96 42.9364 492.551 120.173 506.858 187.649C524.742 271.994 439.997 298.026 415.765 364.588C391.534 431.15 506.109 539.348 560.163 625.054C614.217 710.759 608.059 733.406 587.013 769.11" stroke="white"/>
<path d="M1797.72 7.40234C1896.5 37.5719 2097.64 114.779 2111.91 182.253C2129.74 266.594 2045.18 292.638 2020.99 359.203C1996.8 425.768 2111.11 533.949 2165.04 619.645C2218.96 705.342 2212.81 727.99 2191.81 763.697" stroke="white"/>
<path d="M988.717 11.6821C1087.5 41.8517 1288.64 119.059 1302.91 186.533C1320.74 270.874 1236.18 296.918 1211.99 363.483C1187.8 430.048 1302.11 538.228 1356.04 623.925C1409.96 709.622 1403.81 732.27 1382.81 767.976" stroke="white"/>
<path d="M2593.48 6.2666C2692.71 36.465 2894.75 113.731 2909.1 181.21C2927.03 265.558 2842.11 291.578 2817.83 358.138C2793.56 424.697 2908.4 532.912 2962.58 618.626C3016.77 704.34 3010.6 726.986 2989.51 762.688" stroke="white"/>
<path d="M601.647 15.4614C700.655 45.6454 902.247 122.882 916.554 190.358C934.437 274.703 849.692 300.735 825.461 367.297C801.229 433.859 915.805 542.057 969.858 627.763C1023.91 713.468 1017.75 736.115 996.708 771.819" stroke="white"/>
<path d="M2208.41 10.1763C2307.2 40.3459 2508.34 117.553 2522.6 185.027C2540.43 269.368 2455.87 295.412 2431.68 361.977C2407.49 428.542 2521.8 536.723 2575.73 622.419C2629.65 708.116 2623.5 730.764 2602.5 766.471" stroke="white"/>
<path d="M1398.41 14.3911C1497.2 44.5607 1698.34 121.768 1712.6 189.242C1730.44 273.583 1645.87 299.627 1621.69 366.192C1597.5 432.757 1711.81 540.937 1765.73 626.634C1819.65 712.331 1813.51 734.979 1792.5 770.685" stroke="white"/>
<path d="M3004.17 9.04053C3103.18 39.2245 3304.77 116.461 3319.08 183.937C3336.96 268.282 3252.22 294.314 3227.99 360.876C3203.76 427.439 3318.33 535.636 3372.39 621.342C3426.44 707.047 3420.28 729.694 3399.24 765.398" stroke="white"/>
<path d="M387.581 9.49658C486.589 39.6806 688.18 116.918 702.487 184.394C720.371 268.738 635.626 294.77 611.394 361.332C587.163 427.895 701.738 536.093 755.792 621.798C809.846 707.503 803.688 730.15 782.642 765.854" stroke="white"/>
<path d="M1992.35 4.08057C2091.57 34.279 2293.62 111.545 2307.96 179.024C2325.9 263.372 2240.97 289.392 2216.7 355.952C2192.42 422.511 2307.26 530.726 2361.45 616.44C2415.63 702.154 2409.46 724.8 2388.38 760.502" stroke="white"/>
<path d="M1184.34 8.42578C1283.13 38.5954 1484.27 115.803 1498.54 183.276C1516.37 267.618 1431.81 293.661 1407.62 360.226C1383.43 426.791 1497.74 534.972 1551.66 620.669C1605.59 706.366 1599.44 729.013 1578.43 764.72" stroke="white"/>
<path d="M2789.11 3.01025C2888.34 33.2086 3090.38 110.475 3104.73 177.954C3122.66 262.302 3037.74 288.322 3013.46 354.881C2989.19 421.441 3104.03 529.656 3158.21 615.37C3212.4 701.084 3206.23 723.73 3185.14 759.431" stroke="white"/>
<path d="M797.275 12.2051C896.283 42.3891 1097.87 119.626 1112.18 187.102C1130.07 271.447 1045.32 297.479 1021.09 364.041C996.857 430.603 1111.43 538.801 1165.49 624.506C1219.54 710.212 1213.38 732.859 1192.34 768.563" stroke="white"/>
<path d="M2404.04 6.91992C2502.82 37.0895 2703.96 114.297 2718.23 181.77C2736.06 266.112 2651.5 292.156 2627.31 358.721C2603.12 425.286 2717.43 533.466 2771.36 619.163C2825.28 704.86 2819.13 727.507 2798.13 763.214" stroke="white"/>
<path d="M1593.04 11.0698C1692.27 41.2682 1894.31 118.535 1908.66 186.013C1926.59 270.362 1841.67 296.382 1817.39 362.941C1793.12 429.5 1907.96 537.715 1962.14 623.429C2016.33 709.143 2010.16 731.789 1989.07 767.491" stroke="white"/>
<path d="M3199.8 5.78418C3298.81 35.9682 3500.4 113.205 3514.71 180.681C3532.59 265.026 3447.85 291.058 3423.62 357.62C3399.38 424.182 3513.96 532.38 3568.01 618.086C3622.07 703.791 3615.91 726.438 3594.86 762.142" stroke="white"/>
<path d="M216.899 14.3818C316.127 44.5802 518.17 121.847 532.518 189.325C550.453 273.674 465.527 299.694 441.252 366.253C416.977 432.812 531.818 541.028 586.002 626.741C640.186 712.455 634.018 735.101 612.93 770.803" stroke="white"/>
<path d="M1823.66 9.09668C1922.45 39.2663 2123.59 116.474 2137.85 183.947C2155.69 268.289 2071.12 294.332 2046.93 360.897C2022.75 427.462 2137.06 535.643 2190.98 621.34C2244.9 707.037 2238.76 729.684 2217.75 765.391" stroke="white"/>
<path d="M1012.67 13.2461C1111.89 43.4445 1313.94 120.711 1328.28 188.19C1346.22 272.538 1261.29 298.558 1237.02 365.117C1212.74 431.677 1327.58 539.892 1381.77 625.606C1435.95 711.32 1429.78 733.966 1408.7 769.667" stroke="white"/>
<path d="M2619.43 7.96094C2718.43 38.1449 2920.03 115.382 2934.33 182.858C2952.22 267.203 2867.47 293.235 2843.24 359.797C2819.01 426.359 2933.58 534.557 2987.64 620.262C3041.69 705.968 3035.53 728.614 3014.49 764.319" stroke="white"/>
<path d="M627.592 17.1562C726.599 47.3402 928.191 124.577 942.498 192.053C960.382 276.398 875.637 302.43 851.405 368.992C827.174 435.554 941.749 543.752 995.803 629.458C1049.86 715.163 1043.7 737.81 1022.65 773.514" stroke="white"/>
<path d="M2233.36 11.8057C2332.58 42.0041 2534.63 119.27 2548.97 186.749C2566.91 271.097 2481.98 297.117 2457.71 363.677C2433.43 430.236 2548.27 538.451 2602.46 624.165C2656.64 709.879 2650.47 732.525 2629.39 768.227" stroke="white"/>
<path d="M1424.36 16.0854C1523.14 46.255 1724.28 123.463 1738.55 190.936C1756.38 275.277 1671.82 301.321 1647.63 367.886C1623.44 434.451 1737.75 542.632 1791.67 628.329C1845.6 714.025 1839.45 736.673 1818.45 772.38" stroke="white"/>
<path d="M3031.12 10.8003C3129.9 40.9699 3331.04 118.177 3345.31 185.651C3363.14 269.992 3278.58 296.036 3254.39 362.601C3230.2 429.166 3344.51 537.347 3398.44 623.043C3452.36 708.74 3446.21 731.388 3425.21 767.095" stroke="white"/>
<path d="M412.527 11.126C511.755 41.3244 713.798 118.591 728.146 186.069C746.081 270.418 661.155 296.438 636.88 362.997C612.605 429.556 727.446 537.772 781.63 623.486C835.814 709.199 829.646 731.846 808.558 767.547" stroke="white"/>
<path d="M2019.29 5.84033C2118.08 36.0099 2319.22 113.217 2333.48 180.691C2351.32 265.032 2266.75 291.076 2242.56 357.641C2218.38 424.206 2332.69 532.387 2386.61 618.083C2440.53 703.78 2434.38 726.428 2413.38 762.135" stroke="white"/>
<path d="M1208.29 9.99023C1307.52 40.1886 1509.56 117.455 1523.91 184.934C1541.85 269.282 1456.92 295.302 1432.65 361.861C1408.37 428.421 1523.21 536.636 1577.4 622.35C1631.58 708.064 1625.41 730.71 1604.32 766.411" stroke="white"/>
<path d="M2815.05 4.70459C2914.06 34.8886 3115.65 112.126 3129.96 179.602C3147.84 263.946 3063.1 289.978 3038.87 356.54C3014.64 423.103 3129.21 531.301 3183.27 617.006C3237.32 702.711 3231.16 725.358 3210.12 761.062" stroke="white"/>
<path d="M823.22 13.8999C922.227 44.0839 1123.82 121.321 1138.13 188.797C1156.01 273.142 1071.26 299.174 1047.03 365.736C1022.8 432.298 1137.38 540.496 1191.43 626.201C1245.48 711.907 1239.33 734.553 1218.28 770.258" stroke="white"/>
<path d="M2427.99 8.48438C2527.21 38.6828 2729.26 115.949 2743.6 183.428C2761.54 267.776 2676.61 293.796 2652.34 360.355C2628.06 426.915 2742.9 535.13 2797.09 620.844C2851.27 706.558 2845.1 729.204 2824.02 764.905" stroke="white"/>
<path d="M1619.98 12.8296C1718.77 42.9992 1919.91 120.207 1934.18 187.68C1952.01 272.022 1867.45 298.065 1843.26 364.63C1819.07 431.195 1933.38 539.376 1987.3 625.073C2041.23 710.77 2035.08 733.417 2014.07 769.124" stroke="white"/>
<path d="M3225.75 7.479C3324.75 37.663 3526.35 114.9 3540.65 182.376C3558.54 266.721 3473.79 292.753 3449.56 359.315C3425.33 425.877 3539.9 534.075 3593.96 619.78C3648.01 705.486 3641.85 728.132 3620.81 763.837" stroke="white"/>
</svg>
