<svg   viewBox="0 0 33 33" fill="none" xmlns="http://www.w3.org/2000/svg">
<path d="M16.5 -0.00195312C7.4019 -0.00195312 0 7.3717 0 16.4351C0 25.4985 7.4019 32.8721 16.5 32.8721C25.5981 32.8721 33 25.4985 33 16.4351C33 7.3717 25.5981 -0.00195312 16.5 -0.00195312ZM10.725 16.4351C10.3999 16.435 10.0779 16.3711 9.77761 16.247C9.47727 16.123 9.20439 15.9412 8.97457 15.7121C8.74474 15.483 8.56247 15.2111 8.43815 14.9118C8.31382 14.6125 8.24989 14.2918 8.25 13.9679C8.25011 13.644 8.31425 13.3233 8.43878 13.0241C8.5633 12.7249 8.74576 12.4531 8.97574 12.2241C9.20571 11.9952 9.47871 11.8136 9.77913 11.6898C10.0796 11.5659 10.4015 11.5022 10.7267 11.5023C11.3833 11.5025 12.0129 11.7626 12.4771 12.2253C12.9412 12.688 13.2019 13.3154 13.2017 13.9695C13.2014 14.6236 12.9404 15.2509 12.4759 15.7133C12.0115 16.1757 11.3816 16.4353 10.725 16.4351ZM22.2635 16.4121C21.9345 16.4204 21.6071 16.3631 21.3008 16.2434C20.9944 16.1238 20.7151 15.9442 20.4795 15.7154C20.2439 15.4865 20.0567 15.2129 19.9289 14.9108C19.8011 14.6087 19.7353 14.2842 19.7354 13.9564C19.7355 13.6285 19.8015 13.304 19.9295 13.002C20.0575 12.7 20.2449 12.4266 20.4807 12.1978C20.7165 11.9691 20.9958 11.7898 21.3023 11.6703C21.6088 11.5509 21.9361 11.4937 22.2651 11.5023C22.9076 11.5191 23.5182 11.7852 23.9666 12.2439C24.415 12.7027 24.6658 13.3177 24.6656 13.958C24.6654 14.5983 24.4141 15.2132 23.9654 15.6716C23.5167 16.13 22.906 16.3957 22.2635 16.4121Z" fill="#03016F"/>
</svg>
