<svg width="31" height="31" viewBox="0 0 31 31" fill="none" xmlns="http://www.w3.org/2000/svg">
<path d="M24.7887 2.14679C25.3464 1.71723 26.0414 1.50535 26.744 1.5507C27.4465 1.59605 28.1085 1.89554 28.6064 2.39324C29.1043 2.89095 29.404 3.55284 29.4497 4.25536C29.4953 4.95787 29.2837 5.65298 28.8543 6.21089L22.6078 14.3794C20.8495 16.6785 18.6075 18.5633 16.0405 19.9005C15.723 18.7156 15.0993 17.6351 14.2319 16.7677C13.3645 15.9003 12.284 15.2765 11.0991 14.9591C12.4365 12.3926 14.3212 10.1512 16.6202 8.39329L24.7887 2.14679V2.14679ZM9.29951 17.05C8.06626 17.05 6.88351 17.54 6.01147 18.412C5.13942 19.284 4.64951 20.4668 4.64951 21.7C4.64978 21.8317 4.61647 21.9613 4.55274 22.0766C4.48901 22.1919 4.39695 22.289 4.28527 22.3588C4.17358 22.4286 4.04594 22.4688 3.91441 22.4756C3.78288 22.4823 3.65179 22.4555 3.53351 22.3975C3.32518 22.2952 3.09097 22.2575 2.86105 22.2895C2.63113 22.3214 2.41603 22.4214 2.24346 22.5766C2.07088 22.7319 1.94873 22.9352 1.89273 23.1605C1.83674 23.3857 1.84946 23.6226 1.92926 23.8406C2.43252 25.2056 3.39967 26.3503 4.66156 27.0744C5.92344 27.7984 7.39973 28.0558 8.83218 27.8014C10.2646 27.5471 11.5621 26.7972 12.4975 25.683C13.433 24.5688 13.947 23.1611 13.9495 21.7062V21.7C13.948 20.8361 13.7066 19.9896 13.2524 19.2548C12.7981 18.52 12.1487 17.9258 11.3765 17.5383C10.7316 17.2162 10.0204 17.049 9.29951 17.05V17.05Z" fill="black"/>
</svg>
