<svg width="36" height="36" viewBox="0 0 36 36" fill="none" xmlns="http://www.w3.org/2000/svg">
<path d="M18 28C15.2333 28 12.8753 27.0247 10.926 25.074C8.97533 23.1247 8 20.7667 8 18C8 15.2333 8.97533 12.8747 10.926 10.924C12.8753 8.97467 15.2333 8 18 8C20.7667 8 23.1253 8.97467 25.076 10.924C27.0253 12.8747 28 15.2333 28 18C28 20.7667 27.0253 23.1247 25.076 25.074C23.1253 27.0247 20.7667 28 18 28ZM4 36C2.9 36 1.958 35.6087 1.174 34.826C0.391333 34.042 0 33.1 0 32V24H4V32H12V36H4ZM24 36V32H32V24H36V32C36 33.1 35.6087 34.042 34.826 34.826C34.042 35.6087 33.1 36 32 36H24ZM0 12V4C0 2.9 0.391333 1.958 1.174 1.174C1.958 0.391333 2.9 0 4 0H12V4H4V12H0ZM32 12V4H24V0H32C33.1 0 34.042 0.391333 34.826 1.174C35.6087 1.958 36 2.9 36 4V12H32Z" fill="#FF2E00"/>
</svg>
