<svg width="36" height="39" viewBox="0 0 36 39" fill="none" xmlns="http://www.w3.org/2000/svg">
<path d="M18 30.1396C15.2333 30.1396 12.8753 29.0897 10.926 26.99C8.97533 24.8917 8 22.3535 8 19.3754C8 16.3974 8.97533 13.8585 10.926 11.7587C12.8753 9.66045 15.2333 8.61131 18 8.61131C20.7667 8.61131 23.1253 9.66045 25.076 11.7587C27.0253 13.8585 28 16.3974 28 19.3754C28 22.3535 27.0253 24.8917 25.076 26.99C23.1253 29.0897 20.7667 30.1396 18 30.1396ZM4 38.7509C2.9 38.7509 1.958 38.3296 1.174 37.4872C0.391333 36.6433 0 35.6293 0 34.4452V25.8339H4V34.4452H12V38.7509H4ZM24 38.7509V34.4452H32V25.8339H36V34.4452C36 35.6293 35.6087 36.6433 34.826 37.4872C34.042 38.3296 33.1 38.7509 32 38.7509H24ZM0 12.917V4.30565C0 3.1216 0.391333 2.10762 1.174 1.26371C1.958 0.421236 2.9 0 4 0H12V4.30565H4V12.917H0ZM32 12.917V4.30565H24V0H32C33.1 0 34.042 0.421236 34.826 1.26371C35.6087 2.10762 36 3.1216 36 4.30565V12.917H32Z" fill="#03016F"/>
</svg>
