<svg width="564" height="166" viewBox="0 0 564 166" fill="none" xmlns="http://www.w3.org/2000/svg">
<g filter="url(#filter0_i_546_268)">
<path d="M27.808 164.938H11.8456C8.7046 164.938 5.6922 163.69 3.47082 161.47C1.24945 159.249 0.000997142 156.237 0 153.096L0 106.04C0 102.898 1.24801 99.8853 3.46949 97.6638C5.69097 95.4424 8.70395 94.1943 11.8456 94.1943H27.808C45.4736 94.1943 58.4373 96.8828 66.6992 102.26C74.961 107.637 79.0882 116.254 79.0806 128.113C79.0806 152.664 61.9894 164.937 27.8071 164.932" fill="#FF5B00" fill-opacity="0.19"/>
<path d="M27.808 70.7389H11.8456C8.7046 70.7389 5.6922 69.4914 3.47082 67.2707C1.24945 65.0501 0.000997142 62.0381 0 58.8971L0 11.8409C0.00124636 8.70006 1.24981 5.6883 3.47116 3.46783C5.6925 1.24737 8.70476 -2.47294e-07 11.8456 0L27.808 0C45.4736 0 58.4376 2.68814 66.7001 8.06441C74.9626 13.4407 79.0897 22.0585 79.0816 33.9179C79.0816 58.4684 61.9904 70.7414 27.808 70.737" fill="#FF5B00" fill-opacity="0.19"/>
<path d="M156.522 70.4702H143.291C135.3 70.4702 128.818 65.2741 128.818 58.8643V11.8749C128.813 5.46512 135.295 0.269043 143.291 0.269043H156.524C174.125 0.269043 187.041 2.93712 195.273 8.27328C203.504 13.6094 207.616 22.1621 207.608 33.9312C207.608 58.2949 190.58 70.4749 156.524 70.4711" fill="#FF5B00" fill-opacity="0.19"/>
<path d="M143.291 165.012H191.379C202.501 165.012 209.467 155.175 203.935 147.28L171.965 101.658C169.529 98.1794 165.113 95.9513 160.226 95.7257L144.107 94.9802C135.807 94.5966 128.818 100 128.818 106.802V153.171C128.818 159.712 135.298 165.017 143.291 165.017" fill="#FF5B00" fill-opacity="0.19"/>
<path d="M435.473 28.47C435.535 25.3772 434.713 22.3309 433.103 19.6893C425.076 7.53343 414.698 0.200439 403.356 0.200439C377.905 0.200439 357.274 37.0957 357.274 82.6082C357.274 128.121 377.905 165.016 403.356 165.016C414.698 165.016 425.073 157.676 433.103 145.521C434.713 142.88 435.535 139.834 435.473 136.741V28.47Z" fill="#FF5B00" fill-opacity="0.19"/>
<path d="M295.691 165.011H269.655C266.513 165.011 263.5 163.763 261.279 161.541C259.057 159.32 257.809 156.307 257.809 153.165V12.0458C257.809 8.90414 259.057 5.89117 261.279 3.66969C263.5 1.44821 266.513 0.200195 269.655 0.200195H295.691C297.246 0.200195 298.786 0.506591 300.224 1.10189C301.661 1.69718 302.967 2.56972 304.067 3.66969C305.167 4.76966 306.039 6.0755 306.634 7.51268C307.23 8.94985 307.536 10.4902 307.536 12.0458V153.159C307.536 154.714 307.23 156.255 306.634 157.692C306.039 159.129 305.167 160.435 304.067 161.535C302.967 162.635 301.661 163.507 300.224 164.103C298.786 164.698 297.246 165.004 295.691 165.004" fill="#FF5B00" fill-opacity="0.19"/>
<path d="M485.208 12.1107V45.2662C485.152 48.3511 486.323 51.332 488.465 53.5534C490.606 55.7747 493.542 57.0547 496.627 57.1118H536.593C539.677 57.1689 542.613 58.4488 544.755 60.6702C546.896 62.8916 548.067 65.8725 548.011 68.9574V81.9753C548.067 85.0602 546.896 88.0411 544.755 90.2625C542.613 92.4839 539.677 93.7638 536.593 93.8209H496.627C493.542 93.8777 490.606 95.1576 488.464 97.379C486.323 99.6005 485.152 102.582 485.208 105.667V153.033C485.152 156.118 486.323 159.099 488.465 161.32C490.606 163.541 493.542 164.821 496.627 164.879H552.579C555.664 164.821 558.6 163.541 560.742 161.32C562.883 159.099 564.054 156.118 563.998 153.033V12.1107C564.054 9.02566 562.883 6.04462 560.741 3.82322C558.6 1.60182 555.663 0.321965 552.578 0.265137H496.627C493.542 0.322212 490.606 1.60217 488.465 3.82355C486.323 6.04492 485.152 9.02582 485.208 12.1107Z" fill="#FF5B00" fill-opacity="0.19"/>
</g>
<defs>
<filter id="filter0_i_546_268" x="0" y="0" width="570" height="179.017" filterUnits="userSpaceOnUse" color-interpolation-filters="sRGB">
<feFlood flood-opacity="0" result="BackgroundImageFix"/>
<feBlend mode="normal" in="SourceGraphic" in2="BackgroundImageFix" result="shape"/>
<feColorMatrix in="SourceAlpha" type="matrix" values="0 0 0 0 0 0 0 0 0 0 0 0 0 0 0 0 0 0 127 0" result="hardAlpha"/>
<feOffset dx="6" dy="14"/>
<feGaussianBlur stdDeviation="14"/>
<feComposite in2="hardAlpha" operator="arithmetic" k2="-1" k3="1"/>
<feColorMatrix type="matrix" values="0 0 0 0 0 0 0 0 0 0 0 0 0 0 0 0 0 0 0.25 0"/>
<feBlend mode="normal" in2="shape" result="effect1_innerShadow_546_268"/>
</filter>
</defs>
</svg>
