<svg   viewBox="0 0 243 92" fill="none" xmlns="http://www.w3.org/2000/svg">
<path d="M221.154 91.1725C217.372 91.1725 214.023 90.5242 211.106 89.2278C208.243 87.9313 205.839 86.2027 203.895 84.042C202.004 81.8272 200.545 79.3694 199.519 76.6684C198.547 73.9135 198.061 71.1045 198.061 68.2415V66.6209C198.061 63.6499 198.547 60.8139 199.519 58.113C200.545 55.358 202.004 52.9001 203.895 50.7394C205.785 48.5786 208.135 46.877 210.944 45.6346C213.807 44.3382 217.048 43.6899 220.667 43.6899C225.421 43.6899 229.418 44.7703 232.66 46.9311C235.955 49.0378 238.467 51.8198 240.195 55.277C241.924 58.6802 242.788 62.4075 242.788 66.4589V70.8344H203.489V63.4608H234.928L230.715 66.864C230.715 64.2171 230.337 61.9483 229.581 60.0576C228.824 58.167 227.69 56.7355 226.177 55.7631C224.719 54.7368 222.882 54.2236 220.667 54.2236C218.399 54.2236 216.481 54.7368 214.914 55.7631C213.348 56.7895 212.159 58.302 211.349 60.3007C210.539 62.2454 210.134 64.6492 210.134 67.5122C210.134 70.1592 210.512 72.482 211.268 74.4807C212.024 76.4253 213.213 77.9379 214.833 79.0182C216.454 80.0986 218.561 80.6388 221.154 80.6388C223.53 80.6388 225.475 80.1796 226.988 79.2613C228.5 78.343 229.526 77.2086 230.067 75.8581H241.978C241.33 78.8292 240.06 81.4761 238.17 83.7989C236.279 86.1217 233.902 87.9313 231.039 89.2278C228.176 90.5242 224.881 91.1725 221.154 91.1725Z" fill="#04018A"/>
<path d="M171.213 91.1725C167.378 91.1725 164.029 90.5512 161.166 89.3088C158.357 88.0124 156.007 86.2838 154.116 84.123C152.226 81.9623 150.821 79.5314 149.903 76.8305C148.985 74.0755 148.525 71.2395 148.525 68.3225V66.783C148.525 63.7579 149.012 60.8679 149.984 58.113C150.956 55.304 152.388 52.8191 154.278 50.6584C156.169 48.4976 158.519 46.796 161.328 45.5536C164.191 44.3112 167.459 43.6899 171.132 43.6899C175.13 43.6899 178.668 44.4732 181.747 46.0398C184.826 47.5523 187.284 49.686 189.121 52.441C190.957 55.1959 191.984 58.356 192.2 61.9213H179.478C179.262 59.9226 178.452 58.248 177.047 56.8975C175.697 55.493 173.725 54.7908 171.132 54.7908C168.972 54.7908 167.162 55.331 165.703 56.4114C164.299 57.4917 163.246 58.9773 162.543 60.8679C161.841 62.7586 161.49 65.0004 161.49 67.5933C161.49 69.9701 161.814 72.1308 162.462 74.0755C163.11 75.9662 164.137 77.4517 165.541 78.5321C167 79.5584 168.89 80.0716 171.213 80.0716C172.942 80.0716 174.4 79.7745 175.589 79.1803C176.831 78.5321 177.804 77.6678 178.506 76.5874C179.262 75.453 179.721 74.1565 179.883 72.698H192.524C192.362 76.3713 191.335 79.6124 189.445 82.4214C187.554 85.1764 185.042 87.3371 181.909 88.9037C178.776 90.4162 175.211 91.1725 171.213 91.1725Z" fill="#04018A"/>
<path d="M125.953 90V45H139V90H125.953ZM120 54.6898V45H139V54.6898H120Z" fill="#04018A"/>
<path d="M84.3711 89.6328V45.2293H94.6617V64.2709H94.4186C94.4186 58.0047 95.742 53.1701 98.389 49.7669C101.09 46.3637 104.979 44.6621 110.057 44.6621H111.759V55.844H108.517C104.952 55.844 102.197 56.8163 100.253 58.761C98.3079 60.6517 97.3356 63.4066 97.3356 67.0259V89.6328H84.3711Z" fill="#04018A"/>
<path d="M40.342 90.0375V79.6659H54.1978C56.6827 79.6659 58.5463 79.0177 59.7888 77.7212C61.0312 76.4248 61.6524 74.5881 61.6524 72.2113C61.6524 69.8345 61.0312 68.0248 59.7888 66.7824C58.5463 65.486 56.6827 64.8377 54.1978 64.8377H40.342V56.8159H53.5496C57.655 56.8159 61.3013 57.3291 64.4884 58.3555C67.6755 59.3278 70.1874 60.9214 72.024 63.1361C73.8607 65.3509 74.779 68.349 74.779 72.1303V73.2647C74.779 76.7759 73.9687 79.8009 72.3481 82.3398C70.7276 84.8247 68.3507 86.7424 65.2177 88.0928C62.0846 89.3893 58.1952 90.0375 53.5496 90.0375H40.342ZM28.998 90.0375V29.9956H41.9626V90.0375H28.998ZM40.342 62.731V54.7902H52.0101C54.5489 54.7902 56.3856 54.142 57.52 52.8456C58.6544 51.5491 59.2216 49.8205 59.2216 47.6598C59.2216 45.391 58.6544 43.6083 57.52 42.3119C56.3856 41.0154 54.5489 40.3672 52.0101 40.3672H40.342V29.9956H51.1998C58.0061 29.9956 63.219 31.4271 66.8382 34.2901C70.5115 37.1531 72.3481 41.2315 72.3481 46.5254V47.7408C72.3481 51.4141 71.4028 54.3581 69.5121 56.5729C67.6755 58.7876 65.1636 60.3812 61.9765 61.3535C58.8434 62.2718 55.2512 62.731 51.1998 62.731H40.342Z" fill="#04018A"/>
<path d="M29 30L2.5 30C1.39543 30 0.5 29.1046 0.5 28L0.499999 2.00001C0.499998 0.895438 1.39543 7.90737e-06 2.5 7.74361e-06L27 4.11122e-06C28.1046 3.94745e-06 29 0.895435 29 2L29 30Z" fill="#04018A"/>
<path d="M139 40L124 40L124 25L139 25L139 40Z" fill="#04018A"/>
<path d="M139 40L124 40L124 25L139 25L139 40Z" stroke="#030181"/>
</svg>
