<svg width="95" height="94" viewBox="0 0 95 94" fill="none" xmlns="http://www.w3.org/2000/svg">
<g filter="url(#filter0_bd_657_143)">
<rect x="4" width="87" height="86" rx="43" fill="white"/>
</g>
<path d="M35.901 20.3538L14.0528 64.2145C14.0101 64.3006 13.9929 64.3947 14.0027 64.4881C14.0124 64.5815 14.0489 64.6713 14.1088 64.7493C14.1687 64.8274 14.2501 64.8912 14.3456 64.9349C14.4411 64.9787 14.5476 65.0011 14.6556 65H26.3347C26.4552 64.9994 26.5732 64.97 26.6758 64.915C26.7784 64.8601 26.8617 64.7817 26.9164 64.6884L35.9221 49.0392C35.9763 48.9455 36.0594 48.8668 36.1621 48.8118C36.2648 48.7567 36.3831 48.7276 36.5038 48.7276C36.6245 48.7276 36.7428 48.7567 36.8455 48.8118C36.9482 48.8668 37.0313 48.9455 37.0855 49.0392L46.0912 64.6884C46.1452 64.7811 46.2274 64.8591 46.3289 64.9141C46.4304 64.969 46.5473 64.9987 46.6669 65H58.346C58.4536 65.0004 58.5598 64.9776 58.6548 64.9337C58.7499 64.8897 58.8309 64.826 58.8907 64.7481C58.9504 64.6703 58.987 64.5808 58.9971 64.4877C59.0072 64.3945 58.9906 64.3007 58.9487 64.2145C51.663 49.5925 44.3803 34.9697 37.1006 20.3459C37.051 20.2428 36.9672 20.1548 36.8598 20.0932C36.7524 20.0316 36.6264 19.9992 36.4977 20C36.3691 20.0009 36.2436 20.035 36.1374 20.098C36.0311 20.161 35.9488 20.25 35.901 20.3538Z" fill="#0F351D"/>
<path d="M61.2124 20.3616L50.057 42.0529C50.0194 42.1246 50 42.2021 50 42.2804C50 42.3588 50.0194 42.4363 50.057 42.5079C51.8455 45.9848 53.6383 49.4617 55.4354 52.9385C55.4866 53.0388 55.5708 53.1247 55.6782 53.186C55.7855 53.2473 55.9115 53.2815 56.0412 53.2846C56.1709 53.2877 56.299 53.2595 56.4102 53.2033C56.5215 53.1472 56.6114 53.0655 56.6692 52.9678L61.2409 45.2779C61.2972 45.1826 61.3841 45.1024 61.4917 45.0464C61.5993 44.9903 61.7234 44.9606 61.8499 44.9606C61.9765 44.9606 62.1005 44.9903 62.2081 45.0464C62.3157 45.1024 62.4026 45.1826 62.4589 45.2779C65.1165 49.7446 67.773 54.2131 70.4285 58.6833C70.4853 58.7785 70.5726 58.8585 70.6804 58.9144C70.7882 58.9704 70.9124 59 71.0391 59H81.3118C81.4251 59.0011 81.537 58.9784 81.6372 58.9339C81.7375 58.8894 81.8229 58.8246 81.8858 58.7453C81.9486 58.6659 81.9869 58.5747 81.9972 58.4798C82.0075 58.3848 81.9894 58.2893 81.9446 58.2017C75.4588 45.5892 68.971 32.9785 62.4811 20.3696C62.4325 20.2616 62.3462 20.1686 62.2336 20.1026C62.121 20.0366 61.9872 20.0009 61.85 20C61.7127 19.9992 61.5784 20.0332 61.4646 20.0978C61.3508 20.1623 61.2629 20.2543 61.2124 20.3616Z" fill="#A02116"/>
<defs>
<filter id="filter0_bd_657_143" x="0" y="-4" width="95" height="98" filterUnits="userSpaceOnUse" color-interpolation-filters="sRGB">
<feFlood flood-opacity="0" result="BackgroundImageFix"/>
<feGaussianBlur in="BackgroundImageFix" stdDeviation="2"/>
<feComposite in2="SourceAlpha" operator="in" result="effect1_backgroundBlur_657_143"/>
<feColorMatrix in="SourceAlpha" type="matrix" values="0 0 0 0 0 0 0 0 0 0 0 0 0 0 0 0 0 0 127 0" result="hardAlpha"/>
<feOffset dy="4"/>
<feGaussianBlur stdDeviation="2"/>
<feComposite in2="hardAlpha" operator="out"/>
<feColorMatrix type="matrix" values="0 0 0 0 1 0 0 0 0 0 0 0 0 0 0 0 0 0 0.06 0"/>
<feBlend mode="normal" in2="effect1_backgroundBlur_657_143" result="effect2_dropShadow_657_143"/>
<feBlend mode="normal" in="SourceGraphic" in2="effect2_dropShadow_657_143" result="shape"/>
</filter>
</defs>
</svg>
