<svg width="33" height="33" viewBox="0 0 33 33" fill="none" xmlns="http://www.w3.org/2000/svg">
<path d="M16.5 0C7.4019 0 0 7.4019 0 16.5C0 25.5981 7.4019 33 16.5 33C25.5981 33 33 25.5981 33 16.5C33 7.4019 25.5981 0 16.5 0ZM10.725 16.5C10.3999 16.4999 10.0779 16.4357 9.77761 16.3112C9.47727 16.1867 9.20439 16.0042 8.97457 15.7743C8.74474 15.5443 8.56247 15.2713 8.43815 14.9709C8.31382 14.6704 8.24989 14.3485 8.25 14.0233C8.25011 13.6982 8.31425 13.3763 8.43878 13.076C8.5633 12.7756 8.74576 12.5027 8.97574 12.2729C9.20571 12.0431 9.47871 11.8608 9.77913 11.7365C10.0796 11.6122 10.4015 11.5482 10.7267 11.5483C11.3833 11.5486 12.0129 11.8096 12.4771 12.2741C12.9412 12.7385 13.2019 13.3684 13.2017 14.025C13.2014 14.6816 12.9404 15.3113 12.4759 15.7754C12.0115 16.2396 11.3816 16.5002 10.725 16.5ZM22.2635 16.4769C21.9345 16.4853 21.6071 16.4277 21.3008 16.3076C20.9944 16.1875 20.7151 16.0073 20.4795 15.7775C20.2439 15.5478 20.0567 15.2732 19.9289 14.9699C19.8011 14.6666 19.7353 14.3409 19.7354 14.0118C19.7355 13.6827 19.8015 13.357 19.9295 13.0538C20.0575 12.7506 20.2449 12.4761 20.4807 12.2465C20.7165 12.0169 20.9958 11.8369 21.3023 11.717C21.6088 11.5971 21.9361 11.5397 22.2651 11.5483C22.9076 11.5652 23.5182 11.8323 23.9666 12.2928C24.415 12.7533 24.6658 13.3707 24.6656 14.0134C24.6654 14.6562 24.4141 15.2734 23.9654 15.7336C23.5167 16.1938 22.906 16.4605 22.2635 16.4769Z" fill="black"/>
</svg>
