<svg width="18" height="18" viewBox="0 0 18 18" fill="none" xmlns="http://www.w3.org/2000/svg">
<path d="M13 3C13.18 3 13.353 3.024 13.518 3.068L6.293 10.293C6.19749 10.3852 6.12131 10.4956 6.0689 10.6176C6.01649 10.7396 5.9889 10.8708 5.98775 11.0036C5.9866 11.1364 6.0119 11.2681 6.06218 11.391C6.11246 11.5139 6.18671 11.6255 6.28061 11.7194C6.3745 11.8133 6.48615 11.8875 6.60905 11.9378C6.73194 11.9881 6.86362 12.0134 6.9964 12.0123C7.12918 12.0111 7.2604 11.9835 7.3824 11.9311C7.50441 11.8787 7.61475 11.8025 7.707 11.707L14.932 4.482C14.977 4.647 15 4.821 15 5V16C15 16.5304 14.7893 17.0391 14.4142 17.4142C14.0391 17.7893 13.5304 18 13 18H2C1.46957 18 0.960859 17.7893 0.585786 17.4142C0.210714 17.0391 0 16.5304 0 16V5C0 4.46957 0.210714 3.96086 0.585786 3.58579C0.960859 3.21071 1.46957 3 2 3H13ZM17 0C17.2652 0 17.5196 0.105357 17.7071 0.292893C17.8946 0.48043 18 0.734784 18 1V6C18 6.26522 17.8946 6.51957 17.7071 6.70711C17.5196 6.89464 17.2652 7 17 7C16.7348 7 16.4804 6.89464 16.2929 6.70711C16.1054 6.51957 16 6.26522 16 6V3.414L14.932 4.482C14.8408 4.14314 14.6621 3.83418 14.414 3.58603C14.1658 3.33788 13.8569 3.15925 13.518 3.068L14.586 2H12C11.7348 2 11.4804 1.89464 11.2929 1.70711C11.1054 1.51957 11 1.26522 11 1C11 0.734784 11.1054 0.48043 11.2929 0.292893C11.4804 0.105357 11.7348 0 12 0H17Z" fill="black"/>
</svg>
