<svg viewBox="0 0 40 35" fill="none" xmlns="http://www.w3.org/2000/svg">
<path d="M34.8939 5.08749C34.4926 3.73187 33.6596 2.54301 32.5207 1.70025C31.3818 0.85749 29.9986 0.406535 28.5799 0.415412C26.9356 0.416874 25.3514 1.03098 24.1386 2.13702C22.9258 3.24305 22.1722 4.76101 22.0259 6.39249H17.9759C17.8276 4.7593 17.0715 3.24042 15.8561 2.1344C14.6408 1.02838 13.0541 0.415211 11.408 0.415412C9.99112 0.408484 8.61039 0.860389 7.47375 1.70305C6.33712 2.54572 5.50613 3.73351 5.10598 5.08749L0.0839998 21.7596C0.0289857 21.9452 0.000703675 22.1378 0 22.3314V24.3237C0.0031767 26.9651 1.05804 29.4974 2.93314 31.365C4.80824 33.2326 7.35044 34.2829 10.002 34.2855C11.9453 34.2822 13.8456 33.7152 15.4709 32.6538C17.0961 31.5924 18.3759 30.0825 19.1539 28.3084H20.8459C21.624 30.0825 22.9037 31.5924 24.529 32.6538C26.1542 33.7152 28.0545 34.2822 29.9979 34.2855C32.6498 34.2829 35.1923 33.2323 37.0674 31.3643C38.9426 29.4963 39.9972 26.9635 39.9998 24.3217V22.3314C39.9998 22.1361 39.9698 21.9449 39.9158 21.7596L34.8939 5.08749ZM10.002 30.3008C8.41113 30.2987 6.88604 29.6684 5.76097 28.548C4.63589 27.4275 4.00263 25.9085 3.99998 24.3237C3.99998 24.1723 4.03398 24.0309 4.04398 23.8814C4.15341 22.3808 4.82787 20.9767 5.9323 19.9504C7.03674 18.924 8.4896 18.3512 9.99996 18.3466C11.5913 18.3466 13.1174 18.9764 14.2426 20.0973C15.3678 21.2182 15.9999 22.7385 15.9999 24.3237V24.3417C15.9931 25.9228 15.3584 27.4369 14.2346 28.5535C13.1108 29.67 11.5891 30.2982 10.002 30.3008ZM29.9979 30.3008C28.4107 30.2982 26.889 29.67 25.7652 28.5535C24.6414 27.4369 24.0068 25.9228 23.9999 24.3417V24.3237C23.9998 23.5388 24.1548 22.7615 24.4562 22.0363C24.7577 21.3111 25.1995 20.6521 25.7566 20.097C26.8816 18.9759 28.4076 18.3459 29.9989 18.3457C31.5902 18.3454 33.1164 18.9749 34.2418 20.0956C35.3672 21.2163 35.9996 22.7365 35.9999 24.3217C35.9977 25.9068 35.3647 27.4264 34.2396 28.5472C33.1145 29.6681 31.5891 30.2987 29.9979 30.3008Z" fill="#03016F"/>
</svg>
