<svg  viewBox="0 0 52 50" fill="none" xmlns="http://www.w3.org/2000/svg">
<path d="M20.4896 14.721L24.4742 23.4111L33.3824 24.7997C33.9119 24.8825 34.4094 25.1231 34.8185 25.4945C35.2276 25.8658 35.5319 26.353 35.6971 26.9008C35.8623 27.4487 35.8817 28.0354 35.7532 28.5946C35.6246 29.1537 35.3533 29.663 34.9698 30.0647L28.5234 36.8301L30.0463 46.3804C30.1361 46.9474 30.0769 47.5301 29.8753 48.0628C29.6738 48.5955 29.3379 49.057 28.9057 49.3951C28.4734 49.7332 27.962 49.9346 27.429 49.9764C26.8961 50.0183 26.3629 49.899 25.8896 49.632L17.9167 45.123L9.94738 49.632C9.47411 49.899 8.94092 50.0183 8.408 49.9764C7.87507 49.9346 7.36362 49.7332 6.93137 49.3951C6.49911 49.057 6.16326 48.5955 5.96171 48.0628C5.76016 47.5301 5.70093 46.9474 5.79072 46.3804L7.31005 36.8301L0.863635 30.0647C0.481139 29.6625 0.210747 29.1533 0.0830106 28.5944C-0.0447256 28.0355 -0.0247154 27.4494 0.140781 26.9021C0.306277 26.3548 0.610662 25.8683 1.01955 25.4975C1.42843 25.1266 1.92551 24.8863 2.45463 24.8035L11.3628 23.4111L15.3439 14.721C15.5805 14.2044 15.9468 13.7695 16.4011 13.4653C16.8555 13.1612 17.3799 13 17.9149 13C18.45 13 18.9744 13.1612 19.4287 13.4653C19.8831 13.7695 20.2493 14.2044 20.486 14.721H20.4896Z" fill="black"/>
<path d="M43.4348 0.977164L45.6586 5.91146L50.6301 6.6999C50.9256 6.7469 51.2032 6.88355 51.4315 7.0944C51.6598 7.30524 51.8297 7.58186 51.9219 7.89294C52.0141 8.20403 52.0249 8.53716 51.9532 8.85464C51.8814 9.17213 51.73 9.46128 51.516 9.68939L47.9184 13.5308L48.7683 18.9535C48.8184 19.2755 48.7853 19.6063 48.6728 19.9088C48.5604 20.2113 48.3729 20.4733 48.1317 20.6653C47.8905 20.8573 47.605 20.9716 47.3076 20.9954C47.0102 21.0191 46.7126 20.9514 46.4485 20.7998L41.999 18.2395L37.5514 20.7998C37.2873 20.9514 36.9898 21.0191 36.6923 20.9954C36.3949 20.9716 36.1095 20.8573 35.8683 20.6653C35.627 20.4733 35.4396 20.2113 35.3271 19.9088C35.2146 19.6063 35.1816 19.2755 35.2317 18.9535L36.0796 13.5308L32.482 9.68939C32.2685 9.46105 32.1176 9.17188 32.0463 8.85456C31.975 8.53724 31.9862 8.2044 32.0786 7.89366C32.1709 7.58292 32.3408 7.30666 32.569 7.0961C32.7972 6.88554 33.0746 6.74906 33.3699 6.70209L38.3414 5.91146L40.5631 0.977164C40.6952 0.683867 40.8996 0.436902 41.1532 0.264212C41.4067 0.0915224 41.6994 0 41.998 0C42.2966 0 42.5892 0.0915224 42.8428 0.264212C43.0964 0.436902 43.3008 0.683867 43.4328 0.977164H43.4348Z" fill="black"/>
</svg>
