<svg   viewBox="0 0 36 37" fill="none" xmlns="http://www.w3.org/2000/svg">
<path d="M20.4896 1.72095L24.4742 10.4111L33.3824 11.7997C33.9119 11.8825 34.4094 12.1231 34.8185 12.4945C35.2276 12.8658 35.5319 13.353 35.6971 13.9008C35.8623 14.4487 35.8817 15.0354 35.7532 15.5946C35.6246 16.1537 35.3533 16.663 34.9698 17.0647L28.5234 23.8301L30.0463 33.3804C30.1361 33.9474 30.0769 34.5301 29.8753 35.0628C29.6738 35.5955 29.3379 36.057 28.9057 36.3951C28.4734 36.7332 27.962 36.9346 27.429 36.9764C26.8961 37.0183 26.3629 36.899 25.8896 36.632L17.9167 32.123L9.94738 36.632C9.47411 36.899 8.94092 37.0183 8.408 36.9764C7.87507 36.9346 7.36362 36.7332 6.93137 36.3951C6.49911 36.057 6.16326 35.5955 5.96171 35.0628C5.76016 34.5301 5.70093 33.9474 5.79072 33.3804L7.31005 23.8301L0.863635 17.0647C0.481139 16.6625 0.210747 16.1533 0.0830106 15.5944C-0.0447256 15.0355 -0.0247154 14.4494 0.140781 13.9021C0.306277 13.3548 0.610662 12.8683 1.01955 12.4975C1.42843 12.1266 1.92551 11.8863 2.45463 11.8035L11.3628 10.4111L15.3439 1.72095C15.5805 1.20441 15.9468 0.76946 16.4011 0.465324C16.8555 0.161187 17.3799 0 17.9149 0C18.45 0 18.9744 0.161187 19.4287 0.465324C19.8831 0.76946 20.2493 1.20441 20.486 1.72095H20.4896Z" fill="#03016F"/>
</svg>
