<svg width="1326" height="1109" viewBox="0 0 1326 1109" fill="none" xmlns="http://www.w3.org/2000/svg">
<path d="M143 692V793H244V692H143ZM197.966 770.769C197.966 780.599 192.194 785.086 183.786 785.086C176.189 785.086 171.792 781.165 169.538 776.407L177.271 771.74C178.761 774.376 180.114 776.609 183.382 776.609C186.491 776.609 188.475 775.39 188.475 770.636V738.373H197.966V770.769ZM220.417 785.086C211.601 785.086 205.898 780.894 203.124 775.39L210.858 770.928C212.888 774.243 215.547 776.699 220.215 776.699C224.135 776.699 226.664 774.737 226.664 772.01C226.664 768.764 224.092 767.613 219.742 765.698L217.376 764.684C210.522 761.777 205.992 758.101 205.992 750.367C205.992 743.243 211.424 737.832 219.879 737.832C225.921 737.832 230.25 739.928 233.363 745.429L225.968 750.165C224.345 747.258 222.584 746.107 219.857 746.107C217.087 746.107 215.327 747.867 215.327 750.165C215.327 753.008 217.087 754.155 221.167 755.937L223.533 756.95C231.606 760.399 236.136 763.941 236.136 771.873C236.136 780.397 229.416 785.082 220.42 785.082L220.417 785.086Z" fill="black"/>
</svg>
