<svg width="36" height="38" viewBox="0 0 36 38" fill="none" xmlns="http://www.w3.org/2000/svg">
<path d="M20.4896 1.96021L24.4742 10.6504L33.3824 12.0389C33.9119 12.1217 34.4094 12.3624 34.8185 12.7337C35.2276 13.105 35.5319 13.5922 35.6971 14.1401C35.8623 14.688 35.8817 15.2747 35.7532 15.8338C35.6246 16.393 35.3533 16.9022 34.9698 17.3039L28.5234 24.0694L30.0463 33.6197C30.1361 34.1867 30.0769 34.7694 29.8753 35.3021C29.6738 35.8348 29.3379 36.2962 28.9057 36.6343C28.4734 36.9725 27.962 37.1738 27.429 37.2157C26.8961 37.2576 26.3629 37.1383 25.8896 36.8713L17.9167 32.3622L9.94738 36.8713C9.47411 37.1383 8.94092 37.2576 8.408 37.2157C7.87507 37.1738 7.36362 36.9725 6.93137 36.6343C6.49911 36.2962 6.16326 35.8348 5.96171 35.3021C5.76016 34.7694 5.70093 34.1867 5.79072 33.6197L7.31005 24.0694L0.863635 17.3039C0.481139 16.9018 0.210747 16.3925 0.0830106 15.8337C-0.0447256 15.2748 -0.0247154 14.6886 0.140781 14.1414C0.306277 13.5941 0.610662 13.1076 1.01955 12.7367C1.42843 12.3659 1.92551 12.1255 2.45463 12.0428L11.3628 10.6504L15.3439 1.96021C15.5805 1.44367 15.9468 1.00872 16.4011 0.704581C16.8555 0.400445 17.3799 0.239258 17.9149 0.239258C18.45 0.239258 18.9744 0.400445 19.4287 0.704581C19.8831 1.00872 20.2493 1.44367 20.486 1.96021H20.4896ZM21.5001 30.0287L26.2695 32.7287L24.9293 24.3201C24.8508 23.8271 24.8847 23.3209 25.0283 22.8452C25.1719 22.3695 25.4208 21.9384 25.7535 21.5892L31.4295 15.6338L23.5856 14.4072C23.1514 14.339 22.7376 14.1644 22.3761 13.8969C22.0145 13.6294 21.7148 13.2762 21.5001 12.8644V30.0287Z" fill="#03016F"/>
</svg>
