<svg width="8" height="9" viewBox="0 0 8 9" fill="none" xmlns="http://www.w3.org/2000/svg">
<path d="M2.79479 3.1465C2.80913 3.1032 2.83675 3.06551 2.87373 3.0388C2.91071 3.01209 2.95517 2.99772 3.00079 2.99772C3.04641 2.99772 3.09086 3.01209 3.12784 3.0388C3.16483 3.06551 3.19245 3.1032 3.20679 3.1465L3.59379 4.3085C3.76679 4.8265 4.17279 5.2325 4.69079 5.4055L5.85279 5.7925C5.89609 5.80684 5.93378 5.83447 5.96049 5.87145C5.9872 5.90843 6.00157 5.95288 6.00157 5.9985C6.00157 6.04412 5.9872 6.08858 5.96049 6.12556C5.93378 6.16254 5.89609 6.19016 5.85279 6.2045L4.69079 6.5915C4.43531 6.67662 4.20317 6.82007 4.01276 7.01048C3.82235 7.20089 3.6789 7.43303 3.59379 7.6885L3.20679 8.8505C3.19245 8.89381 3.16483 8.93149 3.12784 8.9582C3.09086 8.98491 3.04641 8.99929 3.00079 8.99929C2.95517 8.99929 2.91071 8.98491 2.87373 8.9582C2.83675 8.93149 2.80913 8.89381 2.79479 8.8505L2.40779 7.6885C2.32267 7.43303 2.17922 7.20089 1.98881 7.01048C1.7984 6.82007 1.56626 6.67662 1.31079 6.5915L0.148787 6.2045C0.105481 6.19016 0.0677967 6.16254 0.0410867 6.12556C0.0143766 6.08858 0 6.04412 0 5.9985C0 5.95288 0.0143766 5.90843 0.0410867 5.87145C0.0677967 5.83447 0.105481 5.80684 0.148787 5.7925L1.31079 5.4055C1.56626 5.32039 1.7984 5.17694 1.98881 4.98653C2.17922 4.79612 2.32267 4.56398 2.40779 4.3085L2.79479 3.1465V3.1465ZM5.86379 0.0975026C5.87366 0.0690289 5.89216 0.0443386 5.91671 0.0268642C5.94126 0.00938991 5.97065 0 6.00079 0C6.03092 0 6.06031 0.00938991 6.08486 0.0268642C6.10942 0.0443386 6.12792 0.0690289 6.13779 0.0975026L6.39579 0.871503C6.51079 1.2175 6.78179 1.4885 7.12779 1.6035L7.90179 1.8615C7.93026 1.87137 7.95495 1.88987 7.97243 1.91443C7.9899 1.93898 7.99929 1.96837 7.99929 1.9985C7.99929 2.02864 7.9899 2.05803 7.97243 2.08258C7.95495 2.10713 7.93026 2.12563 7.90179 2.1355L7.12779 2.3935C6.95728 2.45023 6.80234 2.54592 6.67527 2.67299C6.5482 2.80005 6.45251 2.95499 6.39579 3.1255L6.13779 3.8995C6.12792 3.92798 6.10942 3.95267 6.08486 3.97014C6.06031 3.98762 6.03092 3.99701 6.00079 3.99701C5.97065 3.99701 5.94126 3.98762 5.91671 3.97014C5.89216 3.95267 5.87366 3.92798 5.86379 3.8995L5.60579 3.1255C5.54906 2.95499 5.45337 2.80005 5.3263 2.67299C5.19924 2.54592 5.0443 2.45023 4.87379 2.3935L4.09979 2.1355C4.07131 2.12563 4.04662 2.10713 4.02915 2.08258C4.01167 2.05803 4.00228 2.02864 4.00228 1.9985C4.00228 1.96837 4.01167 1.93898 4.02915 1.91443C4.04662 1.88987 4.07131 1.87137 4.09979 1.8615L4.87379 1.6035C5.21979 1.4885 5.49079 1.2175 5.60579 0.871503L5.86379 0.0985026V0.0975026Z" fill="black"/>
</svg>
